<?xml version="1.0" encoding="UTF-8"?>
<svg id="Layer_1" data-name="Layer 1" xmlns="http://www.w3.org/2000/svg" viewBox="0 0 1023 603">
  <defs>
    <style>
      .cls-1 {
        fill: none;
        stroke: #000;
        stroke-linecap: round;
        stroke-linejoin: round;
        stroke-width: 3.45px;
      }
    </style>
  </defs>
  <path class="cls-1" d="M40.3,502.07c6.46.28,12.88-.48,19.28-1.14,4.52-.47,9.08-.59,13.59-.83,9.76-.52,19.51-1.28,29.27-1.72,9.29-.42,18.58-1.09,27.86-1.7,5.48-.36,10.96-.65,16.43-1.02,11.78-.79,23.59-1.21,35.36-2.12,4.51-.35,9.06-.52,13.57-.64,11.92-.34,23.82-1,35.71-1.67,18.33-1.03,36.69-1.55,55.02-2.6,8.3-.48,16.67-.61,24.99-.97,15.84-.7,31.69-.99,47.51-1.96,5.93-.37,11.9-.13,17.86-.37,16.66-.67,33.34-1,50-1.51,10.72-.32,21.43-.86,32.15-.95,15.12-.13,30.23-.8,45.36-.92,7.37-.06,14.77.05,22.15-.51,2.41-.18,3.05-.89,3.31-3.28.53-4.9.62-9.87,2.03-14.66.74-2.54-.11-3.55-2.84-3.56-18.34-.07-36.67.45-55,.82-10.83.21-21.67.03-32.51.56-15.23.74-30.48.6-45.72,1.12-12.62.43-25.25.63-37.86,1.14-20.48.82-40.95,1.58-61.44,2.14-11.19.31-22.39.86-33.57,1.46-18.33.98-36.68,1.7-55.02,2.64-14.64.75-29.28,1.67-43.92,2.39-12.63.63-25.26,1.67-37.88,2.61-13.68,1.03-27.38,1.93-41.06,3.05-10.86.89-21.73,1.8-32.51,3.5-1.75.27-3.18,1.05-4.3,2.49-4.14,5.3-6.62,11.3-7.84,17.87"/>
  <path class="cls-1" d="M412.13,116.31c-14.11-8.73-29.14-15.22-45.35-19-4.4-1.02-8.78-2.02-13.22-2.86-2.2-.42-3.01-.09-3.66,2.19-2.48,8.67-4.77,17.39-6.99,26.12-2.62,10.32-5.16,20.68-7.54,31.06-4.27,18.62-8.35,37.28-11.86,56.06-2.36,12.6-4.71,25.21-6.77,37.86-2.75,16.87-5.19,33.78-7.56,50.71-1.83,13.08-3.34,26.2-4.77,39.32-1.27,11.62-2.07,23.32-3.07,34.98-1.08,12.49-1.44,25.02-2.45,37.51-.53,6.54,0,13.12-.7,19.65-.17,1.6.34,2.67,1.77,3.61,13.21,8.63,27.28,15.23,42.89,18.15,5.44,1.02,10.95-.05,16.42.04,1.73.03,2.44-.7,2.54-2.5.44-7.86.81-15.72,1.38-23.58.78-10.84,1.61-21.68,2.4-32.51,1.02-14.07,2.43-28.1,3.74-42.13,1.25-13.36,2.99-26.68,4.62-40.01,1.39-11.33,2.95-22.65,4.72-33.92,2.02-12.87,3.96-25.77,6.15-38.62,2.68-15.76,5.61-31.46,8.83-47.1,2.79-13.54,6.09-26.98,9.5-40.39,2.92-11.48,6.6-22.75,9.34-34.28"/>
  <path class="cls-1" d="M616.43,466.71c.21-3.34.42-6.68.65-10.01.15-2.19.7-2.98,2.93-2.89,5.12.22,10.25.29,15.36.3,22.86.06,45.73.23,68.58.9,6.9.2,13.82.3,20.72.52,16.31.51,32.62.94,48.93,1.48,9.53.32,19.05.77,28.57,1.1,18.11.62,36.2,1.52,54.29,2.51,10.83.59,21.68,1.14,32.5,1.9,14.18.99,28.37,1.9,42.52,3.43,4.55.49,8.2,1.94,10.83,6.04,1.05,1.64,2.18,3.63,4.87,4.1,7.68,1.34,15.29,3.14,22.86,4.99,6.9,1.69,14.29,2.53,19.51,8.28-3.33,3.63-7.39,5.97-12.33,5.5-7.61-.72-15.25-1.25-22.87-1.62-19.4-.94-38.81-1.83-58.22-2.6-12.5-.5-25-.97-37.51-1.38-16.19-.53-32.38-.95-48.58-1.4-11.78-.33-23.57-.52-35.36-.73-13.22-.23-26.43-.46-39.65-.73-14.52-.3-29.05-.11-43.58-.31-24.05-.33-48.1-.09-72.15-.09-3.92,0-4.19-.28-3.93-3.57.41-5.23.74-10.47,1.07-15.71Z"/>
  <path class="cls-1" d="M783.32,243.31c9.75,4.74,19.48,9.53,30.29,11.55,1.64.31,3.33.26,5.02.65,2.27.53,3.89.12,4.76-3.07,4.92-18.1,12.7-34.87,24.9-49.3,7.32-8.65,15.5-16.29,26.75-19.69.39-.12.53-.62,1.07-.73,3.73-.78,3.81-.55,4.33,3.24,1.53,11.16,1.44,22.37,1.36,33.58-.06,7.88-1.08,15.71-1.42,23.57-.12,2.65-1.56,3.83-4.23,4.75-28.22,9.73-54.24,23.53-77.17,42.78-18.78,15.77-34.09,34.47-45.68,56.08-6.91,12.88-11.99,26.56-15.7,40.71-.45,1.71-.46,3.52.92,5.4,6.13,8.35,13.59,15.26,21.87,21.37,12.06,8.91,24.91,16.34,38.9,21.87,5.2,2.05,10,2.04,15.04-.06,12.37-5.15,22.69-13.34,32.87-21.79,3.9-3.24,7.01-7.34,11.38-10.07.1-.06.19-.12.28-.19.07.15.11.24.11.24,1.47,3.1.1,6.28-.24,9.26-.28,2.45-.27,5.08-1.11,7.56-.56,1.66.44,2.53,2.37,3.31,7.61,3.06,15.47,5.3,23.29,7.66,6.74,2.04,13.59,3.77,20.68,4.5,2.43.25,2.55-.73,2.87-2.28,1.63-7.87,3.38-15.72,4.83-23.6,1.15-6.25,2.15-12.58,3.11-18.89,1.1-7.27,2-14.58,3.34-21.83.78-4.19,1.12-8.54,1.59-12.83.73-6.56,1.71-13.09,2.51-19.64.88-7.14,1.6-14.3,2.46-21.44.95-7.85,1.73-15.71,2.5-23.57.82-8.45,1.74-16.9,2.58-25.35.65-6.55,1.27-13.12,1.93-19.67.71-7,1.43-14.03,1.92-21.06.53-7.51,1.17-15.01,1.89-22.49.66-6.79.81-13.63,2.01-20.37.44-2.46-.07-4.98.25-7.51.16-1.25-1.47-2.3-2.69-3.24-7.47-5.76-16.03-9.15-25.05-11.33-9.25-2.24-18.64-3.85-28.2-3.97-3-.04-5.3-.69-7.24-3.52-4.32-6.3-10-11.37-15.9-16.23-2.23-1.83-4.09-1.86-6.13-.59-11.63,7.27-22.34,15.76-31.77,25.72-11.21,11.82-20.54,25.02-27.93,39.6-5.88,11.6-10.52,23.65-14.32,36.07-.58,1.9-.03,2.53,1.49,3.26,1.1.53,2.21,1.07,3.31,1.6Z"/>
  <path class="cls-1" d="M399.15,275.23c-1.42,4.16-2.77,8.35-4.02,12.57-4.6,15.5-8.07,31.33-10.29,47.44-2.17,15.71-2.73,31.38-2.06,47.17.16,3.85.67,7.63,1.12,11.43.63,5.26,3.95,9.22,6.88,13.15,9.25,12.39,20.74,22.32,34.15,30.15,9.35,5.46,19.36,8.96,29.71,11.65,5.54,1.44,10.79-.73,15.66-2.89,15.12-6.71,29.27-15.01,41.89-25.92,12.72-11,23.31-23.67,32.03-37.96,1.01-1.66,1.35-3.38.19-5.75-7.11-14.44-18.12-24.38-32.95-30.4-1.32-.54-2.71-.43-4.04-1.21-1.83-1.08-3.54-.52-5,1.62-6.45,9.46-13.56,18.4-22.09,26.11-8.59,7.77-18,14.21-29.28,17.52-4.33,1.27-4.4,1.08-4.69-3.21-.54-8.22-.48-16.44.12-24.64.23-3.23.01-6.59,1.65-9.68.11-.21.17-.42.18-.63,4.31,2.14,7.96,5.28,12.01,7.83,1.77,1.11,3.02,1.23,5.07.07,11.09-6.28,21.45-13.61,31.35-21.56,22.59-18.14,41.82-39.17,56.18-64.57,10.29-18.2,17.96-37.2,21.45-57.89.88-5.24,1.3-10.5,2.03-15.73.87-6.21-.8-11.52-5.31-16.11-9.58-9.74-20.88-15.48-34.68-16.08-2.99-.13-5.95-.51-8.94.02-1.51.27-3.09.18-3.9-1.42-1.42-2.79-3.8-4.88-5.85-7.03-9.35-9.8-20.08-17.81-32.74-22.99-1.48-.61-1.97.01-2.92,1.05-12.03,13.26-22.99,27.4-33.44,41.89-11.61,16.09-21.61,33.21-30.49,50.99-7.31,14.62-13.72,29.6-19,45Z"/>
  <path class="cls-1" d="M664.3,168.1c-1.13-2.52.22-4.99.95-7.06.71-2.04.22-2.82-.93-4.02-4.75-4.95-10.28-9.07-16.16-12.36-11.43-6.4-23.77-10.6-36.7-13.09-3.08-.6-4.22.51-5.02,2.96-2.52,7.7-4.86,15.45-7.14,23.22-4.76,16.21-9.22,32.52-13.16,48.95-5.11,21.32-9.75,42.76-13.95,64.28-2.77,14.14-5.39,28.31-7.77,42.52-1.66,9.95-3.09,19.97-4.53,29.97-1.8,12.5-3.59,25-5.28,37.52-1.66,12.37-3.11,24.76-4.69,37.14-1.23,9.64-2.4,19.3-3.35,28.96-1.15,11.66-2.24,23.33-3.54,34.97-.55,4.92,1.35,7.15,5.17,8.96,7.23,3.42,14.21,7.27,21.74,10.13,11.18,4.24,22.54,5.72,34.34,4.9,2.21-.15,2.9-1.23,2.87-3.25-.12-6.2.25-12.38.66-18.58.71-10.74,1.9-21.43,2.9-32.14.96-10.27,2.55-20.46,3.59-30.72.22-2.15,1.15-4.28,1-6.41.48.44.76.69.76.69,5.21,4.74,10.69,9.12,16.4,13.26,9.17,6.63,19.33,11.3,29.67,15.68,1.48.62,2.35.28,3.64-1,14.49-14.35,25.88-31.11,36.96-48.01,11.29-17.22,21.15-35.36,29.28-54.27,9.42-21.9,17.09-44.48,22.25-67.81,3.86-17.42,6.66-34.99,7.6-52.85.39-7.39.53-14.76.65-22.15.1-5.85-.84-11.65-.78-17.5.02-2.66-1.26-4.83-3.14-6.82-11.65-12.32-26.42-18.64-42.53-22.48-5.41-1.29-10.9-2.19-16.43-2.43-5.18-.22-9.39,2.77-13.54,5.35-6.23,3.87-12.02,8.43-18.04,12.6-2.85,1.97-5.43,3.82-7.36,6.64"/>
  <path class="cls-1" d="M135.77,252.58c.35.32.8.6,1.34.86,10.82,5.14,21.6,10.39,33.55,12.6,1.9.35,3.85.17,5.76.91,1.73.67,2.15-1.15,2.44-2.41,1.94-8.31,5.07-16.23,8.67-23.89,7.47-15.94,17.11-30.34,31.74-40.72,4.3-3.05,8.93-5.48,14.25-6.56,2.37-.48,3.06.67,3.18,2.24.83,10.69,1.82,21.36,1.23,32.15-.47,8.59-1.3,17.14-1.85,25.71-.18,2.74-.99,4.08-3.92,5.12-22.65,8.07-44.02,18.68-63.63,32.72-19.18,13.74-35.61,30.16-48.92,49.67-10.32,15.12-18.11,31.46-23.63,48.91-.98,3.09-1.59,6.27-2.71,9.34-.73,2,.3,3.95,1.67,5.71,8.83,11.32,19.79,20.23,31.85,27.79,9.46,5.93,19.42,10.94,29.97,14.71,4.15,1.48,8.01,1.19,12.18-.3,12.21-4.36,22.18-12.17,32.12-20.08,5.04-4.01,9.29-8.93,14.67-12.56-.73,3.04-.19,6.32-.97,9.37-.64,2.5-1,5.19-1.17,7.83-.1,1.52-.08,2.51,2.07,3.35,14.3,5.54,29.07,9.37,43.99,12.7,1.86.41,2.93-.22,3.28-2.46.85-5.39,2.05-10.73,3.15-16.08,1.5-7.37,2.93-14.77,4.11-22.17.85-5.32,1.62-10.69,2.4-16.03.86-5.84,1.64-11.71,2.64-17.54.72-4.22.99-8.56,1.56-12.84.96-7.26,1.86-14.54,2.71-21.81.59-5.09,1.15-10.22,1.69-15.33.58-5.48,1.25-10.98,1.88-16.46.64-5.56,1.18-11.17,1.6-16.77.46-6.08,1.26-12.14,1.75-18.22.53-6.56,1.32-13.08,1.84-19.64.55-6.91,1.1-13.82,1.82-20.71.34-3.21.58-6.45.88-9.66,1.02-10.95,1.85-21.91,2.98-32.85.25-2.4-.26-4.19-2.46-5.77-9.89-7.13-21.17-10.52-32.9-12.8-7.43-1.44-14.97-2.01-22.51-2.44-2.05-.12-3.16-.93-4.33-2.52-5.05-6.83-11.26-12.53-17.78-17.93-1.72-1.43-2.65-1.31-4.75-.1-11.71,6.72-21.91,15.36-31.25,24.88-10.06,10.26-18.4,21.93-25.56,34.49-7.37,12.94-12.87,26.53-17.19,40.73-.7,2.31-.6,3.79.6,4.87Z"/>
  <path class="cls-1" d="M621.6,476.81s0-.08.01-.12c.42-4.48,1.01-9.03.83-13.55-.1-2.63.66-3.32,3.28-3.28,14.88.21,29.77-.31,44.64.46,10.83.56,21.67.34,32.51.57,17.14.36,34.28.97,51.43,1.22,7.98.12,15.96.38,23.93.76,15.83.76,31.68,1.31,47.51,2.06,6.43.3,12.87.44,19.28.82,11.19.67,22.39,1.37,33.58,2.08,8.57.54,17.15,1.05,25.72,1.75,7.74.63,15.47,1.27,23.22,1.74,5.16.31,9.77,1.3,11.76,6.83.76,2.1,2.41,3.01,4.31,3.14,2.7.19,5.29.91,7.83,1.59,4.67,1.26,9.79.97,13.72,4.88-1.57-.15-3.16-.24-4.77-.22-17.51.23-35-1.46-52.5-2.28-13.93-.65-27.87-1.05-41.8-1.63-12.13-.51-24.29-.76-36.43-1.21-12.97-.49-25.96-.56-38.94-.96-13.92-.43-27.86-.67-41.79-.73-22.03-.09-44.05-.46-66.08-.45-19.17.01-38.34-.02-57.51.03-2.55,0-4.06.08-3.76-3.49Z"/>
  <path class="cls-1" d="M403.9,280.22c-3.97,11.97-7.28,24.14-9.84,36.5-2.79,13.49-4.92,27.14-5.27,41.04-.29,11.59-.24,23.13.89,34.64.39,4.04,3.03,7.25,5.37,10.32,14.05,18.41,31.78,31.58,54.19,38.4,7.48,2.27,13.89,1.36,20.8-1.82,18.13-8.34,34.57-18.99,48.52-33.33,7.38-7.59,13.63-16.07,19.32-24.98.91-1.43,1.23-2.78.34-4.3-6.71-11.48-15.51-20.43-28.52-24.8-2.41-.81-3.56-.35-4.67,1.24-5.29,7.59-11.23,14.64-17.91,21.03-9.61,9.21-20,17.16-33.17,20.83-3.44.96-6.91,1.66-10.39,2.39-1.63.34-2.22-.3-2.59-2.11-1.01-4.99-.68-10.03-.89-15.02-.5-11.97.62-23.88,2.44-35.71.29-1.9.51-3.91,1.77-5.56.39.46.85.88,1.36,1.32,4.28,3.7,8.25,7.76,12.91,11.02,4.11,2.87,4.02,2.7,8.59.03,18.19-10.63,34.27-23.91,48.9-38.97,19.44-20.01,34.86-42.69,44.62-68.94,5.86-15.75,9.72-31.97,9.68-48.92,0-1.28-.02-2.39-1-3.62-6.8-8.63-15.54-14.24-26.16-16.66-5.83-1.33-11.89-.98-17.84-.71-3.01.14-4.83-1.02-6.45-3.29-8.03-11.27-18.81-19.36-30.73-26.04-1.7-.95-3.19-1.22-5.08.94-14.55,16.6-27.88,34.13-39.82,52.65-12.1,18.76-22.36,38.54-30.81,59.24-3.12,7.64-5.99,15.37-8.58,23.18Z"/>
  <path class="cls-1" d="M525.47,190.48c.8.66,1.46,1.55,1.92,2.67,1.25,3,2.15,6.22,2.27,9.6.29,8.18-1.88,15.88-5.1,23.19-7.44,16.85-18.14,31.53-30.99,44.69-10.74,10.99-23.15,19.89-35.8,28.46-1.95,1.32-3.79,3.7-6.87,2.85.09-.9-.03-1.86.21-2.73,3.48-12.68,7.05-25.36,12.15-37.49,8.9-21.19,20.34-40.89,36.04-57.86,4.98-5.39,10.35-10.43,17.13-13.58,3.57-1.66,6.85-1.57,9.04.21Z"/>
  <path class="cls-1" d="M799.67,390.23c-1.18.15-2.38.28-3.58.38-1.75.15-2.76-.02-2.23-2.51,1.49-6.91,4.11-13.45,7.35-19.56,8.52-16.1,19.17-30.62,33.81-41.86,11.51-8.84,23.81-16.13,37.91-20.05-.04,7.38-1.7,14.57-2.42,21.86-.56,5.63-1.72,11.16-2.21,16.78-.26,3.05-1.03,5.61-3.24,7.88-8.74,8.99-18.28,16.95-28.96,23.56-11.29,6.99-23.32,11.83-36.43,13.52Z"/>
  <path class="cls-1" d="M155.21,401.17c-.91.07-1.83.12-2.75.15-3.47.11-3.34.01-2.53-3.2,1.75-6.91,4.69-13.36,7.93-19.61,14.63-28.18,36.7-48.2,66.4-59.63,1.43-.55,2.85-2.03,4.7-.43.22,7.61-1.57,15.02-2.33,22.53-.59,5.86-1.6,11.71-2.69,17.52-.29,1.54-.1,2.91-1.41,4.33-13.95,15.05-30.12,26.85-49.36,34.22-5.8,2.22-11.79,3.65-17.96,4.13Z"/>
  <path class="cls-1" d="M651.52,254.34c10.46-13.63,21.7-26.55,34.97-37.61,3.78-3.15,7.29-6.86,12.41-8.08-.01.17,0,.34.05.53,1.52,6.1.08,12.16-.4,18.21-.88,11.23-2.99,22.27-5.63,33.23-3.16,13.08-7.4,25.81-12.59,38.19-7.62,18.14-16.75,35.47-27.73,51.87-8.82,13.18-18.01,26.03-28.61,37.84-4.09,4.55-7.79,9.46-12.32,13.62,9.15,10.29,19.46,19.2,31.22,26.34,5.38,3.27,10.97,6.15,16.79,8.57,1.88.78,3.37.83,5.06-1,6.28-6.8,11.9-14.1,17.45-21.48,10.01-13.31,18.87-27.35,27.15-41.79,12.08-21.05,21.86-43.17,29.45-66.15,5.27-15.94,9.4-32.26,12.42-48.86,3.8-20.83,5.56-41.76,5.2-62.88-.07-3.93-.17-7.86-.34-11.79-.18-3.98-2.92-6.64-5.72-8.88-11.52-9.24-24.55-15.09-39.24-17.27-2.5-.37-5.02-.82-7.51-1.36-6.52-1.4-11.46,2.23-16.4,5.4-11.11,7.13-21.52,15.2-31.46,23.89-.93.82-1.58,2.09-3.25,1.73.92-8.03,4.09-15.44,6.18-23.14.61-2.24.33-3.53-1.46-5.07-11.46-9.84-24.89-15.57-39.34-19.21-6.19-1.56-6.52-1.48-8.16,4.27-6.87,24.17-13.79,48.32-19.42,72.83-2.79,12.16-5.75,24.29-8.3,36.49-2.15,10.29-4.22,20.63-5.99,31.02-1.24,7.29-2.83,14.55-4.03,21.83-1.29,7.83-2.71,15.66-3.83,23.53-1,7.03-2.12,14.05-3.13,21.09-1.11,7.73-2.2,15.47-3.3,23.2-.93,6.55-1.76,13.12-2.63,19.68-.86,6.52-1.56,13.09-2.39,19.61-.88,6.91-1.86,13.84-2.6,20.75-.81,7.6-1.72,15.21-2.33,22.84-.5,6.32-1.05,12.64-1.87,18.92-.36,2.74.27,5.53-.86,8.27-.61,1.46,1.47,1.85,2.43,2.41,7.93,4.58,16.3,8.16,24.95,11.18,7.11,2.48,14.44,2.94,21.81,3.52,2.12.17,2.89-.75,2.89-2.86-.03-11.12,1.25-22.17,2.25-33.21.9-10.02,2.02-20.04,3.32-30.03,1.06-8.19,1.84-16.45,3.17-24.6.39-2.41-.8-5.53,2.33-7.33-.26-2.09-.76-4.07-.53-6.29.23-2.26.72-4.5.94-6.76.55-5.61,1.33-11.23,2.23-16.77,1.11-6.79,2.22-13.61,3.24-20.41,1.47-9.75,3.04-19.5,4.56-29.25,1.39-8.96,3.44-17.83,4.88-26.81,1.07-6.69,2.73-13.13,7.12-18.59,4.4-5.46,7.99-11.5,12.16-17.13,1.56-2.1,3.13-4.19,4.73-6.27Z"/>
  <path class="cls-1" d="M162.7,394.12c-.19.05-.39.1-.59.14-1.35.33-2.6.47-3.54-.3-1.05-.87-.03-2.06.35-2.96,2.9-6.95,6.21-13.68,10.3-20.03,12.09-18.79,28.12-33.13,48.28-42.76,1.05-.5,2.25-2.29,3.95-.4.1.82.44,1.64.32,2.46-.99,6.77-1.91,13.54-2.53,20.36-.5,5.49-2.08,10.22-6.69,14.04-5.34,4.43-10.51,9.05-16.16,13.12-10.29,7.41-21.31,13.26-33.7,16.34Z"/>
  <path class="cls-1" d="M620.58,377.06c.14-2.04.6-4.04.85-6.08,1.78-14.22,4.3-28.34,6.54-42.49,1.66-10.51,3.57-21,5.71-31.43.77-3.73.81-7.62,3.05-11.14,9.44-14.85,19.95-28.93,31.24-42.38,5.5-6.56,11.42-12.8,17.99-18.45,1.77-1.52,4.21-2.46,6.02-4.05,1.74,2.39.82,4.98.49,7.41-1.61,12.02-3.55,23.99-6.72,35.73-2.99,11.08-6.71,21.9-11.11,32.49-5.86,14.1-12.71,27.71-20.71,40.72-8.16,13.28-16.83,26.2-26.81,38.2-1.76,2.12-2.8,5.12-6.27,5.47-.31-1.37-.36-2.7-.27-4.01Z"/>
  <path class="cls-1" d="M284.54,348.21c-.67,5.69-1.38,11.37-2.15,17.04-1.86,13.71-3.76,27.42-5.97,41.09-2.45,15.2-5.54,30.28-8.6,45.36-.43,2.12-1.61,3.3-3.92,2.86-15.52-2.99-30.82-6.8-45.72-12.15-2.16-.78-4.33-1.58-6.41-2.54-1.58-.74-4.23-.3-4.55-2.47-.3-2.07-.41-4.26-.01-6.4-1.42-.11-2.33.58-3.34,1.39-9.01,7.27-18.28,14.14-28.9,18.98-6.76,3.08-13.44,4.26-20.76,1.49-9.67-3.67-18.89-8.18-27.81-13.32-11.79-6.79-22.26-15.3-31.41-25.37-3.31-3.64-6-7.81-8.97-11.75,1.5-3.81,2.05-7.88,3.22-11.78,8.07-26.96,21.48-51.02,40.04-72.12,14.12-16.05,30.24-29.78,48.87-40.43,2.67-1.53,4.56-3.65,5.12-7.09.83-5.05,2.74-9.85,4.49-14.68,6.51-17.98,15.35-34.45,29.72-47.46,3.95-3.58,8.19-6.85,13.79-7.69.4,6.36.52,12.72.51,19.1-.02,10.04-.35,20.04-1.68,30.02-.34,2.53-1.74,3.64-3.38,4.19-13.74,4.58-26.78,10.63-39.26,17.94-3.4,1.99-6.94.5-10.36.28-15.29-.96-28.98-6.87-42.15-14.22-1.54-.86-3.09-1.97-4.67-2.39-3.43-.9-2.95-3.5-2.38-5.45,4.93-16.95,11.19-33.32,20.21-48.64,14.12-23.99,32.63-43.72,56.21-58.42,8.83-5.51,5.81-5.89,14.24.56,6.23,4.77,11.88,10.04,16.39,16.47,1.1,1.57,2.53,1.74,4.3,1.82,16.66.77,32.83,3.69,47.87,11.36,4.33,2.21,8.17,5.04,11.78,8.23,1,.88,1.15,1.91,1.11,3.22-.29,8.48-1.12,16.92-1.88,25.35-1.18,13.1-2.44,26.19-3.51,39.3-.86,10.6-1.9,21.2-2.94,31.78-1.24,12.63-2.43,25.26-3.88,37.87-1.1,9.55-2.14,19.12-3.27,28.67Z"/>
  <path class="cls-1" d="M463.11,288.06c-.38.24-.75.47-1.11.72-.54-1.45-.72-2.72-.27-4.25,3.33-11.16,7.5-22.01,12.58-32.48,6.89-14.2,15-27.69,25.41-39.59,4.87-5.56,9.9-11.11,16.3-15.15,1.47-.93,3.39-1.2,4.6-2.54,3.21,3.2,3.23,7.26,2.89,11.19-.95,11.19-5.46,21.2-11.07,30.69-7.55,12.8-16.99,24.14-27.82,34.31-6.18,5.8-12.7,11.24-19.72,15.96-.6.4-1.21.77-1.8,1.14Z"/>
  <path class="cls-1" d="M807.8,382.78c-.33.09-.67.19-1,.28-1.18.32-2.83,1.17-3.85.01-1.12-1.27-.26-2.89.32-4.22,7.3-16.8,17.49-31.6,31.08-43.91,7.98-7.22,17.07-12.86,26.76-17.54,1.43-.69,2.86-1.33,4.57-.98-.49,2.07-.22,4.32-.48,6.36-1.01,7.73-2.31,15.43-2.97,23.2-.15,1.73-1.21,2.85-2.21,3.89-8.17,8.5-17.29,15.78-27.43,21.88-7.84,4.72-16,8.54-24.77,11.02Z"/>
  <path class="cls-1" d="M937.51,249.13c.36-3.67.73-7.35,1.12-11.02,1.2-11.18,2.25-22.39,3.04-33.59.69-9.77,1.75-19.5,2.35-29.27.13-2.2-.57-3.7-2.19-5.01-8.67-7.01-18.55-11.44-29.28-14.34-10.21-2.76-20.56-4.23-31.09-4.53-1.77-.05-2.4-1.07-3.22-2.2-5.59-7.69-12.75-13.71-20.32-19.34-1.44-1.07-2.62-1.01-3.96-.3-9.14,4.83-17.48,10.86-25.34,17.52-12.21,10.35-22.61,22.38-31.42,35.71-11.15,16.86-19.25,35.15-24.67,54.63-.26.92-.07,2.13-.45,2.81-1.61,2.86.23,3.88,2.22,5.06,2.99,1.77,6.19,3.09,9.28,4.65,7.92,3.99,15.93,7.69,24.65,9.65,4.37.98,8.73,1.76,13.22,1.78,1.31,0,2.6-.1,3.95.27,2.52.7,4.64.13,7.22-1.2,10.22-5.26,20.45-10.61,31.34-14.47,2.52-.89,4.96-2,7.5-2.85,2.02-.68,2.77-2.16,2.89-4.27.65-11.3,1.74-22.59,1.39-33.93-.15-4.79-.58-9.57-.96-14.34-4.91.14-8.08,3.51-11.5,6.18-11.71,9.16-19.45,21.42-25.69,34.63-4.55,9.63-8.58,19.51-10.39,30.12-.22.52-.39.93-.39.93-1.63,3.81-5.59,4.75-8.62,6.72-17.24,11.18-32.92,24.25-46.29,39.8-12.61,14.66-22.88,30.91-30.56,48.81-4.35,10.14-7.5,20.61-10.58,31.13-.77,2.61.67,4.85,2.15,6.75,11.21,14.47,25.07,25.78,41,34.75,6.99,3.94,14.18,7.36,21.47,10.64,7.98,3.58,15.59,3.25,23.64-.58,10.42-4.96,19.61-11.56,28.5-18.72.92-.74,2-1.34,2.95-2.06,1.15,1.09,1.29,2.6.93,3.84-1.06,3.68,1.04,4.34,3.94,5.48,14.65,5.75,29.74,9.99,45.07,13.35,2.37.52,5,.61,7.45.97,2.3.33,3.16-.29,3.59-2.28,1.98-9.03,3.93-18.07,5.72-27.15,3.52-17.87,6.01-35.92,8.44-53.95,2-14.83,3.78-29.71,5.22-44.62,1.2-12.39,2.66-24.76,3.89-37.15.95-9.66,1.82-19.33,2.77-28.99Z"/>
  <path class="cls-1" d="M535.71,453.85c-.69.27-1.38.39-2.14.37-11.55-.29-23.1.48-34.65.33-17.51-.22-35.01.51-52.5.84-13.93.26-27.86.57-41.79.98-13.45.4-26.9.86-40.36,1.11-13.93.26-27.86.99-41.79,1.43-12.74.4-25.48.91-38.22,1.43-16.67.68-33.34,1.37-50,2.16-13.69.65-27.4,1.25-41.08,2.13-14.29.92-28.59,1.68-42.87,2.66-11.89.82-23.81,1.5-35.7,2.36-15.5,1.12-31.01,2.21-46.45,4.11-4.62.57-9.28,1.05-13.92,1.48-4.75.43-8.52,2.11-11.48,6.08-5.51,7.38-8.15,15.72-9.22,24.69-.3,2.49.67,2.95,3.22,2.6,6.38-.89,12.84-1.09,19.27-1.54,12.5-.87,25.01-1.59,37.51-2.41,8.92-.58,17.86-.92,26.78-1.53,11.54-.8,23.11-1.21,34.65-2.04,9.15-.66,18.33-1.04,27.5-1.5,13.57-.69,27.15-1.43,40.72-2.1,10.24-.5,20.48-.98,30.72-1.48,15-.73,30.01-1.29,45.01-2.06,6.54-.33,13.09-.63,19.64-.78,19.17-.44,38.32-1.7,57.5-1.87,10.6-.09,21.19-.77,31.79-1.07,17.26-.49,34.53-.89,51.79-1.47,8.69-.29,17.39-.15,26.08-.5,15.22-.62,30.47-.87,45.71-.78,2.36.01,3.4-.61,3.65-3.24.83-8.95,1.84-17.89,3.1-26.8.22-1.55.66-3.61-2.1-3.57"/>
  <path class="cls-1" d="M355.69,100.95c-2.61,3.5-2.83,7.83-3.84,11.81-2.99,11.87-5.97,23.75-8.77,35.67-2.63,11.19-5.2,22.39-7.73,33.6-2.86,12.69-5.3,25.47-7.75,38.24-1.7,8.86-2.95,17.85-4.54,26.74-1.73,9.64-3.38,19.3-4.73,28.97-2.15,15.32-4.28,30.65-5.97,46.04-1.11,10.12-2.3,20.26-3.31,30.39-1.1,11.04-2,22.11-2.68,33.2-.81,13.33-1.38,26.67-2.09,40.01-.11,1.96-.17,3.71,2.09,5.07,11.19,6.77,23.02,12.04,35.79,14.79,3.86.83,8.05.68,12.11.54,1.69-.06,1.86-.96,1.78-2.19-.38-5.27.6-10.47.81-15.71.33-8.58,1.09-17.15,1.73-25.72.52-7.03,1.06-14.06,1.78-21.07.67-6.43,1.18-12.88,1.96-19.31.66-5.44,1.02-10.94,1.59-16.41.61-5.85,1.31-11.69,1.99-17.52.56-4.86.99-9.76,1.62-14.62.85-6.44,1.54-12.9,2.67-19.32.66-3.75,1.07-7.6,1.53-11.41.68-5.62,1.62-11.2,2.51-16.79.87-5.47,1.61-10.96,2.48-16.43,1.26-7.87,2.72-15.7,3.93-23.57,1.5-9.7,3.52-19.31,5.53-28.9,1.46-6.93,3.22-13.86,4.69-20.78,2.75-12.96,6.21-25.72,9.46-38.54,1.34-5.26,3.06-10.42,4.48-15.66.74-2.73-.01-3.28-1.95-4.38-13.02-7.37-26.93-12.33-41.46-15.67-1.78-.41-3.51-1.02-5.36-1.07"/>
</svg>