<?xml version="1.0" encoding="UTF-8"?>
<svg id="Layer_1" data-name="Layer 1" xmlns="http://www.w3.org/2000/svg" viewBox="0 0 535 768">
  <path d="M174.9,598.69c-.1.34-.69.83-1.31.95l-21.96,4.12c-9.44,1.77-24.41,5.77-30.36,13.13-2.13-5.16,6.44-9.83,12.42-12.01,12.63-4.59,25.82-7.12,39.33-7.32l1.43.31c.23.05.56.46.45.82Z"/>
  <path d="M183.87,316.92l-2.11-58.79c-.55-34.09,0-67.5,1.15-101.52.8-12.18.24-23.54,2.56-36.14,2.06,11.37,2.17,22.27,2.61,33.84,1.72,45.88,1.73,91.28.44,137.13-.82,14.1-.54,27.51-2.78,42.33-1.6-5.21-1.65-10.95-1.87-16.85Z"/>
  <path d="M196.33,365.17c9.91,11.8,10.81,29.75,2.16,42.51-5.82,8.59-16.14,10.47-17.43,8.11-.29-.53.1-1.57.8-1.95,13.94-7.67,18.45-24.95,11.84-39.8-5.03-11.3-12.89-13.54-12.58-15.15.43-2.19,9.22-.86,15.21,6.28Z"/>
  <path d="M254.96,100.2c-1.73,4.01-5.58,4.97-9.65,5.87-20.86,4.65-42.33,4.18-62.8-.56-3.2-.74-5.83-2.3-7.76-4.5,1.11-.78,2.3-.64,3.63-.44,25.47,3.89,50.64,3.71,76.58-.37Z"/>
  <path d="M249.59,365.97c-12.56,13.53-11.45,33.99,2.51,46.33.74.65.97,1.32.91,1.76-.4,2.88-10.49-.9-15.61-10.05-8.5-15.16-3.35-36.07,11.91-42.91,1.28-.57,2.6-1.19,3.92-.05-.9,1.94-2.22,3.39-3.64,4.92Z"/>
  <path d="M173.32,72.12c.22-5.06,10.57-7.43,17.26-5.74l-10.74,4.69c2.61,1.26,5.15,1.9,7.94,2.36,16.23,2.66,32.54,2.85,48.89.99,4.7-.54,9.07-1.26,13.63-3.1l-10.8-4.95c6.46-1.64,17.1.71,17.18,6.24.05,3.66-7.75,5.9-13.29,6.82-19.35,3.21-38.99,3.07-58.3-.41-5.06-.9-11.92-3.44-11.77-6.9Z"/>
  <path d="M288.44,602.11c6.52,1.72,12.39,4.01,17.77,7.74,1.73,1.85,4.17,3.14,3.19,6.81-2.15-2.02-4.17-3.98-6.93-5.37-15.18-7.65-38.46-10.19-56.08-11.84-2.71-.25-5.26-.39-7.8-1.69,1.52-1.6,3.65-2.04,5.96-1.91,14.9.81,29.51,2.47,43.89,6.26Z"/>
  <path d="M403.45,319.6c-1.66,2.79-1.51,6.48.53,8.85l-.53-8.85ZM416.25,324.55c-1.18-1.26-3.67.39-4.3,1.33-.81,1.19-1.72,2.56-.74,4.36.97-.48,1.41-1.23,2.43-2.16,2.1,3.93,3.18,7.73,4.56,12.03,5.43-.9,1.55-11.85-1.95-15.56ZM421.06,316.17c-2.43-3.12-7.01-3.3-10.33-1.63-.81.41-1.04,1.45-.78,1.92,1.3,2.4,8.17-1.62,12.03,8.61,1.49-3.26.91-6.55-.92-8.9ZM441.14,343.88c-1.98-.17-2.35-1.25-3.51-2.47-1.84-1.92-5.41-1.09-7.36.19-.9.59-.83,1.55-.34,1.96.98.82,4.07-.42,4.53.93.78,2.34,2.05,3.65,4.69,3.51,3.12-.17,2.41,4.38,4.77,3.67.6-.19.92-.71,1.18-1.52.95-2.94-.84-6-3.96-6.27ZM445.41,336.14c-.72-2.74-3.65-2.08-5.31-2.96-2.88-1.53-4.83-3.6-8.35-3.31-1.03.09-3.33,1.87-2.1,2.69,2.49,1.63,5.6,2.09,7.56,4.84,4.9-.13,7.26,1.91,7.99.92.54-.73.36-1.61.21-2.18ZM445.41,336.14c-.72-2.74-3.65-2.08-5.31-2.96-2.88-1.53-4.83-3.6-8.35-3.31-1.03.09-3.33,1.87-2.1,2.69,2.49,1.63,5.6,2.09,7.56,4.84,4.9-.13,7.26,1.91,7.99.92.54-.73.36-1.61.21-2.18ZM441.14,343.88c-1.98-.17-2.35-1.25-3.51-2.47-1.84-1.92-5.41-1.09-7.36.19-.9.59-.83,1.55-.34,1.96.98.82,4.07-.42,4.53.93.78,2.34,2.05,3.65,4.69,3.51,3.12-.17,2.41,4.38,4.77,3.67.6-.19.92-.71,1.18-1.52.95-2.94-.84-6-3.96-6.27ZM421.06,316.17c-2.43-3.12-7.01-3.3-10.33-1.63-.81.41-1.04,1.45-.78,1.92,1.3,2.4,8.17-1.62,12.03,8.61,1.49-3.26.91-6.55-.92-8.9ZM416.25,324.55c-1.18-1.26-3.67.39-4.3,1.33-.81,1.19-1.72,2.56-.74,4.36.97-.48,1.41-1.23,2.43-2.16,2.1,3.93,3.18,7.73,4.56,12.03,5.43-.9,1.55-11.85-1.95-15.56ZM403.45,319.6c-1.66,2.79-1.51,6.48.53,8.85l-.53-8.85ZM403.45,319.6c-1.66,2.79-1.51,6.48.53,8.85l-.53-8.85ZM416.25,324.55c-1.18-1.26-3.67.39-4.3,1.33-.81,1.19-1.72,2.56-.74,4.36.97-.48,1.41-1.23,2.43-2.16,2.1,3.93,3.18,7.73,4.56,12.03,5.43-.9,1.55-11.85-1.95-15.56ZM421.06,316.17c-2.43-3.12-7.01-3.3-10.33-1.63-.81.41-1.04,1.45-.78,1.92,1.3,2.4,8.17-1.62,12.03,8.61,1.49-3.26.91-6.55-.92-8.9ZM441.14,343.88c-1.98-.17-2.35-1.25-3.51-2.47-1.84-1.92-5.41-1.09-7.36.19-.9.59-.83,1.55-.34,1.96.98.82,4.07-.42,4.53.93.78,2.34,2.05,3.65,4.69,3.51,3.12-.17,2.41,4.38,4.77,3.67.6-.19.92-.71,1.18-1.52.95-2.94-.84-6-3.96-6.27ZM445.41,336.14c-.72-2.74-3.65-2.08-5.31-2.96-2.88-1.53-4.83-3.6-8.35-3.31-1.03.09-3.33,1.87-2.1,2.69,2.49,1.63,5.6,2.09,7.56,4.84,4.9-.13,7.26,1.91,7.99.92.54-.73.36-1.61.21-2.18ZM445.41,336.14c-.72-2.74-3.65-2.08-5.31-2.96-2.88-1.53-4.83-3.6-8.35-3.31-1.03.09-3.33,1.87-2.1,2.69,2.49,1.63,5.6,2.09,7.56,4.84,4.9-.13,7.26,1.91,7.99.92.54-.73.36-1.61.21-2.18ZM441.14,343.88c-1.98-.17-2.35-1.25-3.51-2.47-1.84-1.92-5.41-1.09-7.36.19-.9.59-.83,1.55-.34,1.96.98.82,4.07-.42,4.53.93.78,2.34,2.05,3.65,4.69,3.51,3.12-.17,2.41,4.38,4.77,3.67.6-.19.92-.71,1.18-1.52.95-2.94-.84-6-3.96-6.27ZM421.06,316.17c-2.43-3.12-7.01-3.3-10.33-1.63-.81.41-1.04,1.45-.78,1.92,1.3,2.4,8.17-1.62,12.03,8.61,1.49-3.26.91-6.55-.92-8.9ZM416.25,324.55c-1.18-1.26-3.67.39-4.3,1.33-.81,1.19-1.72,2.56-.74,4.36.97-.48,1.41-1.23,2.43-2.16,2.1,3.93,3.18,7.73,4.56,12.03,5.43-.9,1.55-11.85-1.95-15.56ZM403.45,319.6c-1.66,2.79-1.51,6.48.53,8.85l-.53-8.85ZM403.45,319.6c-1.66,2.79-1.51,6.48.53,8.85l-.53-8.85ZM416.25,324.55c-1.18-1.26-3.67.39-4.3,1.33-.81,1.19-1.72,2.56-.74,4.36.97-.48,1.41-1.23,2.43-2.16,2.1,3.93,3.18,7.73,4.56,12.03,5.43-.9,1.55-11.85-1.95-15.56ZM421.06,316.17c-2.43-3.12-7.01-3.3-10.33-1.63-.81.41-1.04,1.45-.78,1.92,1.3,2.4,8.17-1.62,12.03,8.61,1.49-3.26.91-6.55-.92-8.9ZM441.14,343.88c-1.98-.17-2.35-1.25-3.51-2.47-1.84-1.92-5.41-1.09-7.36.19-.9.59-.83,1.55-.34,1.96.98.82,4.07-.42,4.53.93.78,2.34,2.05,3.65,4.69,3.51,3.12-.17,2.41,4.38,4.77,3.67.6-.19.92-.71,1.18-1.52.95-2.94-.84-6-3.96-6.27ZM445.41,336.14c-.72-2.74-3.65-2.08-5.31-2.96-2.88-1.53-4.83-3.6-8.35-3.31-1.03.09-3.33,1.87-2.1,2.69,2.49,1.63,5.6,2.09,7.56,4.84,4.9-.13,7.26,1.91,7.99.92.54-.73.36-1.61.21-2.18ZM437.21,337.4c4.9-.13,7.26,1.91,7.99.92.54-.73.36-1.61.21-2.18-.72-2.74-3.65-2.08-5.31-2.96-2.88-1.53-4.83-3.6-8.35-3.31-1.03.09-3.33,1.87-2.1,2.69,2.49,1.63,5.6,2.09,7.56,4.84ZM441.14,343.88c-1.98-.17-2.35-1.25-3.51-2.47-1.84-1.92-5.41-1.09-7.36.19-.9.59-.83,1.55-.34,1.96.98.82,4.07-.42,4.53.93.78,2.34,2.05,3.65,4.69,3.51,3.12-.17,2.41,4.38,4.77,3.67.6-.19.92-.71,1.18-1.52.95-2.94-.84-6-3.96-6.27ZM410.73,314.54c-.81.41-1.04,1.45-.78,1.92,1.3,2.4,8.17-1.62,12.03,8.61,1.49-3.26.91-6.55-.92-8.9-2.43-3.12-7.01-3.3-10.33-1.63ZM411.95,325.88c-.81,1.19-1.72,2.56-.74,4.36.97-.48,1.41-1.23,2.43-2.16,2.1,3.93,3.18,7.73,4.56,12.03,5.43-.9,1.55-11.85-1.95-15.56-1.18-1.26-3.67.39-4.3,1.33ZM403.98,328.45l-.53-8.85c-1.66,2.79-1.51,6.48.53,8.85ZM473.42,352.14c-1.58-14.61-17.37-31.42-29.11-38.85l-17.45-11.05c-1.36-1.31-1.95-3.62-3.83-4.19-2.12-.65-4.13-.01-6.09.74-11.41-4.18-26.58-7.7-37.14-2.31-5.77,2.95-9.81,8.13-10.16,14.83l-3.2,60.06c-.27,5.12-1.38,9.57-4.76,13.55-5.05-1.8-10.9-2.53-15.66.32-4.44,2.66-7.09,7.13-9.07,12.13-10.9-1.63-20.47,12.05-20.21,23.07-5.44,10.56-12.96,19.98-19.69,29.64-3.32,2.6-7.41,4.37-10.54,7.48l-6.91,6.85-9.26-30.54c-3.49-11.53-4.4-23.14-5.67-35.15-1.1-10.42-1.23-20.39.16-30.8,1.46-10.82,1.72-21,1.72-32.06l.06-221.57c0-3.51.42-7.58,2.05-10.2,8.18-7,12.37-16.72,9.94-27.59-2.1-9.34-9.43-17.3-19.5-20.01-20.47-5.52-46.59-5.87-67.87-3.7-6.93.71-13.34,2-20,3.69-9.67,2.45-16.94,9.81-19.4,18.48-2.95,10.39.33,20.57,7.91,27.43,3.36,3.03,3.44,7.9,3.44,13.66v221.54c0,8.72.29,16.54,1.41,24.99,1.72,13.07,1.85,25.84.25,39-1.2,9.8-2.09,19.12-4.37,28.71-3.23,13.63-7.47,26.36-12.03,39.63l-20.92,60.97-23.75,72.53-6.82,17.09c-.5,1.25-1.55,2.92-2.75,3.59l-14.17,7.92c-9.06,5.05-18.59,12.67-18.59,23.36v13.36c0,11.68,10.67,20.13,20.83,25.21,21.15,10.58,51.11,16.26,75.01,19.1,54.35,6.46,134.6,5.06,184.97-16.21,12.78-5.4,26.65-14.09,26.66-28.68v-13.95c.02-7.39-6.91-15.5-12.73-18.77l-16.72-9.37c-2.54-1.42-4.85-2.83-6.17-5.52-3.12-6.4-5.48-12.79-7.63-19.68l-16.38-52.44c2.68-7,5.87-13.44,10.33-19.5l18.46-25.03c2.92-3.95,4.2-8.54,5.83-12.67l26.42-27.44c4.61.1,9.17-.87,12.36-4.16,6.15-6.33,10.22-9.86,8.75-19.11,2.88-1.93,6.29-3.76,7.84-7.22,4.35-4.81,4.7-11.26,1.8-17-.11-.18-.44-.75-.37-1.04.09-.31.5-.25.6-.02.15.33.51.45.8.67l29.78,22.41c3.85,2.9,8.15,3.72,12.62,1.79,5.58-2.4,9.25-7.94,9.42-14,.13-4.56-2.28-7.39-5.68-9.96l-27.32-20.69,42.48-23.42c7.32-4.03,10.94-11.44,10.02-19.9ZM431,313.21l8.7,5.8c-2.75.48-4.14-1.93-6.33-2.89-1.4-.61-2.83-.81-2.37-2.91ZM416.08,304.96l5.33-1.4c-1.46,10.58,3.52,9.33,4.19,10.9.66,1.53.19,3.29,1,4.51.84,1.26,2.61.96,3.92,1.68,3.06,1.68,5.43,4.02,9.14,4.42l3.56-1.1c1.79-.56,3.56,1.64,5.05,2.88-1.08,1.53-1.39,3.27-.3,4.85,2.38,3.43-1.41,8.44,6.69,11.57-2.84,2.67-4.15,4.59-4.61,7.9-.5.98-2.19,2.4-2.31,3.86-5.4-.34-9.77-1.96-14.64-3.85-15.04-5.85-28.49-14.97-38.44-27.63-1.78-2.25-2.9-6.25-.33-8.07,3.44.04,8.41,1.09,11.52-1.62,1.62-1.41,2.66-3.14,4.9-3.92,2.39-.83,4.09-2.82,5.33-4.98ZM275.35,534.8c-30.27,4.26-60.63,4.47-91.04,1.38l-24.26-4.09,3.72-10.92c9.62-2.04,18.82-3.12,28.63-3.78,19.59-1.32,38.77-1.26,58.65.21-3.21,4.92-9.25,7.64-5.34,10.58,8.33,6.24,30.35,5.06,41.96,2.64,3.26-.68,5.65-2.12,7.92-4.83.91-.17,2.43.87,3.08,1.75-5.19,4.24-15.7,5.99-23.32,7.06ZM276.52,539.62l-50.42,56.06-19.62,21.66c-5.52,6.08-18.12-1.3-21.38-11.03-.66-1.97-.83-3.78.13-5.63l51.78-57.81c13.43-.37,26.18-1.5,39.51-3.25ZM297.97,514.55l-10.08,10.68c-11.79,2.57-23.72,2.91-35.81.18l49.19-55.1c5.2,8.08,12.19,13.76,20.52,17.97l-23.82,26.27ZM340.48,688.65c-26.77,11.62-62.41,16.85-91.81,18.68-31.86,1.99-63.33,1.31-94.96-2.93-21.71-2.91-45.09-7.5-64.88-16.43-9.63-4.78-20.38-10.95-19.11-22.23,7.98,8.25,19.66,12.53,30.38,16.26,13.08,3.92,25.91,7.05,39.61,9.15,45.91,7.04,92.29,7.74,138.42,2.02,17.22-2.14,33.63-5.43,50.03-10.39,11.58-3.7,23.65-8.34,32.38-16.67,1.41,10.94-10.54,18.41-20.06,22.54ZM323.55,618.73c2.35,6.75,5.76,11.35,11.58,14.54l14.61,8.02c3.09,1.7,5.54,4.05,7.9,6.63,3.49,3.83,3.6,9.31-.1,13.45-7.31,8.18-23.57,14.14-34.64,17.26-57.96,16.38-141.23,16.68-199.99,3.71-15.66-3.46-39.16-9.62-49.62-20.57-3.8-3.98-4.11-9.19-.75-13.51,2.56-3.28,5.93-5.64,9.6-7.77l16.92-9.77c4.21-2.43,5.44-7.34,7.82-11.88,3.68,8.87,13.4,14.16,22.17,17.3,13.34,4.76,26.78,7.74,41.01,9.53,28.94,3.65,57.75,3.93,86.73.61,17.74-2.04,44.49-7.26,58.24-17.29,3.71-2.7,6.46-5.56,8.52-10.26ZM328.69,502.09c-8.56,10.8-16.58,21.51-23.16,33.67-4.7,8.67-7.43,17.95-7.5,27.83-.02,3.36-.12,6.67,1.68,9.86l4.34-13.99,11.91,38.38c3.25,10.47,2.85,19.64-6.78,25.32-15.85,9.36-40.42,13.76-59.25,15.65-34.92,3.5-78.18,1.89-111.76-8.29-8.94-2.7-22.04-7.77-24.57-16.04-1.83-5.99-1.02-11.78.96-17.71l27.33-81.69,15.68-45.89,9.32-30.23c4.21-17.1,6.57-34.2,7.4-51.83.69-14.71-2.91-29.18-2.91-43.74V116.62c0-7.72-.1-15.63-5.57-20.22-4.78-4.02-7.38-9.65-6.66-16.08.62-5.5,4.11-11.13,9.75-13.92,4.38-2.17,9.06-3.18,14.11-3.94,22.41-3.38,44.95-3.35,67.27.53,10.95,1.91,19.73,7.13,20.64,18.08.51,6.1-2.11,11.54-6.84,15.48-4.58,3.83-5.83,11.15-5.83,17.75l.1,212.28c.01,14.71.16,28.58-1.86,43.02-1.37,9.79-1.2,19.24-.24,29.1,1.33,13.56,3.23,26.52,6.66,39.68l9.78,31.36c-6.64,4.19-14.13,5.88-21.96,6.47,3.6,3.35,8.31,3.95,13.01,3.67,8.3-.49,15.72-4.4,22.04-9.7l10.52-10.27,1.77,5.12-6.17,7.29-36.78,41.05c-30.31-2.68-60.18-2.08-89.72,2.32,6.08-19.09,11.77-37.43,15.69-56.59,1.51-7.34,3.62-14.14,2.89-22.32-5.11,10.24-7.81,20.6-11.33,31.18l-16.62,50.04c-5.8,1.55-13.32,4.36-13.47,8.84-.14,3.88,3.99,6.17,8.28,7.89l-12,41.05c-1.12,3.84-2.53,7.42-1.84,11.84,3.39-4.27,5.19-8.81,7.02-13.59l14.31-37.4c23.19,5.59,47.48,6.43,70.83,6.43l-48.73,54.61c-5.19,5.81,1.89,24.12,18.69,27.37,4.61.9,8.6-.39,11.5-3.62l74.96-83.39c7.39-1.52,18.39-4.76,17.95-10.63-.17-2.21-1.56-3.98-4.37-5.4l28.29-31.48c2.62,1.02,4.94,1.44,7.66,1.66-1.44,3.92-3.89,6.73-6.42,9.91ZM154.27,523.41l-1.85,6.38c-1.87-.43-3.55-1.29-5.26-2.83,2.19-1.7,4.18-2.57,7.11-3.55ZM336.58,486.72c-7.31,0-13.6-3.29-19.36-7.44-7.35-5.3-13.22-12.36-15.5-21.19l20.76-30.3c9.33,14.88,23.47,25.85,39.97,32.45l-25.87,26.48ZM383.39,446.62c-.52.7-1.84,1.22-3.14,1.2-13.43.25-25.35-8.71-36.64-16.21,7.47,10.17,23.08,19.43,35.95,19.86-2.48,4.33-6.78,5.41-11.51,4.19-16.47-4.25-34.83-18.14-42.04-33.32-2.11-4.45-1.66-8.96,2.08-12.27,1.55,5.52,4.02,10.1,8.26,13.78-2.09-5.92-7.3-15.03-4.64-17.76,1.56-1.59,5.96-1.43,7.38-.23,3.5,2.96-3.18,5.1-.61,11.59,4.6,11.62,19.83,22.62,32.07,25.17,7.65,1.6,7.59-5.74,11.79-3.19,1.3.78,2.3,5.48,1.05,7.19ZM343.4,413.57c8.06,10.55,18.19,18.61,30.75,23.55-1.47.89-3.33.73-5.27,0-8.66-3.26-16.27-8.38-21.85-15.44-1.9-2.4-3.79-4.8-3.63-8.11ZM394.64,425.74c-1.97,2.13-6.27,1.24-8.86.67-8.25-1.81-14.64-6.28-22.52-9.93,5.84,6.36,13.37,10.2,21.45,12.97l7.47,1.25c-5.6,7.69-21.39.05-29.4-5.67-8.14-5.81-17.32-14.17-18.9-24.02-.34-2.15,1.69-4.26,2.7-5.89,1.67,4.78,3.48,9.19,7.23,12.19-2.11-6.29-6.77-15.29-2.39-16.15,2.61-.52,5.2-.29,7.65.9-8.77,5.74.71,16.26,8.53,22.34,4.98,3.87,10.48,6.8,16.78,7.73,3.98.59,6.66-1.17,8.45-5.23,1.91,1.93,4.02,6.46,1.81,8.84ZM447.33,426.36c-.77,4.12-3.73,7.63-7.92,8.05-.37-4.73,2.72-8.66,6.22-11.11.81-.19,1.97,1.58,1.7,3.06ZM444.57,422.27c-5.31,1.62-8.26,5.39-8.83,10.52l-34.64-26.3c-1.22-1.03-2.74-2.01-2.77-3.73-.07-3.71,2.57-6.43,5.69-7.48,3.28-1.1,6.45.06,9.01,2.77l31.54,24.22ZM412.29,391.28c-4.69-2.65-10.07-1.92-14.04,1.18-4.07,3.17-6.13,8.42-4.55,13.64-2.89,3.46-5.32,6.8-7.56,10.87-9.66-.91-21.27-9.56-25.46-18.56,6.08-5.76,10.77-12.76,13.03-20.99l2.78-52.77c12.7,21.06,36.76,36.78,59.92,44.07-7.18,4.37-14.03,7.17-21.57,10.08-.75-2.11-2.57-2.56-4.75-2.92-6.07-.99-11.54-.08-17.08,3.28,1.31-3.37,2.68-6.46,1.42-9.69l-4.84-12.42c-.35-.9-1.33-1.79-1.98-1.9-1.1-.19-1.77.95-2.8,2.11-2.27-7.48-1.18-14.73-2.37-22.93-2.45,4.45-3.26,9.47-3.57,14.4l.86,7.43c.31,2.69-1.23,2.81-2.03,4.47-1.95,4.01-1.83,9.61-1.07,14.32.91,5.67,4.99,9.07,9.13,11.94,10.06,6.96,14.44,1.34,24.35.37,2.77-.51,5.14-1.46,6.68-3.92,7.44-2.47,14.15-6.01,21.11-9.55,1.8-.92,3.19-2.29,4.1-3.86,2.25.08,4.62.33,7.22,1.18l-36.93,20.17ZM410.75,380.96c-1.99,2.32-6.77,1-12.88,3.27-2.01.75-4.15,1.11-6.16.09l8.93-3.12c3.28-1.14,6.78-.74,10.11-.24ZM381.99,372.36c1.52-2.92,4.42-4.72,3.93-8.98l4.27,9.31-3.55,8.52c-2.36-1.72-6.28-5.74-4.65-8.85ZM381.18,370.17c-.38-2.9-.6-5.88.73-8.76.63,3.01-.21,5.3-.73,8.76ZM456.66,365.33c-31.83,4.29-84.25-37.27-78.65-56.73,3.08-10.7,20.89-8.88,32.33-4.97-2.94,1.61-4.98,3.39-7.37,5.66-2.16,2.06-7.37-.37-12.24,1.13,3.16-4.17,8.81-2.11,10.71-4.64-2.94-1.37-6.03-1.84-9.1-1.38-5.57.84-8.83,6.06-7.55,11.56,1.59,6.83,5.55,12.31,10.52,17.38,10.73,10.94,23.86,19.11,38.38,24.18,8.26,2.89,21.43,4.9,26.34-1.1,2.15-2.63,2.2-6.56.21-9.61-.93,3.68-2.13,6.53-5.65,7.78l1.62-4.96,3.62-5c1.77-6.02-4.93-5.75-5.32-8.47l-.88-6.12,7.38,8.95c3.15,3.82,4.9,8.8,5.44,13.72.74,6.62-3.29,11.74-9.79,12.62ZM429.65,332.56c2.49,1.63,5.6,2.09,7.56,4.84,4.9-.13,7.26,1.91,7.99.92.54-.73.36-1.61.21-2.18-.72-2.74-3.65-2.08-5.31-2.96-2.88-1.53-4.83-3.6-8.35-3.31-1.03.09-3.33,1.87-2.1,2.69ZM441.14,343.88c-1.98-.17-2.35-1.25-3.51-2.47-1.84-1.92-5.41-1.09-7.36.19-.9.59-.83,1.55-.34,1.96.98.82,4.07-.42,4.53.93.78,2.34,2.05,3.65,4.69,3.51,3.12-.17,2.41,4.38,4.77,3.67.6-.19.92-.71,1.18-1.52.95-2.94-.84-6-3.96-6.27ZM421.98,325.07c1.49-3.26.91-6.55-.92-8.9-2.43-3.12-7.01-3.3-10.33-1.63-.81.41-1.04,1.45-.78,1.92,1.3,2.4,8.17-1.62,12.03,8.61ZM411.95,325.88c-.81,1.19-1.72,2.56-.74,4.36.97-.48,1.41-1.23,2.43-2.16,2.1,3.93,3.18,7.73,4.56,12.03,5.43-.9,1.55-11.85-1.95-15.56-1.18-1.26-3.67.39-4.3,1.33ZM403.98,328.45l-.53-8.85c-1.66,2.79-1.51,6.48.53,8.85ZM403.45,319.6c-1.66,2.79-1.51,6.48.53,8.85l-.53-8.85ZM416.25,324.55c-1.18-1.26-3.67.39-4.3,1.33-.81,1.19-1.72,2.56-.74,4.36.97-.48,1.41-1.23,2.43-2.16,2.1,3.93,3.18,7.73,4.56,12.03,5.43-.9,1.55-11.85-1.95-15.56ZM421.06,316.17c-2.43-3.12-7.01-3.3-10.33-1.63-.81.41-1.04,1.45-.78,1.92,1.3,2.4,8.17-1.62,12.03,8.61,1.49-3.26.91-6.55-.92-8.9ZM441.14,343.88c-1.98-.17-2.35-1.25-3.51-2.47-1.84-1.92-5.41-1.09-7.36.19-.9.59-.83,1.55-.34,1.96.98.82,4.07-.42,4.53.93.78,2.34,2.05,3.65,4.69,3.51,3.12-.17,2.41,4.38,4.77,3.67.6-.19.92-.71,1.18-1.52.95-2.94-.84-6-3.96-6.27ZM445.41,336.14c-.72-2.74-3.65-2.08-5.31-2.96-2.88-1.53-4.83-3.6-8.35-3.31-1.03.09-3.33,1.87-2.1,2.69,2.49,1.63,5.6,2.09,7.56,4.84,4.9-.13,7.26,1.91,7.99.92.54-.73.36-1.61.21-2.18ZM445.41,336.14c-.72-2.74-3.65-2.08-5.31-2.96-2.88-1.53-4.83-3.6-8.35-3.31-1.03.09-3.33,1.87-2.1,2.69,2.49,1.63,5.6,2.09,7.56,4.84,4.9-.13,7.26,1.91,7.99.92.54-.73.36-1.61.21-2.18ZM441.14,343.88c-1.98-.17-2.35-1.25-3.51-2.47-1.84-1.92-5.41-1.09-7.36.19-.9.59-.83,1.55-.34,1.96.98.82,4.07-.42,4.53.93.78,2.34,2.05,3.65,4.69,3.51,3.12-.17,2.41,4.38,4.77,3.67.6-.19.92-.71,1.18-1.52.95-2.94-.84-6-3.96-6.27ZM421.06,316.17c-2.43-3.12-7.01-3.3-10.33-1.63-.81.41-1.04,1.45-.78,1.92,1.3,2.4,8.17-1.62,12.03,8.61,1.49-3.26.91-6.55-.92-8.9ZM416.25,324.55c-1.18-1.26-3.67.39-4.3,1.33-.81,1.19-1.72,2.56-.74,4.36.97-.48,1.41-1.23,2.43-2.16,2.1,3.93,3.18,7.73,4.56,12.03,5.43-.9,1.55-11.85-1.95-15.56ZM403.45,319.6c-1.66,2.79-1.51,6.48.53,8.85l-.53-8.85ZM403.45,319.6c-1.66,2.79-1.51,6.48.53,8.85l-.53-8.85ZM416.25,324.55c-1.18-1.26-3.67.39-4.3,1.33-.81,1.19-1.72,2.56-.74,4.36.97-.48,1.41-1.23,2.43-2.16,2.1,3.93,3.18,7.73,4.56,12.03,5.43-.9,1.55-11.85-1.95-15.56ZM421.06,316.17c-2.43-3.12-7.01-3.3-10.33-1.63-.81.41-1.04,1.45-.78,1.92,1.3,2.4,8.17-1.62,12.03,8.61,1.49-3.26.91-6.55-.92-8.9ZM441.14,343.88c-1.98-.17-2.35-1.25-3.51-2.47-1.84-1.92-5.41-1.09-7.36.19-.9.59-.83,1.55-.34,1.96.98.82,4.07-.42,4.53.93.78,2.34,2.05,3.65,4.69,3.51,3.12-.17,2.41,4.38,4.77,3.67.6-.19.92-.71,1.18-1.52.95-2.94-.84-6-3.96-6.27ZM445.41,336.14c-.72-2.74-3.65-2.08-5.31-2.96-2.88-1.53-4.83-3.6-8.35-3.31-1.03.09-3.33,1.87-2.1,2.69,2.49,1.63,5.6,2.09,7.56,4.84,4.9-.13,7.26,1.91,7.99.92.54-.73.36-1.61.21-2.18ZM445.41,336.14c-.72-2.74-3.65-2.08-5.31-2.96-2.88-1.53-4.83-3.6-8.35-3.31-1.03.09-3.33,1.87-2.1,2.69,2.49,1.63,5.6,2.09,7.56,4.84,4.9-.13,7.26,1.91,7.99.92.54-.73.36-1.61.21-2.18ZM441.14,343.88c-1.98-.17-2.35-1.25-3.51-2.47-1.84-1.92-5.41-1.09-7.36.19-.9.59-.83,1.55-.34,1.96.98.82,4.07-.42,4.53.93.78,2.34,2.05,3.65,4.69,3.51,3.12-.17,2.41,4.38,4.77,3.67.6-.19.92-.71,1.18-1.52.95-2.94-.84-6-3.96-6.27ZM421.06,316.17c-2.43-3.12-7.01-3.3-10.33-1.63-.81.41-1.04,1.45-.78,1.92,1.3,2.4,8.17-1.62,12.03,8.61,1.49-3.26.91-6.55-.92-8.9ZM416.25,324.55c-1.18-1.26-3.67.39-4.3,1.33-.81,1.19-1.72,2.56-.74,4.36.97-.48,1.41-1.23,2.43-2.16,2.1,3.93,3.18,7.73,4.56,12.03,5.43-.9,1.55-11.85-1.95-15.56ZM403.45,319.6c-1.66,2.79-1.51,6.48.53,8.85l-.53-8.85Z"/>
  <g>
    <g>
      <path d="M174.9,598.69c-.1.34-.69.83-1.31.95l-21.96,4.12c-9.44,1.77-24.41,5.77-30.36,13.13-2.13-5.16,6.44-9.83,12.42-12.01,12.63-4.59,25.82-7.12,39.33-7.32l1.43.31c.23.05.56.46.45.82Z"/>
      <path d="M183.87,316.92l-2.11-58.79c-.55-34.09,0-67.5,1.15-101.52.8-12.18.24-23.54,2.56-36.14,2.06,11.37,2.17,22.27,2.61,33.84,1.72,45.88,1.73,91.28.44,137.13-.82,14.1-.54,27.51-2.78,42.33-1.6-5.21-1.65-10.95-1.87-16.85Z"/>
      <path d="M196.33,365.17c9.91,11.8,10.81,29.75,2.16,42.51-5.82,8.59-16.14,10.47-17.43,8.11-.29-.53.1-1.57.8-1.95,13.94-7.67,18.45-24.95,11.84-39.8-5.03-11.3-12.89-13.54-12.58-15.15.43-2.19,9.22-.86,15.21,6.28Z"/>
      <path d="M245.31,106.07c-20.86,4.65-42.33,4.18-62.8-.56-3.2-.74-5.83-2.3-7.76-4.5,1.11-.78,2.3-.64,3.63-.44,25.47,3.89,50.64,3.71,76.58-.37-1.73,4.01-5.58,4.97-9.65,5.87Z"/>
      <path d="M237.4,404.01c-8.5-15.16-3.35-36.07,11.91-42.91,1.28-.57,2.6-1.19,3.92-.05-.9,1.94-2.22,3.39-3.64,4.92-12.56,13.53-11.45,33.99,2.51,46.33.74.65.97,1.32.91,1.76-.4,2.88-10.49-.9-15.61-10.05Z"/>
      <path d="M173.32,72.12c.22-5.06,10.57-7.43,17.26-5.74l-10.74,4.69c2.61,1.26,5.15,1.9,7.94,2.36,16.23,2.66,32.54,2.85,48.89.99,4.7-.54,9.07-1.26,13.63-3.1l-10.8-4.95c6.46-1.64,17.1.71,17.18,6.24.05,3.66-7.75,5.9-13.29,6.82-19.35,3.21-38.99,3.07-58.3-.41-5.06-.9-11.92-3.44-11.77-6.9Z"/>
      <path d="M309.4,616.66c-2.15-2.02-4.17-3.98-6.93-5.37-15.18-7.65-38.46-10.19-56.08-11.84-2.71-.25-5.26-.39-7.8-1.69,1.52-1.6,3.65-2.04,5.96-1.91,14.9.81,29.51,2.47,43.89,6.26,6.52,1.72,12.39,4.01,17.77,7.74,1.73,1.85,4.17,3.14,3.19,6.81Z"/>
      <g>
        <path d="M188.52,291.44c-.82,14.1-.54,27.51-2.78,42.33-1.6-5.21-1.65-10.95-1.87-16.85l-2.11-58.79c-.55-34.09,0-67.5,1.15-101.52.8-12.18.24-23.54,2.56-36.14,2.06,11.37,2.17,22.27,2.61,33.84,1.72,45.88,1.73,91.28.44,137.13Z"/>
        <path d="M256.68,72.61c.05,3.66-7.75,5.9-13.29,6.82-19.35,3.21-38.99,3.07-58.3-.41-5.06-.9-11.92-3.44-11.77-6.9.22-5.06,10.57-7.43,17.26-5.74l-10.74,4.69c2.61,1.26,5.15,1.9,7.94,2.36,16.23,2.66,32.54,2.85,48.89.99,4.7-.54,9.07-1.26,13.63-3.1l-10.8-4.95c6.46-1.64,17.1.71,17.18,6.24Z"/>
        <path d="M198.49,407.68c-5.82,8.59-16.14,10.47-17.43,8.11-.29-.53.1-1.57.8-1.95,13.94-7.67,18.45-24.95,11.84-39.8-5.03-11.3-12.89-13.54-12.58-15.15.43-2.19,9.22-.86,15.21,6.28,9.91,11.8,10.81,29.75,2.16,42.51Z"/>
        <path d="M254.96,100.2c-1.73,4.01-5.58,4.97-9.65,5.87-20.86,4.65-42.33,4.18-62.8-.56-3.2-.74-5.83-2.3-7.76-4.5,1.11-.78,2.3-.64,3.63-.44,25.47,3.89,50.64,3.71,76.58-.37Z"/>
        <path d="M252.1,412.3c.74.65.97,1.32.91,1.76-.4,2.88-10.49-.9-15.61-10.05-8.5-15.16-3.35-36.07,11.91-42.91,1.28-.57,2.6-1.19,3.92-.05-.9,1.94-2.22,3.39-3.64,4.92-12.56,13.53-11.45,33.99,2.51,46.33Z"/>
        <g>
          <path d="M309.4,616.66c-2.15-2.02-4.17-3.98-6.93-5.37-15.18-7.65-38.46-10.19-56.08-11.84-2.71-.25-5.26-.39-7.8-1.69,1.52-1.6,3.65-2.04,5.96-1.91,14.9.81,29.51,2.47,43.89,6.26,6.52,1.72,12.39,4.01,17.77,7.74,1.73,1.85,4.17,3.14,3.19,6.81Z"/>
          <path d="M174.9,598.69c-.1.34-.69.83-1.31.95l-21.96,4.12c-9.44,1.77-24.41,5.77-30.36,13.13-2.13-5.16,6.44-9.83,12.42-12.01,12.63-4.59,25.82-7.12,39.33-7.32l1.43.31c.23.05.56.46.45.82Z"/>
        </g>
      </g>
    </g>
    <g>
      <path d="M403.45,319.6l.53,8.85c-2.04-2.37-2.19-6.06-.53-8.85Z"/>
      <path d="M416.25,324.55c3.5,3.71,7.38,14.66,1.95,15.56-1.38-4.3-2.46-8.1-4.56-12.03-1.02.93-1.46,1.68-2.43,2.16-.98-1.8-.07-3.17.74-4.36.63-.94,3.12-2.59,4.3-1.33Z"/>
      <path d="M421.06,316.17c1.83,2.35,2.41,5.64.92,8.9-3.86-10.23-10.73-6.21-12.03-8.61-.26-.47-.03-1.51.78-1.92,3.32-1.67,7.9-1.49,10.33,1.63Z"/>
      <path d="M445.1,350.15c-.26.81-.58,1.33-1.18,1.52-2.36.71-1.65-3.84-4.77-3.67-2.64.14-3.91-1.17-4.69-3.51-.46-1.35-3.55-.11-4.53-.93-.49-.41-.56-1.37.34-1.96,1.95-1.28,5.52-2.11,7.36-.19,1.16,1.22,1.53,2.3,3.51,2.47,3.12.27,4.91,3.33,3.96,6.27Z"/>
      <path d="M429.65,332.56c-1.23-.82,1.07-2.6,2.1-2.69,3.52-.29,5.47,1.78,8.35,3.31,1.66.88,4.59.22,5.31,2.96.15.57.33,1.45-.21,2.18-.73.99-3.09-1.05-7.99-.92-1.96-2.75-5.07-3.21-7.56-4.84Z"/>
      <g>
        <path d="M445.1,350.15c-.26.81-.58,1.33-1.18,1.52-2.36.71-1.65-3.84-4.77-3.67-2.64.14-3.91-1.17-4.69-3.51-.46-1.35-3.55-.11-4.53-.93-.49-.41-.56-1.37.34-1.96,1.95-1.28,5.52-2.11,7.36-.19,1.16,1.22,1.53,2.3,3.51,2.47,3.12.27,4.91,3.33,3.96,6.27Z"/>
        <path d="M418.2,340.11c-1.38-4.3-2.46-8.1-4.56-12.03-1.02.93-1.46,1.68-2.43,2.16-.98-1.8-.07-3.17.74-4.36.63-.94,3.12-2.59,4.3-1.33,3.5,3.71,7.38,14.66,1.95,15.56Z"/>
        <path d="M445.2,338.32c-.73.99-3.09-1.05-7.99-.92-1.96-2.75-5.07-3.21-7.56-4.84-1.23-.82,1.07-2.6,2.1-2.69,3.52-.29,5.47,1.78,8.35,3.31,1.66.88,4.59.22,5.31,2.96.15.57.33,1.45-.21,2.18Z"/>
        <path d="M421.98,325.07c-3.86-10.23-10.73-6.21-12.03-8.61-.26-.47-.03-1.51.78-1.92,3.32-1.67,7.9-1.49,10.33,1.63,1.83,2.35,2.41,5.64.92,8.9Z"/>
        <path d="M403.98,328.45c-2.04-2.37-2.19-6.06-.53-8.85l.53,8.85Z"/>
      </g>
    </g>
  </g>
</svg>