<?xml version="1.0" encoding="UTF-8"?>
<svg id="Layer_1" data-name="Layer 1" xmlns="http://www.w3.org/2000/svg" viewBox="0 0 1408 768">
  <path d="M815.39,272.76c0-5.86-6.22-8.89-10.38-11.38-1.52-58.34-14.67-138.61-54.06-181.73-22.73-24.88-54.58-31-82.45-10.21-47.62,35.52-65.06,133.85-64.8,192.2-6.51,2.3-11.08,6.8-11.08,14.03l.04,323.33c0,6.07,1.57,9.91,4.91,14.47l10,13.67c1.77,2.42.89,6.55.02,9.44-6.58,3.14-13.67,8.04-14.33,15.97-.74,8.98-1.05,18.06.11,27.11,1.86,14.59,34.33,23.91,51.44,26.7,44.93,7.35,119.67,8.39,158.61-13.08,5.42-2.97,11.61-8.04,11.61-14.25l-.03-26.43c-.01-8.36-8.23-11.71-13.6-16.13-8.26-6.79,10.08-20.1,13.91-31.97l.07-331.75ZM657.15,99.3c7.52-11.31,16.97-20.39,29.19-26.21,19.08-9.09,40.13-1.7,54.37,13.54,10.17,10.9,18.29,23.13,23.96,36.88l9.24,22.39c13.16,40.3,19.31,82.08,18.83,124.49l-11.88,3.25c-.56-47.75-6.19-101.89-26.35-144.18-7.14-14.97-15.48-28.59-29.1-38.9,6.61,13.15,11.88,25.41,15.45,39.5,6.65,26.52,10.66,52.72,13,80.11l2.58,67.77c-36.61,5.24-73.09,4.32-109.59-.51-.08-25.09.68-49.03,2.86-73.69l6.33-44.7c3.08-21.79,10.62-41.65,20.14-62.07-5.86,3.88-9.31,9.32-12.91,14.96-28.74,45.05-35.1,107.95-36.05,161.44l-11.46-2.84c-.58-56.03,9.99-123.93,41.4-171.22ZM619.71,687.12c-4.79-1.99-11.13-3.95-14.11-8.98-1.82-3.06-.72-7.55-.98-11.15l15.2,6.74-.11,13.39ZM642.2,693.72l-.12-14.51c37.88,6.91,75.78,6.93,114.14,1.89l.1,14.21c-37.86,6.29-76.17,5.37-114.12-1.59ZM789.06,687.02l.22-13.27,14.07-6.67.22,10.69c-3.92,4.86-8.95,7.6-14.52,9.25ZM803.43,654.71c-.52,6.19-22.63,13.08-34.24,15.36-46.73,9.12-94.46,8.57-140.69-2.7-8.74-2.12-17.33-5.63-23.5-11.78-1.43-2.27,3.41-6.47,5.04-6.61,2.71,4.45,6.32,6.73,10.69,8.68,40.02,17.75,128.14,18.11,168.1-.67,3.79-1.78,6.72-3.97,9.21-8.06,2.49,1.2,5.6,3.36,5.38,5.78ZM620.25,632.14l11.28,4.07-.18,16.21c-3.58-1.05-8.38-2.05-10.45-4.94-1.82-4.3-.44-9.57-.65-15.34ZM651.15,640.5c31.79,5.41,63.75,5.76,96.57,1.45l.15,17.41c-32.48,4.52-64.64,3.95-96.69-1.55l-.02-17.31ZM787.51,646.85c-.87,3.44-7.2,4.75-9.77,5.38l-.12-15.97,10.27-3.77c-.15,4.97.96,9.08-.38,14.36ZM789.18,610.69l-.07-320.15-29.96,5.88-.1,321.72c-38.92,6.51-78.24,5.69-117.18-1.38v-321.09l-21.88-4.82.03,319.6c-5.51-.99-10.74-3.64-15.49-7.85l.14-323.67c12.45,4.8,24.67,7.99,38.34,9.9,42.81,5.99,85.93,5.93,128.54-1.07,11.58-1.9,21.85-4.45,31.94-9.05l.07,324.11c-4.22,3.82-8.35,6.11-14.39,7.88Z"/>
</svg>