<?xml version="1.0" encoding="UTF-8"?>
<svg id="Layer_1" data-name="Layer 1" xmlns="http://www.w3.org/2000/svg" viewBox="0 0 1408 768">
  <defs>
    <style>
      .cls-1 {
        fill: #010101;
      }
    </style>
  </defs>
  <path class="cls-1" d="M388.16,560.06c-.37-11.78-.86-23.04-3.48-34.54-1.18-5.15.68-9.5.6-14.48l-.18-11.34c-.04-2.59-1.83-4.2-4.12-4.23l-17.48-.22c-1.83-.02-3.54.46-4.3,1.67-1.83,2.96.96,8.15-.57,10.14-2.79,3.63,1.61,7.22,1.2,10.05l-4.25,28.78-.3,14.16c-.14,6.66-17.35,15.05-17.53,25.26l-.58,33.21.4,84.03c.04,8.09,5.95,11.64,12.66,13.25,16.92,4.06,33.95,5.19,50.46-2.62,3.75-1.78,5.45-7.4,5.44-11.32l-.04-113.83c0-13.99-17.72-21.7-17.92-27.95ZM354.51,589.14l-2.59,40.36c-1.69-2.42-1.33-5.55-1.44-9.03-.72-23.09-8.5-35.16,13.17-51.14,3.68,3.05-5.87,9.96-9.15,19.81ZM364.23,562.95c-2.24-9.07-1.13-17.41.87-25.62l2.6,15.13c.69,3.99.39,8.42-3.47,10.5ZM378.54,577.88c-1-1.64-.25-4.53.77-5.62,1.15-1.24,3.97-.94,5.4.48l8.26,8.21c1.6,1.59,2.77,5.42,1.07,8.48-1.04,1.87-5.51,1.31-7.81,1.07l-7.68-12.6ZM395.48,657.28l-.97,34.35c-.11,3.75-2.18,6.35-5.03,6.63l-.27-45.04-.68-46.45,8.1-1.39-1.15,51.91Z"/>
  <path class="cls-1" d="M1065.9,621.7c-10.47-3.93-19.12-9.48-26.2-17.48-.46-6.53-4.31-10.98-10.33-12.87l-5.98-13.84c2.06-3.27,4.55-6.16,5.03-9.79l-16.64-32.56c-1.83-3.58-2.87-5.77-6.59-8l-15.25-9.16c-3.03-1.82-6.98.89-10.44,1.65-2.54-5.17-3.62-12.18-7.7-16.23-7.9-3.97-18.72-2.66-25.55,2.76-3.92,3.11-2.84,8.52-1.46,12.84-6.73,2.04-13,4.03-17.82,9.43-3.77-2.7-4.9-7.23-5.28-11.75-.35-4.16-4.3-5.3-7.19-7.04-3.4-2.05-5.72-2.95-9.66-1.85-6,1.68-11.67-.21-16.32-4.1l-14.64,1.77c-.42-1.72-1.46-3.08-2.4-3.27-1.03-.2-2.22.26-3.4.56l-17.96,4.6-.24,7.65c-4.79,2.49-9.32,4.15-13.27,7.54l-.41,9.71-19.93,1.98,6.89,44.23c.65,4.19.22,7.67,3.43,11,1.28,1.32,1.07,4.24-.19,5.59-4.96,5.3,1.03,11.67-1.01,16.53l-6.63,15.77-2.43,19.54-21.43-5.5c-7.81-2-16.93-3.27-22.94-8.82l-21.23-19.62c2.33-3.54,3.04-5.52,4.17-9.06l7.52,12.75.32-9.74c2.38,1.78,5.19,3.38,8.09,3.7l15.44-58.87c3.31-8.45,10.8-15.1,16.59-22.07l52.93-63.73,6.46-35.62-14-28.56-26.28-13.23-49.55,13.42,3.66-23-7.64-10.09,3.24-8.39-8.85-15.87c1.72-3.22,5.63-5.98,6.02-9.69l-3.1-17.8,11.56-17.01-6.18-38.52c2.74-8.1,1.29-16.63,7.69-24.96l12-15.62,4.35-15.16c2.13-3.3,5.17-5.62,8-8.37.75,3.62.35,6.47,2.71,9.32l8.81-30.74,7.59-9.77,2.8-40.84-7.18-7.33-10.57-34.31-48.78-40.85-53.45,1.98c-7.51.28-14.17,3.24-18.96,8.93l-27.49,27.67-9.45,32.63-37.27-4.54-27.62,30.69c-9.26-17.09-22.68-22.51-41.45-24.87l-13.98,10.33c-6.84,5.05-1.57,10.18-2.07,19.35l-52.76-4.67c-5.56-.49-12.72-2.3-17.85-.18-9.11,3.77-16.06,10.98-23.11,17.67l-31,29.4c-5.97,5.67-13.85,10.48-17.71,17.73-.47,6.14,5.45,11.79,10.32,15.14l-19.05,29.73c-8.8,3.72-17.05,1.57-20.82,9.94l-14.74,32.73,4.79,8.26c-5.31,17.65-10.47,34.45-14.02,52.6,4.57,11.76,11.11,22.15,18.77,32.32l.57,15.72c.13,3.53,1.85,5.88,4.59,7.77l15.13,10.44,21.98,15.81,28.77,11.25-2.25,61.14c-.11,3.06,1.62,4.24,3.74,5.95l23.16,18.65,17.23,27.02c2.79-.3,4.96-1.81,7.42-3l11.27,14.81c2.61,3.43,5.92,5.75,9.91,7.53l27.03,12.95c10.48.27,20.1-.83,30.76-2.05l-26.68,39.79,11.59,1.23c-.28,2.36-.95,4.45-1.96,6.68-7.42,16.39-10.6,33.95-9.2,51.83,2.05,1.88,4.16,2.92,6.63,3.92l56.1,22.69,46.25,7.83c9.07,2.14,17.77,1.45,26.68-.79l30.44-7.64c2.48-.62,7.42-2.12,8.03-4.94,1.24-19.89.2-20.13-14.2-32.53l40.02,4.14,27.88,4.75,50.85,4.83c8.1.77,15.62-5.38,23.25-6.88,7.49-1.47,11.62-7.2,9.72-15.42l68.66,14.62,42.72-16.54c1.43-.55.44-4.56-.11-6.67,10.06,1.75,19.72,3.3,30.27,3.38,4.79.04,10.01,1.84,14.96.59,15.37-3.91,29.79-9.07,44.34-15.1,1.26-.52,2.17-2.25,3.86-2.23l24.47.35c4.55.06,11.21-3.41,12.9-7.94,2.81-7.57-3.24-15.3-10.53-18.04ZM797.16,648.45l17.29,4.2c4.97,1.21,7.93,6.2,10.19,10.94l-25.99,5.42-24.29-.39c3.07-6.4,7.27-11.38,12.66-15.58l10.15-4.59ZM751,620.39l8.55,8.31c6.78,6.59,14.86,10.5,23.96,12.85l-24.08,9.33c-.37-5.69,3.82-7.25,7.47-10.7-8.33.6-16.66,6.44-18.42,3.34,3.04-4.48,6.7-7.15,12.17-10.07-1.92-1.45-4.73-.78-7.25.34l-10.75,4.76c-1.86.82-5.93,1.45-6.18-.56,1.69-4.33,6.66-6.13,9.88-9.12l-9.21,1.07c-9.87,1.15-10.41,10.68-15,6.42-.04-13.42,14.28-13.26,28.84-15.97ZM715.8,377.51c.28,1.97-1.51,3.27-2.08,5.49l-2.63,10.37c-3.11-2.16-1.18-6.66-2.54-9.16-1.01-1.85-2.46-2.93-2.48-4.62l2.89-4.17,2.63-72.34c.58-.95,4.53-.09,4.46,1.41l-3.35,70.05c1.21,1.05,2.95,1.96,3.1,2.97ZM708.23,301.58l-22.61,21.26,16.81-23.51,12.17-11.43,10.37,1.44-16.73,12.25ZM723.85,265.46l-6.21-7.56c2.15-3.16,4.15-6.27,7.48-8.64l32.04,3.26c1.5,1.39,2.57,2.88,3.88,4.96l-10.11,12.06c-1.59-2.88-1.72-5.46.4-9.95l-15.94-1.61c2.49,3.73,1.89,7.3-1.66,9.48-2.76,1.7-7.77.57-9.88-2ZM819.01,397.04l23.52,9.53,10.86,26.62-4.08,24.29-35.58,45.56c-1.7,2.18-2.47,4.55-5.14,5.98.73-3.22,2.77-5.06,4.25-7.59l23.69-40.4c-2.19-.22-3.35.6-5.22.96,1.9-3.85-4.42-3.56-5.57-10.11l-2.82-16.19-18.46,14.73-29.58,12.56,21.37-16.68,25.1-21.32-21.11,9.08-20.42,12.73,20.73-25.21c-18.71,9.07-35.67,19.06-53.28,30.07l9.9-34.2c1.56-2.39,5.88-2.9,8.6-3.52l53.24-16.9ZM766.06,381.46c.96,5.58-1.66,12.27-2.34,18.39-5.12-6.64-8.21-14.47-14.41-19.82l-14.63-7.14c9.49-1.34,17.2,2.36,25.23,5.9-2.81-7.39-8.62-11.19-14.63-13.2l-7.31-2.46c2.94-1.28,5.69.39,8.37,1.41l8.29,3.15c4.02,3.84,9.39,8.53,11.43,13.76ZM754.81,349.34c2.17,2.34,3.65,4.51,5.66,8.18-6.42-.72-12.11-.85-18.79-3.36l13.13-4.82ZM746.18,340.64l13.42-11.62c.29,4.82-2.13,7.92-4.87,11.11-1.69,1.96-6.01,1.2-8.55.51ZM741.21,328.26l17.07-28.42c1.58-4.19,1.56-8.69,1.93-12.8l-7.96,6.81c-6.2,2.21-12.92,1.3-19.46.4,1.07-2.41,3.16-2.92,5.36-3.1l12.47-1.75,13.61-17.03,3.04,26.98-26.07,28.89ZM783.57,219.93l-6.56,8.89.45-20.99c3.98,1.38,6.39.65,9.86-.67l-3.75,12.76ZM798.85,192.39l-20.74-5.76c-1.67,3.09-5.48,5.96-5.75,9.52l-2.97,39.26c-1.57,1.71-3.39,2.81-5.95,3.86l-18.96-14.48,2.44-7.42-8.77,8.31c1.31,3.32,3.94,5.13,6.64,8.26l-24.47,4.73-10.71,10.31,1.49-16.43c.23-2.52-.72-4.63-2.25-6.5l-15.69-19.2,5.2-23.15,13.47-6.97,21.58-16.24,26.22-3.5,42.52,8.85-3.3,26.54ZM726.21,109.3c5.45-2.05,11.09-4.05,16.95-4.65l32.87-3.38,27.9,8.12c1.83,2.18,3.45,3.94,4.71,7.02l-29.52-7.32-46.08,2.63-43.35,11.33,36.52-13.75ZM695.88,269.11l-15.25,9.29-10.22-43.14,25.47,33.84ZM680.9,356.01l-7.59-.14-.1-21c2.23-.3,3.67-.07,5.33.25l2.36,20.88ZM678.07,180.51l-2.08,19.89c-.43,1.57-4.96,3.55-6.66,2.45-5.77-3.72-8.56-9.98-9.4-15.87l18.14-6.48ZM668.47,267.44c3.47,7.81,7.44,15.81,7.09,24.55l-1.37,33.86c-2.05-17.82-2.95-34.72-6.89-52.09l-17.18-28.21-5.05-36.77c7.58,19.99,14.78,39.21,23.41,58.66ZM663.13,395.61c-1.78-3.91-2.45-8-2.95-12.36l12.8-26.92c-.49,9.69-5.09,17.59-7.82,26.38-1.16,3.72,1.46,20.58-2.03,12.9ZM655.63,355.7c-3.47,2.6-1.02,5.47-1.87,11.12-.2,1.37-3.9,1.81-4.12.69-.64-3.28.25-7.15-1.66-10.02-1.9-2.84-2.85-5.68-.08-8.69l3.13-86.6c1.83,1.1,4.49,3.34,4.8,5.62l-3.68,80.11c1.69,2.32,4.18,5.41,3.48,7.76ZM596.58,145.33l19.15-28.34,29.55,5.06-24.47,3.65c-1.69.25-2.86,2.16-3.28,3.85l-6.19,25.18,18.62,57.78c-3.91-3.74-5.94-8.13-8.62-12.53l-23.29-38.14c-3.15-5.16-5.08-11.16-1.46-16.52ZM571.98,387.53l-5.86-9.76c14.15,3.09,33.51,16.21,41.33,27.5l8.98,12.96-33.74-13.59c-.88,11.32-5.27,21-12.53,29.79,4.1-15.79,5.49-31.34,1.83-46.9ZM554.74,337.89c-5.69,4.12-10.69,8.6-17.36,11.49,9.14-9.74,17.38-18.86,24.92-29.84,3.27,2.21,6.32,3.73,10.06,4.76l-8.44,3.97c-3.97,1.87-5.54,7.11-9.17,9.62ZM558.21,404.77c-.19,5.1-1.64,9.94-4.09,14.94l-13.7,27.9-9.79-4.17c5.87-14.73,11.62-28.36,15.71-43.65l11.88,4.97ZM472.34,321.3l-18.75-13.89c7.45-.26,14.09,7.91,22.4,9.02-3.94-13.38-8.65-25.82-14.08-38.81l18.38-44.91c.85-2.09,1.22-4.23,2.83-6.31-.21,3.68-.71,6.63-1.83,9.43l-7.49,56.19,16.28,45.32c-6.61-5.97-11.3-11.27-17.74-16.04ZM483.17,344.13l-16.19-7.25c-14.93-6.68-30.24-6.79-46.48-1.51,7.45-7.14,16.36-10.73,25.87-13.01,8.97,2.21,16.7,6.02,23.85,11.37l12.95,10.4ZM479.13,200.18l16.32-18.61,20.49,7.17c2.67.94,5.23,2.11,7.32,4.01l17.59,30.79-.67,34.58-8.46-34.96-9.07-15.57-19.05-14.56-24.48,7.15ZM577.32,155.22c18.38,18.09,32.41,52.19,31.49,77.39l-1.12,30.66c-1.79,12.43-6.07,24.25-11.12,35.55-2.59,5.8-7.21,10.26-12.03,14.34,1.45-9.18,5.84-15.48,9.36-24.53-4.54-2.82-9.92-4.33-15.58-6.27l-11.96,25.76c-1.9-2.7-2.27-5.17-2.73-7.66,13.15-29.01,24.08-69,15.39-99.23l-13.03-29.82c-2.87-6.58-8.44-11.08-13.21-16.62l24.54.43ZM562.17,133.18c2.84,3.13,4.47,6.29,6.15,11.45-8.35-.09-15.64-.03-23.67,1.81-1.4-5.88-2.64-11.39-2.67-17.86,7.14.19,14.06,1.26,20.19,4.6ZM542.48,161.68l13.68,13.62-20.97,10.48c-3.59,1.79-4.37-.38-6.67-1.27l-24.47-9.5c12.36-5.82,25.26-9.37,38.43-13.33ZM458.64,149.38c21.21.83,41.32,2.53,61.58,4.98l-24.98,10.43c-4.95,2.07-9.05,4.67-13.1,9.64l-6.01-9.66c-2.85-4.58-11.76-8.64-17.59-6.97-11.73,3.36-19.48,12.61-30.76,17.1,9.98-9.66,20.13-17.42,30.86-25.52ZM399.84,231.07l17.11-29.16c2.92-4.98,10.75-6.29,16.58-8.19-5.78,6.78-10.56,12.9-14.81,20.48l-7.08,12.65c12.05-2.47,21.7-8.32,33.57-13.74l-19.42,19.92c-7.25,7.43-25.09,11.58-28.74,27.31l-10.91-7.46c3.53-8,9.25-14.25,13.69-21.81ZM381.81,333.38l-7.03,14.93-.23,22.52-33.76-21.72,13.55-43,17.78,15.45c5.64-4.7,11.2-8.04,17.42-10.87l-7.73,22.69ZM381.85,302c-2.54,2.2-9.66,3.16-12.57,1.89-7.05-3.07-11.81-7.69-17.91-12.84l13.51-25.51c2.09-3.95,8.68-4.62,12.92-5.65l32.86,19.01c-18.33,4.08-19.97,15.45-28.8,23.11ZM411.55,367.64c1.8-3.98,4.7-7.59,8.2-10.21l12.18-9.12-10.6-3.12,36.41-1.94,13.65,5.5-24.91,2.26c-13.02,2.78-24.01,9.57-34.93,16.62ZM439.93,367.12l19.69-7.75,23.14-3.78-28.79,15.46c-5.51-.59-9.82-2.11-14.04-3.93ZM463.23,403.03l14.39-28.36c-8.38,1.98-14.34,5.79-22.24,8.53l17.77-13.35c8.32-6.25,19.16-7.47,29.45-9.75l8.47,20.13,19.45-2.71c3.51,4.77,6.94,9.1,12.27,11.21l-3.01,8.11c-.38,1.03-3.73.55-4.82,1.21l-22.35,13.63c5.09-7.69,8.66-14.97,9.02-23.87l-12.41,13.77-3.1-9.58-42.89,11.04ZM510.75,530.52c-1.48.52-5.31.19-6.36-1.14-.92-5.34.77-10.21,1.43-15.15l6.98-10.62c-1.43,9.28-2.16,17.61-2.05,26.91ZM525.47,526.46c-3.66,2.79-7.18,4.38-11.19,3.68l17.29-44.8c11.69-9.44,23.68-17.53,36.97-25.28l91.01-53.05c2.76-1.61,6.34-3.57,9.35-3.81,19.56-1.58,32.24-3.57,49.24,8,6.84,9.95,9.24,21.76,12.44,33.16l-5.5,26.03-44.32,58.3,23.85-45.95c2.47-3.43,4.78-6.4,5.96-10.8l-20.8,7.36-9.3-26.05c-6.97,4.97-13.33,11.12-21.57,14.29l-30.58,11.78,31.16-22.45c6.8-4.9,10.09-12.93,15.37-19.47-3.56.3-5.53,2.74-8.47,4.46l-29.13,17.13,25.43-31.27-33.15,21.05,3.44-8.77c-13.39,6.63-17.45,25.82-21.62,40.28-3.68,4.97-5.8,10.66-11.19,15.16l14.19-44.12-18.16,21.2-70.72,53.93ZM672.3,588.69l-10.3,12.25,15.51-1.79-3.02,7.96-6.38.07-8.33,26.42-4.03,29.32c-15.87-4.99-20.33-12.03-22.28-28.51,5.2,1.7,8.16,6.21,12.21,8.68l.64-23.61,17.26-47.82,29.97-18.83-25.11,34.05,3.84,1.82ZM604.43,667.13c7.73-4.84,16.3-7.85,25.17-9.8,4.58-1.01,6.66.77,9.77,3.8,2.5,2.44,7.35,2.54,9.39,6.78l-18.76,4.09c-4.62,1.01-8.22,3.72-12.22,6.79-1.45-.43-2.9-2.03-3.94-3.4l11.91-9.93c-10.39.73-17.72,7.62-21.31,1.67ZM587.02,656.22c-.34-2.87-.36-5.51.56-8.39,11.19-2.72,22.14-4.35,34.08-4.28l9.52,11.35c-11.24.26-20.52,2.33-29.6,7.37-2.06,1.14-5.23-.8-5.14-2.4l17.31-9.73c-10-.55-17.97,3.38-26.73,6.09ZM599.57,595.78l17.64-15.41,50.25-44.33-30.24,76.39,2.12,17-9.71-9.73c-1.7,2.38-1.21,4.06-1.84,6.61-4.04-4.42-5.84-8.35-8.86-13.44-9.31,4.74-17.98,10.3-26.3,16.63l-8.85,8.34-4.12-13.81-11.61,5.43c-6.17-.14-12.05-2.76-18.62-4.3l30.1-5.81,49.63-17.02-29.58-6.55ZM632.81,644.92l-9.17-5.58c-1.31-.8.07-4.36,1.81-4.87,2.74,3.8,5.65,6.38,7.36,10.46ZM690.85,705.47c-16.88,4.6-33.49,7.01-51,9.53-17.56-.7-34.75-2.33-51.09-8.74l-28.45-14.58c-.65,1.06-2.4,3.56-3.43,3.57l-25.34-11.63c-.75-3.06-.76-5.61.14-9.34,8.98,5.69,19.07,7.81,28.8,12.34l25.07,11.68c19.73,5.32,39.88,7.45,60.41,7.24l20.73-3.89c8.39-1.57,16.17-2.99,24.04-5.92l.12,9.75ZM686.22,691.85l-35.51,6.81-31.7-.37c8.1-12.52,20.45-18.6,34.33-21.44,7.03-1.44,12.53-1.51,19.07,2.25,5.32,3.05,11.19,5.48,13.81,12.75ZM827.7,675.33c-10.52,2.8-21.25,6.87-32.28,6.12l-43.84-2.96-29.88-8.72-18.14-.76c-12.86-.54-25.18-2.99-37.41-6.06l.53-6.97c7.83,3.42,15.82,4.15,24.33,5.37l32.31,4.62,33.57,7.11,42.16,3.43,28.35-9.48c.96,2.55,1.12,4.52.28,8.3ZM908.88,631.05l1.92-14.51c2.67,2.44,2.5,4.24,6.59,6.67-2.02,2.9-4.46,5.47-8.51,7.84ZM910.09,609.18c-.8-.55-1.86-1.62-2.52-1.64-.87-.03-2.65,1.43-2.37,2.66,1.97,8.85-1.22,17.06-3.25,26.46,1.85,2.65,3.55,5.57,3.06,9.42l-3.85,30.11-18.83-16.52c2.5-1.96,4.03-1.64,6.5-2.22-3.39-8.29-16.29-10.08-23.31-17.1-7.63-9.36-12.44-20-21.58-29.18l23.48,8.92,14.71,8-8.17-31.94-7.28-44.08c3.07-1.5,6.39-3.07,9.32-1.86l13.68,5.68c2.04.85,3.98-1.06,5.44-1.3l19.61-3.16-.93,17.9c-.58,11.09-2.8,21.04-7.96,31.02,5.39,4.47,8.85-2.64,16.5-4.35-3.25,5.12-7.19,10.08-12.25,13.16ZM920.11,539.81l-16.35-19.5c-4.15-4.95-5.97,4.77-10.53,7.61-2.04,1.27-5.06.98-7.26,1.01l2.49-16.64c10.23,5.41,17.26-2.41,24.04,2.73,2.47,1.88,4.37,4.32,4.42,8.43.08,7.27,8.98,10.54,9.15,16.64-.4,2.36-4.85,1.04-5.95-.28ZM954.99,510.83c1.7-1.66,7.55-1.6,9.42-.1,3.11,2.5,3.78,6.79,5.19,10.56-5.59.14-10.01-.44-15.13-1.67-.83-2.4-1.47-6.84.53-8.79ZM937.67,529.03c1.83-2.59,5.6-3.28,9.14-3.05l21.57,1.41,20.17-3.67c4.68,2.07,11.3,5.59,14.62,9.46,6.05,7.05,10.51,23.99,19.45,34.09-2.29,5.17-7.06,7.36-12.27,8.67l-4.26-12.07-11.01,1.64c.49,4.79,2.07,8.42,4.38,13.61-11.7,3.32-16.34,1.4-25.73-5.97l-12.51-31.83c-3.3-8.39-14.81-11.17-23.56-12.29ZM976.41,654.12c1.36-9.67.31-18.89-2.24-28.33l-8.05-29.85c-2.75-10.22-5.5-20.01-5.87-30.83l5.47,14.03c3.18,4.31,8.69,7.31,13.29,10.01,3.38,1.99,7.97,1.23,11.38.3l10.57-2.89,4.23,7.43c2.79,1.35,6.76,1.61,8.37-1.92,1.27-2.79.39-6.01-.94-8.9.53-1.09,4.35-2.45,4.99-1.09l5.39,11.43-17.79,3.61-13.07,3.41c-3.86,1.01-9.9,3.58-11.31,7.71l4.2,34.47c.38,3.09.87,5.67,2.65,8.26l-11.27,3.13ZM989.14,605.55l37.51-6.76c1.77-.32,4.69.22,5.67,1.61,2.03,2.89,2.47,6.22,2.92,10.6-11.1,8.54-24.36,10.59-37.51,7.86-1.06-6.02-3.65-10.03-8.59-13.3ZM1036.58,637.8c-9.03,4.49-18.57,8.35-28.64,9.74l-9.98-.71-2.39-20.9,19.77.63c7.05.22,12.28-3.14,17.96-8.79,2.08,6.44,3.73,12.6,3.28,20.04ZM1042.78,635.92l-1.69-14.47,11.34,7.06c4.16,2.59,8.99,3.09,12.65,8.22-7.87,1.25-14.87.33-22.3-.81Z"/>
  <path class="cls-1" d="M481.29,235.83c.82-2.7.49-3.74-1-3.12,1.09.48,1.16,1.95,1,3.12Z"/>
  <path class="cls-1" d="M1005.19,594l.03,3.13c2.96-1.07,2.55-1.74-.03-3.13Z"/>
  <path class="cls-1" d="M1019.71,615.91c1.83,0,3.31-1.48,3.31-3.31s-1.48-3.31-3.31-3.31-3.31,1.48-3.31,3.31,1.48,3.31,3.31,3.31Z"/>
  <path class="cls-1" d="M745.28,365.59l1.06-1.04c-1.97-.42-2.33-.07-1.06,1.04Z"/>
  <path class="cls-1" d="M813.73,503.05l-.89-1.6c-.8,2.23-.51,2.77.89,1.6Z"/>
  <path class="cls-1" d="M734.76,178.26l-17.55,5.29c7.43,7.8,16.37,15.06,27.34,16.44l-11.47,8.78c17.88,2.08,28.75-15.2,39.05-28.51-5.37,1.47-9.12,1.37-14.06.78l-23.32-2.78Z"/>
</svg>