<?xml version="1.0" encoding="UTF-8"?>
<svg id="Layer_1" data-name="Layer 1" xmlns="http://www.w3.org/2000/svg" viewBox="0 0 347 293">
  <defs>
    <style>
      .cls-1 {
        fill: #010101;
      }

      .cls-2 {
        fill: none;
        stroke: #000;
        stroke-linecap: round;
        stroke-linejoin: round;
        stroke-width: 3px;
      }
    </style>
  </defs>
  <g>
    <path d="M209.66,140.17l-20.71-27.95,19.31-24.62c1.3-1.66,1.48-3.66.58-5.52-.74-1.52-2.51-2.64-4.55-2.65l-17.68-.02c-1.75,0-3.31.61-4.41,2.02l-16.87,21.54-.03-18.12c-.01-2.89-2.02-5.17-4.9-5.34l-16.74.03c-2.69.01-5.01,2.18-5.02,5.03l-.05,58c-.01,3.23,2.28,5.55,5.39,5.55h16.44c2.38-.32,4.76-2,4.78-4.55l.15-20.4,16.52,22.57c1.22,1.66,3.04,2.39,5.06,2.39l18.94-.04c1.94,0,3.61-1.27,4.29-2.67.83-1.73.75-3.56-.5-5.25ZM186.49,142.49l-19.34-26.76c-1.45-1.36-3.19-1.73-5.02-.96-1.45.6-2.5,2.12-2.51,4.06l-.05,23.67-15.34.04v-57.42h15.34v22.05c-.04,2.12,1.24,3.82,3.06,4.32,1.97.55,3.84-.3,5.02-2.08l18.94-24.3h16.29s-19.21,24.52-19.21,24.52c-1.04,1.44-1.21,2.86-.37,4.66l20.83,28.15-17.64.05Z"/>
    <path d="M216.87,57.59l-87.04.04c-3.07,0-5.04,2.64-5.04,5.38v6.68c.01,3.25,2.34,5.61,5.69,5.6l86.35-.03c2.81,0,5.35-1.87,5.35-4.77v-8.05c.02-2.82-2.4-4.85-5.31-4.85ZM216.54,69.67h-86.05s0-6.42,0-6.42h86.05v6.42Z"/>
    <path d="M222.23,157.41c-.01-2.42-1.94-5.08-4.71-5.08h-87.7c-2.9-.01-5,2.43-4.99,5.11l.02,7.54c.01,2.93,2.35,4.88,5.3,4.88h87.82c2.63-.58,4-2.49,4.3-4.82l-.04-7.63ZM216.54,164.24l-86.04.02v-6.36h86.04s0,6.34,0,6.34Z"/>
    <path d="M173.55,29.62c-46.11,0-83.48,37.38-83.48,83.48s37.37,83.47,83.48,83.47,83.47-37.37,83.47-83.47S219.65,29.62,173.55,29.62ZM173.54,190.77c-42.93,0-77.72-34.8-77.72-77.72s34.79-77.72,77.72-77.72,77.72,34.79,77.72,77.72-34.8,77.72-77.72,77.72ZM173.55,29.62c-46.11,0-83.48,37.38-83.48,83.48s37.37,83.47,83.48,83.47,83.47-37.37,83.47-83.47S219.65,29.62,173.55,29.62ZM173.54,190.77c-42.93,0-77.72-34.8-77.72-77.72s34.79-77.72,77.72-77.72,77.72,34.79,77.72,77.72-34.8,77.72-77.72,77.72ZM173.55,29.62c-46.11,0-83.48,37.38-83.48,83.48s37.37,83.47,83.48,83.47,83.47-37.37,83.47-83.47S219.65,29.62,173.55,29.62ZM173.54,190.77c-42.93,0-77.72-34.8-77.72-77.72s34.79-77.72,77.72-77.72,77.72,34.79,77.72,77.72-34.8,77.72-77.72,77.72ZM173.55,29.62c-46.11,0-83.48,37.38-83.48,83.48s37.37,83.47,83.48,83.47,83.47-37.37,83.47-83.47S219.65,29.62,173.55,29.62ZM173.54,190.77c-42.93,0-77.72-34.8-77.72-77.72s34.79-77.72,77.72-77.72,77.72,34.79,77.72,77.72-34.8,77.72-77.72,77.72ZM173.53,15.31c-53.98,0-97.74,43.76-97.74,97.74s43.76,97.74,97.74,97.74,97.74-43.76,97.74-97.74S227.51,15.31,173.53,15.31ZM173.54,204.69c-50.61,0-91.63-41.02-91.63-91.63S122.93,21.43,173.54,21.43s91.63,41.03,91.63,91.63-41.03,91.63-91.63,91.63ZM173.55,29.62c-46.11,0-83.48,37.38-83.48,83.48s37.37,83.47,83.48,83.47,83.47-37.37,83.47-83.47S219.65,29.62,173.55,29.62ZM173.54,190.77c-42.93,0-77.72-34.8-77.72-77.72s34.79-77.72,77.72-77.72,77.72,34.79,77.72,77.72-34.8,77.72-77.72,77.72ZM173.55,29.62c-46.11,0-83.48,37.38-83.48,83.48s37.37,83.47,83.48,83.47,83.47-37.37,83.47-83.47S219.65,29.62,173.55,29.62ZM173.54,190.77c-42.93,0-77.72-34.8-77.72-77.72s34.79-77.72,77.72-77.72,77.72,34.79,77.72,77.72-34.8,77.72-77.72,77.72ZM173.55,29.62c-46.11,0-83.48,37.38-83.48,83.48s37.37,83.47,83.48,83.47,83.47-37.37,83.47-83.47S219.65,29.62,173.55,29.62ZM173.54,190.77c-42.93,0-77.72-34.8-77.72-77.72s34.79-77.72,77.72-77.72,77.72,34.79,77.72,77.72-34.8,77.72-77.72,77.72ZM173.55,29.62c-46.11,0-83.48,37.38-83.48,83.48s37.37,83.47,83.48,83.47,83.47-37.37,83.47-83.47S219.65,29.62,173.55,29.62ZM173.54,190.77c-42.93,0-77.72-34.8-77.72-77.72s34.79-77.72,77.72-77.72,77.72,34.79,77.72,77.72-34.8,77.72-77.72,77.72ZM173.55,29.62c-46.11,0-83.48,37.38-83.48,83.48s37.37,83.47,83.48,83.47,83.47-37.37,83.47-83.47S219.65,29.62,173.55,29.62ZM173.54,190.77c-42.93,0-77.72-34.8-77.72-77.72s34.79-77.72,77.72-77.72,77.72,34.79,77.72,77.72-34.8,77.72-77.72,77.72Z"/>
    <g>
      <path d="M209.66,140.17l-20.71-27.95,19.31-24.62c1.3-1.66,1.48-3.66.58-5.52-.74-1.52-2.51-2.64-4.55-2.65l-17.68-.02c-1.75,0-3.31.61-4.41,2.02l-16.87,21.54-.03-18.12c-.01-2.89-2.02-5.17-4.9-5.34l-16.74.03c-2.69.01-5.01,2.18-5.02,5.03l-.05,58c-.01,3.23,2.28,5.55,5.39,5.55h16.44c2.38-.32,4.76-2,4.78-4.55l.15-20.4,16.52,22.57c1.22,1.66,3.04,2.39,5.06,2.39l18.94-.04c1.94,0,3.61-1.27,4.29-2.67.83-1.73.75-3.56-.5-5.25ZM186.49,142.49l-19.34-26.76c-1.45-1.36-3.19-1.73-5.02-.96-1.45.6-2.5,2.12-2.51,4.06l-.05,23.67-15.34.04v-57.42h15.34v22.05c-.04,2.12,1.24,3.82,3.06,4.32,1.97.55,3.84-.3,5.02-2.08l18.94-24.3h16.29s-19.21,24.52-19.21,24.52c-1.04,1.44-1.21,2.86-.37,4.66l20.83,28.15-17.64.05Z"/>
      <path d="M216.87,57.59l-87.04.04c-3.07,0-5.04,2.64-5.04,5.38v6.68c.01,3.25,2.34,5.61,5.69,5.6l86.35-.03c2.81,0,5.35-1.87,5.35-4.77v-8.05c.02-2.82-2.4-4.85-5.31-4.85ZM216.54,69.67h-86.05s0-6.42,0-6.42h86.05v6.42Z"/>
      <path d="M222.23,157.41c-.01-2.42-1.94-5.08-4.71-5.08h-87.7c-2.9-.01-5,2.43-4.99,5.11l.02,7.54c.01,2.93,2.35,4.88,5.3,4.88h87.82c2.63-.58,4-2.49,4.3-4.82l-.04-7.63ZM216.54,164.24l-86.04.02v-6.36h86.04s0,6.34,0,6.34Z"/>
      <path d="M173.55,29.62c-46.11,0-83.48,37.38-83.48,83.48s37.37,83.47,83.48,83.47,83.47-37.37,83.47-83.47S219.65,29.62,173.55,29.62ZM173.54,190.77c-42.93,0-77.72-34.8-77.72-77.72s34.79-77.72,77.72-77.72,77.72,34.79,77.72,77.72-34.8,77.72-77.72,77.72Z"/>
      <path class="cls-1" d="M222.23,157.41c-.01-2.42-1.94-5.08-4.71-5.08h-87.7c-2.9-.01-5,2.43-4.99,5.11l.02,7.54c.01,2.93,2.35,4.88,5.3,4.88h87.82c2.63-.58,4-2.49,4.3-4.82l-.04-7.63ZM216.54,164.24l-86.04.02v-6.36h86.04s0,6.34,0,6.34Z"/>
      <path d="M209.66,140.17l-20.71-27.95,19.31-24.62c1.3-1.66,1.48-3.66.58-5.52-.74-1.52-2.51-2.64-4.55-2.65l-17.68-.02c-1.75,0-3.31.61-4.41,2.02l-16.87,21.54-.03-18.12c-.01-2.89-2.02-5.17-4.9-5.34l-16.74.03c-2.69.01-5.01,2.18-5.02,5.03l-.05,58c-.01,3.23,2.28,5.55,5.39,5.55h16.44c2.38-.32,4.76-2,4.78-4.55l.15-20.4,16.52,22.57c1.22,1.66,3.04,2.39,5.06,2.39l18.94-.04c1.94,0,3.61-1.27,4.29-2.67.83-1.73.75-3.56-.5-5.25ZM186.49,142.49l-19.34-26.76c-1.45-1.36-3.19-1.73-5.02-.96-1.45.6-2.5,2.12-2.51,4.06l-.05,23.67-15.34.04v-57.42h15.34v22.05c-.04,2.12,1.24,3.82,3.06,4.32,1.97.55,3.84-.3,5.02-2.08l18.94-24.3h16.29s-19.21,24.52-19.21,24.52c-1.04,1.44-1.21,2.86-.37,4.66l20.83,28.15-17.64.05Z"/>
      <path class="cls-1" d="M216.87,57.59l-87.04.04c-3.07,0-5.04,2.64-5.04,5.38v6.68c.01,3.25,2.34,5.61,5.69,5.6l86.35-.03c2.81,0,5.35-1.87,5.35-4.77v-8.05c.02-2.82-2.4-4.85-5.31-4.85ZM216.54,69.67h-86.05s0-6.42,0-6.42h86.05v6.42Z"/>
    </g>
  </g>
  <g>
    <polygon class="cls-2" points="47.38 246.28 67.13 276.66 51.83 276.75 37.69 253.82 33.25 259.21 33.24 276.71 20.32 276.74 20.33 222.76 33.24 222.73 33.22 246.26 35.64 242.94 50.58 222.77 66.42 222.78 47.38 246.28"/>
    <path class="cls-2" d="M124.11,276.73l-11.61.02-.07-23.61c0-1.91-.85-3.89-2.28-5-1.59-1.24-4.03-1.16-5.67-.13-1.9,1.19-2.61,3.24-2.87,5.45l-.02,23.3h-11.81s.02-28.35.02-28.35l-.33-9.67,10.31-.04.44,4.76c2.87-3.97,7.32-5.91,12.2-5.57,4.1.28,7.71,2.29,9.58,6.16,2.98-4.38,7.85-6.54,13.15-6.16,8.13.57,11.85,7.31,11.89,15.24v23.62s-11.83,0-11.83,0l-.02-22.97c-.25-2.2-.71-4.44-2.53-5.74-1.62-1.15-3.85-1-5.59,0-1.34.78-2.78,2.7-2.79,4.7l-.18,24Z"/>
    <polygon class="cls-2" points="262.42 276.66 247.93 276.77 238.68 261.2 235.65 264.7 235.59 276.76 223.67 276.74 223.68 218.08 235.61 218.04 235.64 254.21 246.23 238.75 260.7 238.75 247.36 253.96 262.42 276.66"/>
    <path class="cls-2" d="M326.68,276.4c-4.02,1.41-8.31,1.67-12.44.67-6.26-1.53-8.09-7.27-8.09-13.53v-15.96s-5.14-.03-5.14-.03v-8.81s5.11-.04,5.11-.04v-9.75s11.84-3.3,11.84-3.3v13.02s8.66.06,8.66.06l-.03,8.8-8.63.03.09,15.61c.01,1.76.83,3.46,2.3,4.28,1.92.8,3.83.48,6-.21l.33,9.15Z"/>
    <path class="cls-2" d="M206.62,276.64l-11.99.1v-28.32s-.38-9.68-.38-9.68h10.27c.29,2.4-.01,4.64.68,7.07,1.82-5.8,7.35-9.03,13.09-7.55l-.08,11.06c-3-1.06-6.08-.83-8.64.89-1.93,1.39-2.71,3.53-2.97,5.91v20.51Z"/>
    <rect class="cls-2" x="63.18" y="248.05" width="20.31" height="8.39"/>
    <path class="cls-2" d="M186.86,268.59v-14.2c.09-7.42-2.8-13.8-10.2-15.7-7.24-1.85-14.95-.67-21.58,2.71l2.22,7.53c4.22-2.2,8.83-3.5,13.49-2.78,2.62.4,4.32,2.53,4.21,5.12-6.37-.13-14.88,1.21-19.05,5.65-4.53,4.83-4.46,12.73.27,17.4,5.06,4.99,14.87,4.3,19.59-1.22l.79,3.64h11s-.74-8.15-.74-8.15ZM175.21,263.39c-.01,2.28-1.5,4.05-3.04,4.9-1.92,1.07-4.1,1.32-5.96.19-1.64-.99-2.07-2.83-1.87-4.6.48-4.26,6.22-5.43,10.9-5.18l-.03,4.69Z"/>
    <path class="cls-2" d="M295.94,246.09c-2.61-5.08-7.63-7.98-13.35-8.19-4.91-.28-9.74.77-13.61,3.83-7.1,5.63-9.08,16.47-5.64,24.65,2.3,5.5,6.93,9.36,12.82,10.59,6.75,1.4,13.67.66,20.08-2.04l-1.8-8.32c-7.7,3.54-19.67,3.26-21.14-5.33h24.72c.97-5.24.34-10.48-2.08-15.19ZM273.2,253.31c.16-2.17.98-4.22,2.57-5.76,2.39-2.32,6.16-2.47,8.81-.56,1.69,1.54,2.48,3.42,2.53,6.25l-13.91.07Z"/>
  </g>
</svg>