<?xml version="1.0" encoding="UTF-8"?>
<svg id="Layer_1" data-name="Layer 1" xmlns="http://www.w3.org/2000/svg" viewBox="0 0 1408 768">
  <defs>
    <style>
      .cls-1 {
        fill: none;
        stroke: #000;
        stroke-linecap: round;
        stroke-linejoin: round;
        stroke-width: 6px;
      }
    </style>
  </defs>
  <g>
    <polygon points="325.7 476.96 284.33 477.29 247.71 397.51 228.74 424.1 228.7 477.33 192.09 477.39 192.06 291.98 228.54 291.81 228.99 370.95 281.97 291.87 324.17 291.88 271.94 365.57 325.7 476.96"/>
    <polygon points="456.43 448.8 456.33 477.4 346.56 477.4 346.56 291.93 455.48 291.79 455.62 320.32 383.49 320.56 383.38 366.86 444.3 367.04 444.51 395.33 383.4 395.54 383.44 448.75 456.43 448.8"/>
    <polygon points="916.31 291.78 861.9 477.27 822.03 477.25 767.83 291.94 807.45 291.89 842.4 431.77 877.19 291.79 916.31 291.78"/>
    <path d="M1005.48,291.88l-40.88-.04-55.9,185.48h39.07l10.13-39.3,53.78.37,10.43,39.08,39.83-.16-56.46-185.42ZM965.27,409.12l19.43-76.9,19.55,76.96-38.98-.06Z"/>
    <path d="M719.34,291.87l-40.93-.03-56.12,185.49h39.19s10.17-39.3,10.17-39.3l53.87.3,10.37,39.15,39.77-.19-56.32-185.42ZM679.14,409.12l19.26-76.81,19.54,76.73-38.79.08Z"/>
    <path d="M576.04,394.15c27.19-12.5,32.32-38.69,27.54-64.08-3.03-16.56-15.52-29.43-33.43-34.54-7.69-2.2-15.56-3.51-23.93-3.52l-63.46-.1.06,185.55,36.72-.13v-75.11s21.69.13,21.69.13l29.04,74.95,40.66.06-34.89-83.22ZM546.23,373.63l-26.64.23-.07-53.37,26.68.25c10.77.09,18.95,7.04,20.54,16.42,3.35,17.27-.86,34.29-20.51,36.47Z"/>
  </g>
  <path class="cls-1" d="M102.23,189.64h1011.39c5.31,0,10.46,1.85,14.55,5.24l188.75,156.11c15.55,14.4,15.55,38.99,0,53.39l-188.59,168.2c-4.18,3.73-9.59,5.79-15.19,5.79H102.23c-12.61,0-22.83-10.22-22.83-22.83V212.47c0-12.61,10.22-22.83,22.83-22.83Z"/>
  <path d="M1296.05,353.3l-183.68-145.19c-3.98-3.14-8.99-4.87-14.15-4.87H114.02c-12.27,0-22.21,9.51-22.21,21.23v319.04c0,11.73,9.94,21.23,22.21,21.23h983.73c5.45,0,10.71-1.91,14.78-5.38l183.52-156.42c15.13-13.39,15.13-36.26,0-49.65ZM1113.06,539.97c-2.13,3-5.59,4.77-9.26,4.77H128.32c-11.27,0-20.42-8.46-20.42-18.89V242.13c0-10.42,9.14-18.87,20.42-18.87h975.76c3.52,0,6.84,1.63,9,4.41l115.91,149.76-115.93,162.54Z"/>
  <path class="cls-1" d="M1228.99,377.43l-115.93,162.54c-2.13,3-5.59,4.77-9.26,4.77H128.32c-11.27,0-20.42-8.46-20.42-18.89V242.13c0-10.42,9.14-18.87,20.42-18.87h975.76c3.52,0,6.84,1.63,9,4.41l115.91,149.76Z"/>
  <path class="cls-1" d="M1228.99,377.43l-115.93,162.54c-2.13,3-5.59,4.77-9.26,4.77H128.32c-11.27,0-20.42-8.46-20.42-18.89V242.13c0-10.42,9.14-18.87,20.42-18.87h975.76c3.52,0,6.84,1.63,9,4.41l115.91,149.76Z"/>
</svg>