<?xml version="1.0" encoding="UTF-8"?>
<svg id="Layer_1" xmlns="http://www.w3.org/2000/svg" version="1.1" viewBox="0 0 210.8 367.1">
  <!-- Generator: Adobe Illustrator 30.5.0, SVG Export Plug-In . SVG Version: 2.1.4 Build 102)  -->
  <path d="M19.8,157.2c-3.9.4-6.5-5.6-5.2-10.3l1.8-6.6c.9-3.4,1.1-6.8.7-10.5,4.4,6.1.2,12.9-.1,18.7,0,1.8.4,4.9,2.5,5.2,1.4.2,2.2-2.7,2-3.9l-.8-8.3c2.2,1.5,2.9,4.6,3.3,7.4.6,3.9-1.1,8-4,8.3h0Z"/>
  <path d="M37.7,281.2c.5-.9,1.2-2,.6-3.3-.3-.8-1-1.8-2.2-2.1l-4.2-1v10.5c0,0,4,1.1,4,1.1.9.2,2.3.1,2.7-.9.8-1.7-.1-3.1-.9-4.3h0ZM33.9,277.5c.7-.2,2.5.2,2.6,1.4,0,1.3-1.4,1.1-1.9.9-.8-.4-1-1.1-.6-2.3ZM36.7,283.9c-.4.7-2.1.4-2.6-.1-.3-.3-.6-1.3-.2-1.9.5-.6,2.2,0,2.7.7.4.5.3,1,.1,1.3Z"/>
  <path d="M36.7,123.8c2.9.9,3.7-5,1.9-10.1,3.6,4.1,4.5,10.9,0,12.9-1.3.6-2.7.2-3.6-.5-3.8-2.9,0-10.1,1.1-9.2.9.7-2.4,6,.6,6.9h0Z"/>
  <path d="M45.9,284.9c1.7-1,2-2.5,1.6-4.4-.3-1.4-1.5-2.5-3.2-2.9l-3.8-.7v10.2c0,.5,1.4.9,1.9.7,0-1-.2-2.1.2-3.2,0-.2,1-.1,1.2.2,1.4,2.3,1.1,4.3,4.2,4.1l-2-4.1h0ZM44.9,282.6c-.6.4-2,0-2.3-.4-.5-.8-.2-1.8-.2-2.7.9,0,1.8.2,2.6.7.6.4.7,1.8,0,2.4Z"/>
  <path d="M41,77c0-2.3,1.7-4.6,4-4.8-1.2,1.5-2.7,2.9-2.1,4.7.4,1.5,2.2,2.2,3.5,1.8,3.4-.9,2.4-4.5,3.5-4.5.4,0,.9.3,1.1.9.8,3.1-4.3,6.5-7.3,5.3-1.2-.5-2.6-1.6-2.7-3.4Z"/>
  <path d="M51.6,281.3c-.4.4-.3,1.9.1,2l3.7.7c.1.6.2,1.1,0,2l-3.9-.5c-.2.5-.3,2,.2,2.1l4.1.9c.4.3.3,1.5,0,2l-6.7-1.1v-10.8s6.5,1.1,6.5,1.1c.4.3.4,1.4.2,2l-4.3-.5h0Z"/>
  <path d="M57.8,302.6c-.1-.4-1.6-.6-1.7-.2l-2.8,7.2c.2.5,1.4.6,1.6.3l.7-1.1c.8-.6,2.4-.3,2.8.5.3.5.3,1.1.6,1.2.3.2.9.4,1.6.1l-2.8-8ZM56.3,306.8c0-.7.2-1.3.6-2l.8,2.2c-.4.4-1.4.1-1.5-.2Z"/>
  <path d="M63.2,230.8c-2.5-1.4-5.5-1.5-7.8.3-3.2,2.5-3,10.3,1.5,12.7,2.3,1.2,5.3,1.6,7.6-.1,3.6-2.7,3.4-10.4-1.3-12.9ZM60.8,242.3c-.9.2-2-.2-2.6-1.2-1.8-3.3-1.1-9.1,1.9-8.6,3.6.5,3.4,9.2.7,9.8Z"/>
  <path d="M66.5,310c.3.1.3,1.1.1,1.5l-5-.6v-7.9c.6-.2,1.1-.1,1.7,0v6.3s3.2.6,3.2.6h0Z"/>
  <path d="M65.9,321.6c-3-.5-5.4,1.5-5.6,4.5-.2,3.9,2.9,7.4,7.1,6.6,2.2-.4,3.3-2.5,3.4-4.5.2-3.3-1.8-6.2-5-6.7h0ZM67.5,330.2c-.7.6-1.7.8-2.6.3-2.1-1.1-2.8-4.5-.9-6.1,1.1-.9,2.4-.4,3.2.3,1.7,1.4,1.5,4.5.3,5.5h0Z"/>
  <path d="M66.1,291.8l-2-6.4-1.9,5.8c-.3.5-2,.2-2.2-.3l-2.9-11c.9,0,1.6,0,2.4.4l1.8,6.6,1.9-6.2c.5-.2,1.9,0,2,.5l2,6.8,1.7-6.5,2.7.3-3.2,10.2c-.2.5-2.1.5-2.3-.1Z"/>
  <path d="M73.6,311.4c-1.2,1.2-3,1.1-4.4.3-1.2-.7-2-2-2.1-3.6-.1-1.5.4-2.9,1.5-3.6,2.2-1.5,5.5.2,4.9,1.3-.8,1.5-2-.8-3.6,0-1.2.6-1.3,3-.2,4.3,1.2,1.3,2.4-.2,3.2.1.3.1,1,.9.7,1.2h0Z"/>
  <polygon points="76.5 312.6 74.6 312.6 74.7 310.6 76.6 310.6 76.5 312.6"/>
  <path d="M77.8,258.8c.2-1.7-4-1.1-4.2-3.8-.1-1.3.8-2.5,2.3-2.6,1.2-.1,2.6.2,3.4,1.1.3.4-.3,1.1-.6,1.2-.4.2-3.6-1.5-3.2,0,.4,1.5,4.7,1,4.2,4.3-.1,1.1-1.2,2-2.7,1.9-1.5,0-2.8-.8-3.8-1.5.3-.6.5-1,1.1-1.3.8.8,2.6,1.6,3.4.7h0Z"/>
  <path d="M80,334.3l-7.2-.7v-10.8c.9-.2,1.5-.1,2.4.1v8.7s4.6.6,4.6.6c.5.1.4,1.7.2,2.1h0Z"/>
  <path d="M80.2,291.3c.4.4.3,1.3.1,2l-7.5-.6v-10.9l7.3.6c.2.7.2,1.3,0,2.2l-4.8-.4c-.2.7-.2,1.4,0,2.2l4.2.4v2c0,0-4.3-.3-4.3-.3-.2.9-.2,1.5.1,2.2l4.7.5h0Z"/>
  <path d="M82.3,244.6l-1.3-.8-2.6-4.1c2-1,2.7-2.7,2.3-4.7-.3-1.6-1.7-3.1-3.6-3.3l-8.8-.7c-.4,0-.4,1.4-.2,1.8.2.3.8.6,1.2.9v9.4c-.9,0-1.2.5-1.3.8-.1.4,0,1.3.4,1.3l6.3.5c.6-1.1-.4-2-1-2.5-.5-.4-.6-2.3-.1-2.8,1.7-1.7,2.3,4,4.2,5.3,1.1.8,2.9.6,4.2.6.4,0,.6-1.6.2-1.8h0ZM76.5,237.1c-.4.8-2.1,1.6-2.8.6-.6-.9-.4-2.8,0-3.5.8-.6,2.2,0,2.7.6.5.7.6,1.6.2,2.4h0Z"/>
  <polygon points="81.4 252.8 83.3 252.8 83.2 261.2 81.4 261.2 81.4 252.8"/>
  <path d="M88.9,234.8v9.4c0,0,1.2.6,1.2.6.3.2.4,1.1.2,2l-6.3-.2c-.6,0-.7-1-.6-1.4.1-.4.4-.8,1.3-1v-9.6c-.7-.2-1.1-.6-1.2-.9-.2-.4-.1-1.6.3-1.6l6,.2c.5,0,.6,1,.5,1.4-.1.4-.7.8-1.4,1.1h0Z"/>
  <path d="M90.5,324.1v7.2c0,2.5-2.1,3.8-4.4,3.7-2.7,0-4.8-1.6-4.8-4.5v-7c.9,0,1.6,0,2.5.1v6.9c0,1.1.8,1.8,1.5,2.1.8.3,2.4.1,2.5-1l.2-7.5c.8-.1,1.5-.1,2.5,0h0Z"/>
  <path d="M91.7,287.4c-.3-2.1-2-4.1-4.5-4.3l-4.9-.4v10.7c2.3.3,4.5.8,6.6,0,2.5-1,3.2-3.5,2.9-5.9h0ZM89,289.7c-.2,1.8-3.4,2.8-4,1.5-.8-1.8,0-4.1-.3-6,1.2-.2,2.5,0,3.2.7,1.1.9,1.2,2,1.1,3.8h0Z"/>
  <path d="M74.8,81.9c-1-1.3.6-2.3,1.3-2.9l1.1-8.4c-.6-.4-1.3-.7-1.3-1.2,0-.5,0-1.7.6-1.6l6.6.5c.4.2.2,1.3,0,1.8-.2.4-.8.6-1.2.8-.4,1.2-.4,2.2-.5,3.6l4.4-3.6c-.5,0-1.1-.4-1.1-.8,0-.6,0-1.1.3-1.9l6.7.3c0,.8,0,1.2-.1,1.8,0,.5-.8.4-1.3.8l-3.9,2.9,3.4,5.9c.3.6,1.2.6,1.3.9.2.6,0,1.3,0,2.1l-7.7-.5c-.4,0-.4-1.3-.2-1.6.1-.3.7-.7,1.1-1.1l-1.8-3.3c-1.4.5-2.2,2.4-1.2,3.4.6.5,1.1,2.1.3,2.4-2.1.3-4.9-.1-6.8-.5h0Z"/>
  <path d="M92.4,253.4v8c-.3.4-1.5.2-1.9-.3l-3.3-4.6-.2,4.7c-.6.2-1.2.2-1.9,0v-8.1c.4,0,1.2-.1,1.6,0l3.7,4.8v-4.6c.7-.1,1.2-.2,2,0Z"/>
  <path d="M93.8,311.1l-2.1-.3v-9.7s-3.3,0-3.3,0l-7.6,9.6c-.4.6,0,2.4.5,2.7l6.8.5.2,3.5h3.4c0,.1,0-3.3,0-3.3h2.1c.1-1,.2-1.9,0-2.9ZM84.7,310.6l3.5-4.7v4.8c0,0-3.5-.1-3.5-.1h0Z"/>
  <path d="M99.4,314c.3,1.2.2,2.3,0,3.5h-3.7c-.3-1.2-.3-2.4,0-3.7,1.2-.2,2.4-.2,3.6.2Z"/>
  <polygon points="100.5 294.3 98 294.3 98 283.4 100.6 283.4 100.5 294.3"/>
  <path d="M100.8,324.4c.1.7.2,1.3,0,2.2h-3.1s0,8.6,0,8.6c-.8.1-1.7.1-2.6-.1v-8.5c0,0-3-.2-3-.2-.1-.7-.2-1.4,0-2.2l8.7.2h0Z"/>
  <path d="M96.8,255.8c-.9.9-.9,2.5-.1,3.5,1,1.2,2.7,1.1,3.8.1.4,0,1.1.7,1.2,1.2-1.5,2-4.4,1.8-6.2.3-1.7-1.5-2-4.5-.2-6.2,1.7-1.6,4.6-1.5,6.3,0,.2.3-.5,1.3-1.1,1.4-1.2-.9-2.7-1.2-3.8-.2h0Z"/>
  <path d="M99.6,68.4c-4.3,0-7.8,3.5-7.8,7.8s3.5,7.8,7.8,7.8,7.8-3.5,7.8-7.8-3.5-7.8-7.8-7.8ZM99.5,81c-2.5,0-3.2-4.5-2-8.1.3-1,1.1-1.7,2.1-1.7.8,0,1.8.5,2.2,1.5,1.1,3.2.6,8.3-2.2,8.2Z"/>
  <path d="M97.1,236.2c-1.7,2.9-1,7.9,1.6,8.6.8.2,1.8.2,2.5-.5.4-.4.5-1.5,0-2.2l-1.3-.4c-.4-.1-.3-1.1-.2-2h6.4c.8.5-.2,2.2-.8,2.5l-.2,3.9c-.5,1.4-2.2.9-3.2,1.1-2.5.3-5.3.7-7.4-1.1-3.3-2.8-3.6-8.1-.9-11.4,1.4-1.7,3.5-2.5,5.6-2.3l5.5.6v4.4c-.8.3-1.7.3-2.7,0-.2-1.3-.8-2.3-2-2.5-1-.1-2.4.2-3,1.3h0Z"/>
  <path d="M103.1,253.6h6.2c.2.4.2,1,0,1.6h-4.3v1.5h3.9c0,0,0,1.7,0,1.7h-3.7c-.1.4-.2.9-.1,1.6h4.2c.4.1.4,1.7,0,1.7h-6.1c0,0,0-8.1,0-8.1h0Z"/>
  <path d="M110.2,323.5l-6.2,13.4c-.5.5-1.9.3-2.4.1l6.2-13.4c.5-.4,1.7-.4,2.4,0h0Z"/>
  <path d="M105.5,288.1v6.3c0,0-2.5,0-2.5,0v-10.5c.3-.6,2-.6,2.4,0l4.5,6v-5.9c.5-.5,1.6-.5,2.4-.2v10.5c-.4.4-1.8.5-2.2,0l-4.6-6.1h0Z"/>
  <path d="M110.9,316.9c-3.2,1.9-7,1-9.4-1.3.6-1.1,1.2-1.9,2.2-2.5,1.1.9,2.2,1.5,3.6,1.5,1.5,0,2.4-1,2.4-2.3-.1-4.1-6.5,0-7-3.1l.2-7.8h9.6v3.1s-6.3.1-6.3.1c-.3.9-.3,1.8-.1,2.7,2.1-.5,4.5-.4,6,1.4,2,2.3,1.7,6.5-1.1,8.2Z"/>
  <path d="M114.6,109.2c0-.7-1.4-.6-1.8-.3-1.2.8-2.2,1.5-3.6,1.9-1-1.3-2.1-3.7-4-3.7-1.8,0-3.2,2.3-3.7,3.8-1.6-.3-2.5-1.3-3.9-2-.5-.3-1.6-.1-1.6.5.3,2.5,1.8,4.2,2.7,6.4.2.6-.2,2,.5,2.6.5.4,1.3.9,2.3.9h8.6c.9,0,1.5-1,1.8-1.5.3-.6,0-1.3-.4-2,1.5-1.9,2.8-4.1,3-6.5h0ZM108.7,114.8l1,1.6h-8.9s.8-1.2.8-1.2c-.5-.7-1.5-1.2-1.6-2.3.8.4,2.1.8,2.6.1.9-1.2,1.3-2.8,2.5-3.9l2.5,3.7c.6.8,1.8.3,2.9-.3,0,1-.9,1.7-1.9,2.3h0Z"/>
  <path d="M113.1,235.1l.2,9.4,1.3.8c.2.2.2,1.6-.2,1.6l-6.2.3c-.5,0-.6-1.2-.4-1.6.1-.4.8-.7,1.4-1v-9.4c-.1,0-1.4-.9-1.4-.9-.3-.2-.2-1.6.2-1.6h6.5c.3.1.3,1.1.2,1.4-.1.4-.5.8-1.4,1h0Z"/>
  <path d="M114,254.2c1-.7,2.1-.9,3.4-.9v8.1c-.3.4-1.3.3-1.8,0v-5.9c-.1,0-1.4-.2-1.4-.2-.3,0-.6-1.1-.3-1.3h0Z"/>
  <path d="M120.3,329.4c.6-1.1,1.3-2.3.6-3.6-.4-.7-1.3-1.4-2.5-1.4h-5.8v11l6.6-.4c1.5,0,2.3-1.4,2.6-2.5.3-1.4-.8-2.3-1.5-3.2h0ZM115.2,326.8c.5-.6,2.3-.5,3,0,.8.5.4,1.1.2,1.4-.6.7-2.5.8-3,.6-.4-.2-.5-1.5-.1-1.9h0ZM118.4,332.9c-1.1.3-2.2.3-3.2.2-.2-.9-.2-1.6,0-2.4h2.7c.6,0,1,.4,1.1.8.1.4,0,1.1-.8,1.4h0Z"/>
  <path d="M109.5,72c-.5-.7-2-2.1-.9-2.9l12.8-.5.5,5.6c-.7.3-1.4.2-2.3.1,0-2-1.5-3.2-3.4-3.1-.5,0-1.5-.2-1.7.3-.3.9-.2,2.3,0,3.1,0,.3,1.1.2,1.3,0,.2-.3.2-.7.5-1.3.2-.4,1.1-.5,1.7-.2l.3,5.9c-.6.2-1.3.2-1.5.1-.6-.2-.5-1.3-.9-1.7-.2-.2-.7-.3-1.4-.1,0,1-.2,2.2.3,3.3l1.4.7c.3.2.2,1.2,0,2.1h-7.6c-.1-.5-.1-1.3,0-1.8,0-.4.5-.6,1.3-.9,0-2.5.3-6.3-.3-8.7h0Z"/>
  <path d="M119,301.1c-2.1,0-3.7,1.5-4,3.8-.3,2.4,1.2,4.6,3.6,4.6,2.1,0,3.9-1.6,4-4.1.1-2.5-1.4-4.2-3.6-4.3h0ZM118.8,307.3c-1.2,0-1.5-1.4-1.4-2.3.1-.9.5-1.5,1.2-1.6.7,0,1.3.4,1.5,1.5.2,1-.3,2.4-1.3,2.4Z"/>
  <path d="M124.7,257.3c.2-.9,1-2,.3-2.9-.7-.9-1.6-1.4-2.9-1.2-1.1.1-2.1.6-2.6,1.6-.4.8-.3,1.8.7,2.6-.7.6-1.1,1.2-1.1,1.9,0,.9.3,1.6,1.1,2.1,1.4.8,3.4.7,4.7-.4,1.4-1.2.7-2.5-.1-3.6ZM122.3,254.5c.6,0,1.1.5,1.1,1.1s-.5,1.1-1.1,1.1-1.1-.5-1.1-1.1.5-1.1,1.1-1.1ZM123.7,259.5c-.1.5-.5.6-1.2.7-.8,0-1.6-.4-1.4-1.2.2-.8,1.4-1,2.1-.6.5.3.6.8.5,1.1h0Z"/>
  <path d="M126.6,283c.3.7.3,1.4,0,2.2l-4.9.3c-.3.5-.3,1.7,0,2.1,1.3.5,2.7,0,4.2,0,.4.4.3,1.6,0,2.1l-4.4.2v4.1c-.9.2-1.6.3-2.6.1v-10.8s7.5-.4,7.5-.4h0Z"/>
  <path d="M129.9,253v8.2c-.3.3-1,.4-1.8.2l-.2-6.4c-.4.2-1,.4-1.2.3-.3-.1-.4-.8-.5-1.3,1-.5,2.2-1,3.6-1h0Z"/>
  <path d="M127.5,301.1l2.8-.2-10.6,16.3c-.9.3-1.8.4-2.7,0l10.6-16.2h0Z"/>
  <polygon points="131.1 293.7 128.6 293.7 128.6 282.7 131.1 282.7 131.1 293.7"/>
  <path d="M127.2,239.8c.3-1.6.2-3.6,0-5.4-.7-.2-1.3-.4-1.4-.8-.2-.5-.2-1.6.3-1.6l5-.2c.3,0,.4,1,.3,1.4-.1.4-.4.8-1.3,1v12.1c-1.3.3-2.3.3-3.4.2l-6.1-8.9.2,6.7c.6.3,1.2.5,1.4.8.2.4.2,1.6-.2,1.6l-5.4.2c-.2-.6-.2-1.3-.1-1.7.1-.4.7-.6,1.2-.9v-9.4c-.8-.2-1.2-.5-1.4-.9-.2-.5-.1-1.6.3-1.6l5.3-.2,5.4,7.5h0Z"/>
  <path d="M131.4,332.3c.2.7.1,1.3,0,2.1l-7.9.6v-10.9c0,0,7.4-.6,7.4-.6.5.4.5,1.5.2,2.2l-5,.5c-.4.4-.2,1.6,0,2l4.4-.3c.2.6.2,1.5,0,2l-4.4.4c-.2.7-.2,1.3,0,2.2l5.2-.2h0Z"/>
  <path d="M129.9,309.3c-1.2-.6-2.6-.6-3.9.2-2.1,1.5-2.5,4.8-.7,6.7,1.2,1.3,3.2,1.2,4.5.5,1.3-.8,2-2.2,2-4,0-1.7-.8-2.9-1.9-3.4ZM127.6,315.1c-1.3-.5-1.2-2.7-.4-3.5.5-.5,1.1-.5,1.5-.2.4.3.6.7.7,1.6.2,1.1-.5,2.7-1.8,2.2Z"/>
  <path d="M122.7,70.4c-.2-.4-.2-1.7.2-1.7l12.5-.9.6,5.5c-.7.2-1.2.3-1.9.2-.4-.9-.7-2.2-1.7-2.7-1.1-.5-2.5-.3-3.7,0-.1,1.2,0,2.4.2,3.4.3.2,1,0,1.2-.1.2-.2.5-.7.5-1.2,0-.8,1.8-.9,1.9-.4l.4,5.5c0,.5-1.7.6-1.9,0l-.5-1.3c-.1-.3-1.1-.4-1.3-.1-.5,4.2,1.7,3.6,1.9,4.3.1.4.2,1.6-.2,1.7l-7,.3c-.5,0-.6-1.3-.4-1.7.1-.4.6-.7,1.1-1.1l-.7-8.9c-.4-.3-1.1-.6-1.2-.9h0Z"/>
  <path d="M137.4,253.6c-1-1.5-3-1.3-4.2-.6-1.4.8-2.1,2.5-1.4,4,.7,1.5,2.8,1.5,4.1.8.1.9-.5,1.3-1,1.5-.5.2-1.4,0-2.2-.3-.4,0-.8.9-.9,1.5,1.5.9,3.9,1,5.2-.6,1.3-1.7,1.5-4.5.3-6.3ZM134.8,256.7c-.7,0-1.3-.6-1.3-1.3s.6-1.3,1.3-1.3,1.3.6,1.3,1.3-.6,1.3-1.3,1.3Z"/>
  <path d="M135.8,331.9l5.3-.6v2.2l-7.8.9v-11.1c0,0,7.6-.7,7.6-.7.1.6.2,1.3,0,2.1l-4.9.5c-.2.7-.3,1.2-.1,2.2l4.3-.4c.3.3.5,1.8,0,2-1.4.7-2.8.4-4.1.6-.3.8-.2,1.5-.1,2.3h0Z"/>
  <path d="M140.3,292.5l-4.5-5.7v6.1c-.8.4-1.5.4-2.4.3v-10.5c.3-.5,1.8-.7,2.2-.3l4.4,5.5v-6c.8-.3,1.4-.4,2.4-.3v10.3c0,.6-1.8.9-2.1.5h0Z"/>
  <path d="M140.3,304.2c-.2-.5-1.7-.2-1.9.3l-2.8,7.9c.6.3,1.6.3,1.8-.1l.6-1.4c.6-.4,2.1-.8,2.9-.2.3.2.3,1.4.8,1.3l1.5-.3-3-7.6h0ZM138.7,308.8c.2-.8.3-1.6.9-2.1l.6,1.9c0,.4-1,.7-1.4.3Z"/>
  <path d="M145.7,242.7l-4.4-11.6-3.9.5-4.4,12.2c-.3.7-1.9,1-1,2.7l5.2-.5c.4,0,.4-1.2.2-1.4l-1.1-.9c-.3-.3.1-1.5.6-1.6,1.1-.3,2.4-.6,3.7-.3.5.1.7,1.1.6,1.7-1,0-1.4,2.2-.7,2.2l6.4-.3c.6-1.1,0-2.2-1.1-2.7h0ZM137.4,239.5l1.3-4,1.4,3.9h-2.7Z"/>
  <path d="M25.6,88.8c-5.7-2-13.7-4.3-16.8-8.7-.5-.7-.8-1.6-.4-2.4l3.5,2.2c4.9,2.5,10,4.5,15.3,6.1l3.2-3.3c.5-.5,1.2-.5,1.5-.1,1.3,1.8-4.3,2.5-3.6,8.5.1,1,.5,1.8,1.4,2.2,2.5,1.2,5.8-4.8,9.4-4.2,17,3.3,33.7,6,51,6.5l32.5.9c11,.3,21.1-1.1,31.9-2.8-5.4,2.2-11.1,2.6-17,3.4-13.2,1.7-26.1,1.9-39.4,1.7-20.1-.3-39.8-2.3-59.4-6.6-4.5-1-3.7,4.5-8,4.8-1.8.1-3.6-.9-4.5-2.6-.9-1.6-.7-3.5-.6-5.5h0Z"/>
  <path d="M144.2,303.9c.4-.3,1.1-.4,1.6-.3v6.4c.1,0,3.4-.4,3.4-.4.2.4.2,1.3,0,1.6l-5,.6v-7.9Z"/>
  <path d="M149.3,328.4c2.3-1.4,2.4-4.7.9-6-.6-.5-1.5-.9-2.4-.7l-5.1.6v10.9c.8.1,1.6,0,2.4-.2l.2-3.4c1.9-1.1,2.2,2,3.3,2.7.8.5,2,.1,2.8-.3l-2.2-3.6h0ZM148.1,326.6c-.9.6-1.9.7-2.8.7,0-.9-.3-2.1.1-2.9.4-.5,2-.6,2.6-.3,1,.5,1,1.8,0,2.5Z"/>
  <path d="M151.4,291.5l-6.7.8v-10.9c.7-.2,1.5-.3,2.3-.1v8.5l4.4-.4c.4.3.3,1.7,0,2.1h0Z"/>
  <path d="M148.8,121.1c1.7-2.7,3.9-5.3,1.9-6.1-2.9-1-5.8-1-8.8-1l2.1-5.2c.2-.5.1-.9-.1-1.1-.2-.2-.8-.3-1.2-.2-5.8,1.9-11.3,3.5-16.9,6-8.2,3.7-15.2,9.4-21.1,16.6-4.6-7.1-14.3-14.9-22.4-17.6l-14.6-4.9c-.5-.2-1.5.2-1.4.7l2.1,5.9c-3.3,0-6.2,0-9,1.3,0,2.2,1.4,3.8,2.7,5.6-2.8,3.9-6.2,8.2-5.3,12.4l3.7-.9c-4.8,10.9-4.4,21.9,5.7,29.2,1.6-1.9,2.9-3.6,5.2-4l.5,10.4c4-1,7.8-2,12-1.6,6.4.7,12.3,2.5,18.1,5,.8.4,1.9,1,2.7.7,1.1-.3,1.9-1.3,2.7-1.9,1.5.3,2.9,0,4.4-.5l7.6-2.4c6.3-1.6,12.5-1.5,18.9.4l.5-10.1c2.4.2,3.7,2,5.4,3.9,10.2-6.7,10.8-18.5,5.8-29.3,1.5.3,2.6.9,4.2.7.2-4.4-2.6-8.4-5.4-12.1h0ZM59.8,129.1c1-2.9,3.1-4.6,4.6-6.8,1.9-2-.6-2.7-1.9-5.2,2.9-.5,7.2-.3,8.1,1.3.4.7.8,1.8,0,2.4l-5.8,4.9c-1.7,1.2-3,2.8-5.1,3.4h0ZM64.4,156.4c-6.4-6.9-5-17.3-.2-25.2,1-1.6,2.9-2.5,4.8-2.1-1.7,4.2-3.7,7.9-4.8,12-1.5,5-1.3,9.8.2,15.3h0ZM73.5,137.5c-2.5,1.4-4.6,3.1-6.4,5.3.3-5.8,3.5-5.4,6.4-8.2,1-.8,1.3-1.9,1.4-3.3,1.6,2.1.9,4.9-1.4,6.2h0ZM81.6,147.2l-3.8,8.6c-1,2.4-1.1,4.6-1,7.5,0,.6-1.5.9-2.1.8-.9-5.1.4-9.8,3-14.2l3.5-5.8c1.4-2.3,1.2-5,1.5-7.6,1.5,3.7.3,7.4-1.1,10.7ZM74.1,115.1c-1.8-.6-2.9-2.3-3.8-4.2,4.3,1.3,8.5,2.8,12.8,4.6,5.5,2.4,10.6,5.4,14.7,10.3-3.1-1.6-5.7-3.7-9-5-4.8-2.5-9.7-4.2-14.8-5.8ZM100.8,137.1c-.4,1.1-.7,1.8-1.6,2.6-1.6-4.9-4.7-8.4-7.4-12.9,3.8,2.8,6.3,6.5,9,10.3h0ZM109.2,157l-.5,11.4c-.4,1-1.1,1.7-1.8,1.6-.8-.1-1.3-.9-1.4-1.9-1.4-13.8,3.2-27.9,13-37.9-5.1,8.5-8.6,17.1-9.3,26.9h0ZM119.4,122.9c-6.9,5.2-12.2,11.6-16.6,19-4.1,7-6.4,14.7-7.4,23,0,.6-.4.8-.8.7-.2,0-.4-.4-.5-.8-.5-12.1,5.8-25.2,13.3-34.7,5.4-6.9,12.4-11.9,20.5-15.1l12.1-4.3c-1.1,2.9-3.5,4.2-6.2,5.1-5.2,1.7-10.1,3.7-14.6,7.1h0ZM133,163.4c.3-4-.4-7.6-1.9-11.3l-3.3-8c-1.1-2.6-1.2-5.5,0-8-.1,3.6.5,6.5,2.1,9.4l3.7,6.5c2.5,5.7,3.4,13.7-.8,11.4ZM143.3,143.1c-.8-1.4-1.8-2.5-3.3-3.5l-3.8-2.5c-2.2-1.4-2.7-4.3-.9-6.3.2,2,.8,3.3,2.2,4.3l4,2.6c1.2,1.4,2,3.1,1.8,5.4h0ZM145.6,156.9c2.7-7.4,2.3-14.8-1.4-21.5l-3.1-6.4c2.1-.7,4.2.5,5.4,2.3,5.1,8.1,6,18.2-.9,25.6ZM145.2,125.2l-4.9-3.9c-.8-.6-1-1.3-1-2.2.2-2.8,4.6-2.3,8.9-2l-2.6,3c-1.5,1.7,3.4,3.9,5.1,8.8-2.2-.8-3.8-2.2-5.6-3.7Z"/>
  <path d="M156.2,309.1c0,.5-2.1,2.5-4.6,1.5-2-.8-2.6-5.2,0-7.2,1.3-1,3.1-1.4,4.5-.3.3.2-.3,1.2-.7,1.3-.4.1-1-.2-1.6-.2-1.5,0-2.3,1.8-2,3.2.2.9.5,1.4,1,1.6,1.4.6,2.2-1.2,2.9-.8.2.1.6.5.6.8h0Z"/>
  <rect x="157" y="307.9" width="1.8" height="2.1" transform="translate(-7.2 3.8) rotate(-1.3)"/>
  <path d="M152.9,232.6v9.4c1.1,0,2.2,0,3.1-.6.6-.4.6-1.5.8-2.2.1-.6,1.7-.8,1.9-.4.5,1.5.4,3,.3,5.1l-10.8,1.1c-1.2-.6.3-2.1.6-2.8l.2-8.9-1.2-.8c-.3-.2-.3-1.7,0-1.7l6.4-.8c.2.6.2,1.4,0,1.8,0,.4-.8.6-1.4.8h0Z"/>
  <path d="M158.3,279.7c-.8-.1-1.5,0-2.3.3l-3.7,11.2c1.1.1,2.2.1,2.4-.5l.7-1.8c.6-.7,2.9-1.2,3.6-.6.3.8.6,1.7,1.1,1.7.6,0,1.2-.1,1.9-.4l-3.8-10h0ZM156.2,286.1l1-3.1,1.1,2.8c-.6.2-1.2.3-2.1.3h0Z"/>
  <path d="M171,277.4v10.2c0,.4-1.4.8-1.8.5l-3.7-5.1-.3,5.9c0,.5-1.5.6-2,.5v-10.3c0-.5,1.6-.8,1.9-.4l3.8,5v-5.6c.1-.5,1.4-.8,2-.6h0Z"/>
  <path d="M171.1,235.5c-4.9,24.1-26.8,35.5-49.5,39.7l-16,3.6c-5-1.5-9.8-2.6-15-3.5-14.4-2.6-27.9-8.2-38.5-18.4-5.8-5.6-9.7-12.5-11.6-20.4,0-.3,0-.7,0-.9,0-.1.3-.2.5-.2,1,.3,2.6,9.6,10.9,17.6,10.4,10,22.6,15,36.7,17.7l10.8,2.1,5.5,1.6,14.1-2.9c7.9-1.6,15.5-3.3,23-6.4,13-5.4,23.3-14.4,27.4-28.1.2-.8.6-1.7,1.8-1.5h0Z"/>
  <path d="M164.9,102.2c3.2,2.4,3.9,6.4,3.9,10.1l-.5,7.4c-.1,1.4.1,3.4,1.4,4.2,1.2.8,2.6-.5,3.2-1.6,2.3-5.2-2-10.2-.3-14.9,1.7,6.2,5.7,12.2,1.9,17.7-1.1,1.7-2.9,2.6-4.8,2.3-4.2-.6-4.9-5.8-3.7-10.7,1.2-4.9.7-9.4-1.1-14.3h0Z"/>
  <path d="M173.9,142.3c-1.7,3.5-.6,6.4.5,5.9,1.4-.6,1.1-2.7,1.4-4.1,2.3,1.3,1.4,6-.7,6.7-1,.3-2.1,0-2.8-.9-2.1-2.5-1.2-6.1,1.6-7.7Z"/>
  <path d="M179.7,277.8c-.5-1.3-1.8-2.1-3.2-1.8l-3.7.8v10.6c1.5-.3,3.2-.5,4.7-1.5,2.7-1.8,3.3-5.3,2.2-8.1ZM175,284.7v-6.1c.2-.6,1.7-.6,2.1-.3.6.4,1.1,1.1,1.1,2,.1,2-.5,4-3.2,4.5Z"/>
  <path d="M95.3,191c-1-3.7-3.7-5.9-7.2-6-3.6,0-6.3,2.1-7.4,5.8-1.6,5.8-1.5,12.2.2,18,1,3.5,3.8,5.7,7.6,5.7,3.4,0,5.7-2.1,6.6-5.2,1.8-5.9,1.7-12.4.2-18.4h0ZM88.5,210.9c-1.4.1-2.8-.9-3.3-2.6-1.6-6-1.8-17.9,2.6-18.1,1.6,0,3.1.8,3.6,2.6,1.5,5.7,1.7,17.8-2.9,18.1h0ZM95.3,191c-1-3.7-3.7-5.9-7.2-6-3.6,0-6.3,2.1-7.4,5.8-1.6,5.8-1.5,12.2.2,18,1,3.5,3.8,5.7,7.6,5.7,3.4,0,5.7-2.1,6.6-5.2,1.8-5.9,1.7-12.4.2-18.4h0ZM88.5,210.9c-1.4.1-2.8-.9-3.3-2.6-1.6-6-1.8-17.9,2.6-18.1,1.6,0,3.1.8,3.6,2.6,1.5,5.7,1.7,17.8-2.9,18.1h0ZM95.3,191c-1-3.7-3.7-5.9-7.2-6-3.6,0-6.3,2.1-7.4,5.8-1.6,5.8-1.5,12.2.2,18,1,3.5,3.8,5.7,7.6,5.7,3.4,0,5.7-2.1,6.6-5.2,1.8-5.9,1.7-12.4.2-18.4h0ZM88.5,210.9c-1.4.1-2.8-.9-3.3-2.6-1.6-6-1.8-17.9,2.6-18.1,1.6,0,3.1.8,3.6,2.6,1.5,5.7,1.7,17.8-2.9,18.1h0ZM95.3,191c-1-3.7-3.7-5.9-7.2-6-3.6,0-6.3,2.1-7.4,5.8-1.6,5.8-1.5,12.2.2,18,1,3.5,3.8,5.7,7.6,5.7,3.4,0,5.7-2.1,6.6-5.2,1.8-5.9,1.7-12.4.2-18.4h0ZM88.5,210.9c-1.4.1-2.8-.9-3.3-2.6-1.6-6-1.8-17.9,2.6-18.1,1.6,0,3.1.8,3.6,2.6,1.5,5.7,1.7,17.8-2.9,18.1h0ZM95.3,191c-1-3.7-3.7-5.9-7.2-6-3.6,0-6.3,2.1-7.4,5.8-1.6,5.8-1.5,12.2.2,18,1,3.5,3.8,5.7,7.6,5.7,3.4,0,5.7-2.1,6.6-5.2,1.8-5.9,1.7-12.4.2-18.4h0ZM88.5,210.9c-1.4.1-2.8-.9-3.3-2.6-1.6-6-1.8-17.9,2.6-18.1,1.6,0,3.1.8,3.6,2.6,1.5,5.7,1.7,17.8-2.9,18.1h0ZM95.3,191c-1-3.7-3.7-5.9-7.2-6-3.6,0-6.3,2.1-7.4,5.8-1.6,5.8-1.5,12.2.2,18,1,3.5,3.8,5.7,7.6,5.7,3.4,0,5.7-2.1,6.6-5.2,1.8-5.9,1.7-12.4.2-18.4h0ZM88.5,210.9c-1.4.1-2.8-.9-3.3-2.6-1.6-6-1.8-17.9,2.6-18.1,1.6,0,3.1.8,3.6,2.6,1.5,5.7,1.7,17.8-2.9,18.1h0ZM95.3,191c-1-3.7-3.7-5.9-7.2-6-3.6,0-6.3,2.1-7.4,5.8-1.6,5.8-1.5,12.2.2,18,1,3.5,3.8,5.7,7.6,5.7,3.4,0,5.7-2.1,6.6-5.2,1.8-5.9,1.7-12.4.2-18.4h0ZM88.5,210.9c-1.4.1-2.8-.9-3.3-2.6-1.6-6-1.8-17.9,2.6-18.1,1.6,0,3.1.8,3.6,2.6,1.5,5.7,1.7,17.8-2.9,18.1h0ZM95.3,191c-1-3.7-3.7-5.9-7.2-6-3.6,0-6.3,2.1-7.4,5.8-1.6,5.8-1.5,12.2.2,18,1,3.5,3.8,5.7,7.6,5.7,3.4,0,5.7-2.1,6.6-5.2,1.8-5.9,1.7-12.4.2-18.4h0ZM88.5,210.9c-1.4.1-2.8-.9-3.3-2.6-1.6-6-1.8-17.9,2.6-18.1,1.6,0,3.1.8,3.6,2.6,1.5,5.7,1.7,17.8-2.9,18.1h0ZM95.3,191c-1-3.7-3.7-5.9-7.2-6-3.6,0-6.3,2.1-7.4,5.8-1.6,5.8-1.5,12.2.2,18,1,3.5,3.8,5.7,7.6,5.7,3.4,0,5.7-2.1,6.6-5.2,1.8-5.9,1.7-12.4.2-18.4h0ZM88.5,210.9c-1.4.1-2.8-.9-3.3-2.6-1.6-6-1.8-17.9,2.6-18.1,1.6,0,3.1.8,3.6,2.6,1.5,5.7,1.7,17.8-2.9,18.1h0ZM95.3,191c-1-3.7-3.7-5.9-7.2-6-3.6,0-6.3,2.1-7.4,5.8-1.6,5.8-1.5,12.2.2,18,1,3.5,3.8,5.7,7.6,5.7,3.4,0,5.7-2.1,6.6-5.2,1.8-5.9,1.7-12.4.2-18.4h0ZM88.5,210.9c-1.4.1-2.8-.9-3.3-2.6-1.6-6-1.8-17.9,2.6-18.1,1.6,0,3.1.8,3.6,2.6,1.5,5.7,1.7,17.8-2.9,18.1h0ZM95.3,191c-1-3.7-3.7-5.9-7.2-6-3.6,0-6.3,2.1-7.4,5.8-1.6,5.8-1.5,12.2.2,18,1,3.5,3.8,5.7,7.6,5.7,3.4,0,5.7-2.1,6.6-5.2,1.8-5.9,1.7-12.4.2-18.4h0ZM88.5,210.9c-1.4.1-2.8-.9-3.3-2.6-1.6-6-1.8-17.9,2.6-18.1,1.6,0,3.1.8,3.6,2.6,1.5,5.7,1.7,17.8-2.9,18.1h0ZM95.3,191c-1-3.7-3.7-5.9-7.2-6-3.6,0-6.3,2.1-7.4,5.8-1.6,5.8-1.5,12.2.2,18,1,3.5,3.8,5.7,7.6,5.7,3.4,0,5.7-2.1,6.6-5.2,1.8-5.9,1.7-12.4.2-18.4h0ZM88.5,210.9c-1.4.1-2.8-.9-3.3-2.6-1.6-6-1.8-17.9,2.6-18.1,1.6,0,3.1.8,3.6,2.6,1.5,5.7,1.7,17.8-2.9,18.1h0ZM95.3,191c-1-3.7-3.7-5.9-7.2-6-3.6,0-6.3,2.1-7.4,5.8-1.6,5.8-1.5,12.2.2,18,1,3.5,3.8,5.7,7.6,5.7,3.4,0,5.7-2.1,6.6-5.2,1.8-5.9,1.7-12.4.2-18.4h0ZM88.5,210.9c-1.4.1-2.8-.9-3.3-2.6-1.6-6-1.8-17.9,2.6-18.1,1.6,0,3.1.8,3.6,2.6,1.5,5.7,1.7,17.8-2.9,18.1h0ZM95.3,191c-1-3.7-3.7-5.9-7.2-6-3.6,0-6.3,2.1-7.4,5.8-1.6,5.8-1.5,12.2.2,18,1,3.5,3.8,5.7,7.6,5.7,3.4,0,5.7-2.1,6.6-5.2,1.8-5.9,1.7-12.4.2-18.4h0ZM88.5,210.9c-1.4.1-2.8-.9-3.3-2.6-1.6-6-1.8-17.9,2.6-18.1,1.6,0,3.1.8,3.6,2.6,1.5,5.7,1.7,17.8-2.9,18.1h0ZM95.3,191c-1-3.7-3.7-5.9-7.2-6-3.6,0-6.3,2.1-7.4,5.8-1.6,5.8-1.5,12.2.2,18,1,3.5,3.8,5.7,7.6,5.7,3.4,0,5.7-2.1,6.6-5.2,1.8-5.9,1.7-12.4.2-18.4h0ZM88.5,210.9c-1.4.1-2.8-.9-3.3-2.6-1.6-6-1.8-17.9,2.6-18.1,1.6,0,3.1.8,3.6,2.6,1.5,5.7,1.7,17.8-2.9,18.1h0ZM95.3,191c-1-3.7-3.7-5.9-7.2-6-3.6,0-6.3,2.1-7.4,5.8-1.6,5.8-1.5,12.2.2,18,1,3.5,3.8,5.7,7.6,5.7,3.4,0,5.7-2.1,6.6-5.2,1.8-5.9,1.7-12.4.2-18.4h0ZM88.5,210.9c-1.4.1-2.8-.9-3.3-2.6-1.6-6-1.8-17.9,2.6-18.1,1.6,0,3.1.8,3.6,2.6,1.5,5.7,1.7,17.8-2.9,18.1h0ZM95.3,191c-1-3.7-3.7-5.9-7.2-6-3.6,0-6.3,2.1-7.4,5.8-1.6,5.8-1.5,12.2.2,18,1,3.5,3.8,5.7,7.6,5.7,3.4,0,5.7-2.1,6.6-5.2,1.8-5.9,1.7-12.4.2-18.4h0ZM88.5,210.9c-1.4.1-2.8-.9-3.3-2.6-1.6-6-1.8-17.9,2.6-18.1,1.6,0,3.1.8,3.6,2.6,1.5,5.7,1.7,17.8-2.9,18.1h0ZM95.3,191c-1-3.7-3.7-5.9-7.2-6-3.6,0-6.3,2.1-7.4,5.8-1.6,5.8-1.5,12.2.2,18,1,3.5,3.8,5.7,7.6,5.7,3.4,0,5.7-2.1,6.6-5.2,1.8-5.9,1.7-12.4.2-18.4h0ZM88.5,210.9c-1.4.1-2.8-.9-3.3-2.6-1.6-6-1.8-17.9,2.6-18.1,1.6,0,3.1.8,3.6,2.6,1.5,5.7,1.7,17.8-2.9,18.1h0ZM95.3,191c-1-3.7-3.7-5.9-7.2-6-3.6,0-6.3,2.1-7.4,5.8-1.6,5.8-1.5,12.2.2,18,1,3.5,3.8,5.7,7.6,5.7,3.4,0,5.7-2.1,6.6-5.2,1.8-5.9,1.7-12.4.2-18.4h0ZM88.5,210.9c-1.4.1-2.8-.9-3.3-2.6-1.6-6-1.8-17.9,2.6-18.1,1.6,0,3.1.8,3.6,2.6,1.5,5.7,1.7,17.8-2.9,18.1h0ZM95.3,191c-1-3.7-3.7-5.9-7.2-6-3.6,0-6.3,2.1-7.4,5.8-1.6,5.8-1.5,12.2.2,18,1,3.5,3.8,5.7,7.6,5.7,3.4,0,5.7-2.1,6.6-5.2,1.8-5.9,1.7-12.4.2-18.4h0ZM88.5,210.9c-1.4.1-2.8-.9-3.3-2.6-1.6-6-1.8-17.9,2.6-18.1,1.6,0,3.1.8,3.6,2.6,1.5,5.7,1.7,17.8-2.9,18.1h0ZM95.3,191c-1-3.7-3.7-5.9-7.2-6-3.6,0-6.3,2.1-7.4,5.8-1.6,5.8-1.5,12.2.2,18,1,3.5,3.8,5.7,7.6,5.7,3.4,0,5.7-2.1,6.6-5.2,1.8-5.9,1.7-12.4.2-18.4h0ZM88.5,210.9c-1.4.1-2.8-.9-3.3-2.6-1.6-6-1.8-17.9,2.6-18.1,1.6,0,3.1.8,3.6,2.6,1.5,5.7,1.7,17.8-2.9,18.1h0ZM95.3,191c-1-3.7-3.7-5.9-7.2-6-3.6,0-6.3,2.1-7.4,5.8-1.6,5.8-1.5,12.2.2,18,1,3.5,3.8,5.7,7.6,5.7,3.4,0,5.7-2.1,6.6-5.2,1.8-5.9,1.7-12.4.2-18.4h0ZM88.5,210.9c-1.4.1-2.8-.9-3.3-2.6-1.6-6-1.8-17.9,2.6-18.1,1.6,0,3.1.8,3.6,2.6,1.5,5.7,1.7,17.8-2.9,18.1h0ZM95.3,191c-1-3.7-3.7-5.9-7.2-6-3.6,0-6.3,2.1-7.4,5.8-1.6,5.8-1.5,12.2.2,18,1,3.5,3.8,5.7,7.6,5.7,3.4,0,5.7-2.1,6.6-5.2,1.8-5.9,1.7-12.4.2-18.4h0ZM88.5,210.9c-1.4.1-2.8-.9-3.3-2.6-1.6-6-1.8-17.9,2.6-18.1,1.6,0,3.1.8,3.6,2.6,1.5,5.7,1.7,17.8-2.9,18.1h0ZM95.3,191c-1-3.7-3.7-5.9-7.2-6-3.6,0-6.3,2.1-7.4,5.8-1.6,5.8-1.5,12.2.2,18,1,3.5,3.8,5.7,7.6,5.7,3.4,0,5.7-2.1,6.6-5.2,1.8-5.9,1.7-12.4.2-18.4h0ZM88.5,210.9c-1.4.1-2.8-.9-3.3-2.6-1.6-6-1.8-17.9,2.6-18.1,1.6,0,3.1.8,3.6,2.6,1.5,5.7,1.7,17.8-2.9,18.1h0ZM95.3,191c-1-3.7-3.7-5.9-7.2-6-3.6,0-6.3,2.1-7.4,5.8-1.6,5.8-1.5,12.2.2,18,1,3.5,3.8,5.7,7.6,5.7,3.4,0,5.7-2.1,6.6-5.2,1.8-5.9,1.7-12.4.2-18.4h0ZM88.5,210.9c-1.4.1-2.8-.9-3.3-2.6-1.6-6-1.8-17.9,2.6-18.1,1.6,0,3.1.8,3.6,2.6,1.5,5.7,1.7,17.8-2.9,18.1h0ZM95.3,191c-1-3.7-3.7-5.9-7.2-6-3.6,0-6.3,2.1-7.4,5.8-1.6,5.8-1.5,12.2.2,18,1,3.5,3.8,5.7,7.6,5.7,3.4,0,5.7-2.1,6.6-5.2,1.8-5.9,1.7-12.4.2-18.4h0ZM88.5,210.9c-1.4.1-2.8-.9-3.3-2.6-1.6-6-1.8-17.9,2.6-18.1,1.6,0,3.1.8,3.6,2.6,1.5,5.7,1.7,17.8-2.9,18.1h0ZM95.3,191c-1-3.7-3.7-5.9-7.2-6-3.6,0-6.3,2.1-7.4,5.8-1.6,5.8-1.5,12.2.2,18,1,3.5,3.8,5.7,7.6,5.7,3.4,0,5.7-2.1,6.6-5.2,1.8-5.9,1.7-12.4.2-18.4h0ZM88.5,210.9c-1.4.1-2.8-.9-3.3-2.6-1.6-6-1.8-17.9,2.6-18.1,1.6,0,3.1.8,3.6,2.6,1.5,5.7,1.7,17.8-2.9,18.1h0ZM95.3,191c-1-3.7-3.7-5.9-7.2-6-3.6,0-6.3,2.1-7.4,5.8-1.6,5.8-1.5,12.2.2,18,1,3.5,3.8,5.7,7.6,5.7,3.4,0,5.7-2.1,6.6-5.2,1.8-5.9,1.7-12.4.2-18.4h0ZM88.5,210.9c-1.4.1-2.8-.9-3.3-2.6-1.6-6-1.8-17.9,2.6-18.1,1.6,0,3.1.8,3.6,2.6,1.5,5.7,1.7,17.8-2.9,18.1h0ZM95.3,191c-1-3.7-3.7-5.9-7.2-6-3.6,0-6.3,2.1-7.4,5.8-1.6,5.8-1.5,12.2.2,18,1,3.5,3.8,5.7,7.6,5.7,3.4,0,5.7-2.1,6.6-5.2,1.8-5.9,1.7-12.4.2-18.4h0ZM88.5,210.9c-1.4.1-2.8-.9-3.3-2.6-1.6-6-1.8-17.9,2.6-18.1,1.6,0,3.1.8,3.6,2.6,1.5,5.7,1.7,17.8-2.9,18.1h0ZM95.3,191c-1-3.7-3.7-5.9-7.2-6-3.6,0-6.3,2.1-7.4,5.8-1.6,5.8-1.5,12.2.2,18,1,3.5,3.8,5.7,7.6,5.7,3.4,0,5.7-2.1,6.6-5.2,1.8-5.9,1.7-12.4.2-18.4h0ZM88.5,210.9c-1.4.1-2.8-.9-3.3-2.6-1.6-6-1.8-17.9,2.6-18.1,1.6,0,3.1.8,3.6,2.6,1.5,5.7,1.7,17.8-2.9,18.1h0ZM95.3,191c-1-3.7-3.7-5.9-7.2-6-3.6,0-6.3,2.1-7.4,5.8-1.6,5.8-1.5,12.2.2,18,1,3.5,3.8,5.7,7.6,5.7,3.4,0,5.7-2.1,6.6-5.2,1.8-5.9,1.7-12.4.2-18.4h0ZM88.5,210.9c-1.4.1-2.8-.9-3.3-2.6-1.6-6-1.8-17.9,2.6-18.1,1.6,0,3.1.8,3.6,2.6,1.5,5.7,1.7,17.8-2.9,18.1h0ZM95.3,191c-1-3.7-3.7-5.9-7.2-6-3.6,0-6.3,2.1-7.4,5.8-1.6,5.8-1.5,12.2.2,18,1,3.5,3.8,5.7,7.6,5.7,3.4,0,5.7-2.1,6.6-5.2,1.8-5.9,1.7-12.4.2-18.4h0ZM88.5,210.9c-1.4.1-2.8-.9-3.3-2.6-1.6-6-1.8-17.9,2.6-18.1,1.6,0,3.1.8,3.6,2.6,1.5,5.7,1.7,17.8-2.9,18.1h0ZM95.3,191c-1-3.7-3.7-5.9-7.2-6-3.6,0-6.3,2.1-7.4,5.8-1.6,5.8-1.5,12.2.2,18,1,3.5,3.8,5.7,7.6,5.7,3.4,0,5.7-2.1,6.6-5.2,1.8-5.9,1.7-12.4.2-18.4h0ZM88.5,210.9c-1.4.1-2.8-.9-3.3-2.6-1.6-6-1.8-17.9,2.6-18.1,1.6,0,3.1.8,3.6,2.6,1.5,5.7,1.7,17.8-2.9,18.1h0ZM95.3,191c-1-3.7-3.7-5.9-7.2-6-3.6,0-6.3,2.1-7.4,5.8-1.6,5.8-1.5,12.2.2,18,1,3.5,3.8,5.7,7.6,5.7,3.4,0,5.7-2.1,6.6-5.2,1.8-5.9,1.7-12.4.2-18.4h0ZM88.5,210.9c-1.4.1-2.8-.9-3.3-2.6-1.6-6-1.8-17.9,2.6-18.1,1.6,0,3.1.8,3.6,2.6,1.5,5.7,1.7,17.8-2.9,18.1h0ZM95.3,191c-1-3.7-3.7-5.9-7.2-6-3.6,0-6.3,2.1-7.4,5.8-1.6,5.8-1.5,12.2.2,18,1,3.5,3.8,5.7,7.6,5.7,3.4,0,5.7-2.1,6.6-5.2,1.8-5.9,1.7-12.4.2-18.4h0ZM88.5,210.9c-1.4.1-2.8-.9-3.3-2.6-1.6-6-1.8-17.9,2.6-18.1,1.6,0,3.1.8,3.6,2.6,1.5,5.7,1.7,17.8-2.9,18.1h0ZM95.3,191c-1-3.7-3.7-5.9-7.2-6-3.6,0-6.3,2.1-7.4,5.8-1.6,5.8-1.5,12.2.2,18,1,3.5,3.8,5.7,7.6,5.7,3.4,0,5.7-2.1,6.6-5.2,1.8-5.9,1.7-12.4.2-18.4h0ZM88.5,210.9c-1.4.1-2.8-.9-3.3-2.6-1.6-6-1.8-17.9,2.6-18.1,1.6,0,3.1.8,3.6,2.6,1.5,5.7,1.7,17.8-2.9,18.1h0ZM95.3,191c-1-3.7-3.7-5.9-7.2-6-3.6,0-6.3,2.1-7.4,5.8-1.6,5.8-1.5,12.2.2,18,1,3.5,3.8,5.7,7.6,5.7,3.4,0,5.7-2.1,6.6-5.2,1.8-5.9,1.7-12.4.2-18.4h0ZM88.5,210.9c-1.4.1-2.8-.9-3.3-2.6-1.6-6-1.8-17.9,2.6-18.1,1.6,0,3.1.8,3.6,2.6,1.5,5.7,1.7,17.8-2.9,18.1h0ZM95.3,191c-1-3.7-3.7-5.9-7.2-6-3.6,0-6.3,2.1-7.4,5.8-1.6,5.8-1.5,12.2.2,18,1,3.5,3.8,5.7,7.6,5.7,3.4,0,5.7-2.1,6.6-5.2,1.8-5.9,1.7-12.4.2-18.4h0ZM88.5,210.9c-1.4.1-2.8-.9-3.3-2.6-1.6-6-1.8-17.9,2.6-18.1,1.6,0,3.1.8,3.6,2.6,1.5,5.7,1.7,17.8-2.9,18.1h0ZM95.3,191c-1-3.7-3.7-5.9-7.2-6-3.6,0-6.3,2.1-7.4,5.8-1.6,5.8-1.5,12.2.2,18,1,3.5,3.8,5.7,7.6,5.7,3.4,0,5.7-2.1,6.6-5.2,1.8-5.9,1.7-12.4.2-18.4h0ZM88.5,210.9c-1.4.1-2.8-.9-3.3-2.6-1.6-6-1.8-17.9,2.6-18.1,1.6,0,3.1.8,3.6,2.6,1.5,5.7,1.7,17.8-2.9,18.1h0ZM95.3,191c-1-3.7-3.7-5.9-7.2-6-3.6,0-6.3,2.1-7.4,5.8-1.6,5.8-1.5,12.2.2,18,1,3.5,3.8,5.7,7.6,5.7,3.4,0,5.7-2.1,6.6-5.2,1.8-5.9,1.7-12.4.2-18.4h0ZM88.5,210.9c-1.4.1-2.8-.9-3.3-2.6-1.6-6-1.8-17.9,2.6-18.1,1.6,0,3.1.8,3.6,2.6,1.5,5.7,1.7,17.8-2.9,18.1h0ZM95.3,191c-1-3.7-3.7-5.9-7.2-6-3.6,0-6.3,2.1-7.4,5.8-1.6,5.8-1.5,12.2.2,18,1,3.5,3.8,5.7,7.6,5.7,3.4,0,5.7-2.1,6.6-5.2,1.8-5.9,1.7-12.4.2-18.4h0ZM88.5,210.9c-1.4.1-2.8-.9-3.3-2.6-1.6-6-1.8-17.9,2.6-18.1,1.6,0,3.1.8,3.6,2.6,1.5,5.7,1.7,17.8-2.9,18.1h0ZM95.3,191c-1-3.7-3.7-5.9-7.2-6-3.6,0-6.3,2.1-7.4,5.8-1.6,5.8-1.5,12.2.2,18,1,3.5,3.8,5.7,7.6,5.7,3.4,0,5.7-2.1,6.6-5.2,1.8-5.9,1.7-12.4.2-18.4h0ZM88.5,210.9c-1.4.1-2.8-.9-3.3-2.6-1.6-6-1.8-17.9,2.6-18.1,1.6,0,3.1.8,3.6,2.6,1.5,5.7,1.7,17.8-2.9,18.1h0ZM189.5,171.4c0-1.2-.4-3.2-1.6-3.6-9,2.6-17.9,4.4-27.3,5.7-16.3,2.2-32.3,3.2-48.7,3.4-1,0-1.4.7-1.4,1.5v7.9c-6.2-8.7-17.6-11.8-27.8-10.6-5.6.7-10.4,3.1-14.5,7l-.2-5.1c0-1.2-.7-2.1-1.9-2.2l-14.8-1.6c-9.4-1-18.4-2.9-27.5-5.3-.8-.2-1.6.4-1.6,1.2v11c.8.9,1.8,1.5,3,2.1v19.8c-1.1-.3-2.7-.2-2.7.6l-.2,10.2c0,1,.6,1.9,1.6,2.1l10.2,2.7c11.5,2.5,23,4.1,34.7,5.1.7-2.2.3-3.8.6-6.3,10.5,11,32,11.8,41.1-1.4l.2,7c0,1.4,1.2,2.1,2.5,2.1l25.8-1.2c.9,0,1.5-.7,1.5-1.6l-.2-10.3,4.3-.5c.9-.1,1.2-.9,1.2-1.7v-10.7l9-1.5v-8.4c.1-.6,1.3-.6,1.3,0v18.4c.1,0-3.7,1.9-3.7,1.9v11.2c0,1.1,1.1,1.9,2.2,1.7l21.9-3.5c1.1-.2,1.6-1.1,1.6-2.1v-9.8l3.1-.8c.8-.2,1.3-.8,1.3-1.6v-11.3s6.5-2.1,6.5-2.1c.7-.2,1.1-.8,1.1-1.6l-.4-17.7h0ZM64.3,189.1c-2.3,6.5-2,13.1,0,19.7-3.8-4.7-5.8-9.7-8.8-14.7l4.2-3.5c1.2-1,2.7-1.8,4.6-1.5h0ZM42,206.3c-.5-.2-.8-1.6,0-1.8.5,0,.8.9,1.3,1.9-.2.3-.9,0-1.3-.1ZM45.3,215.3v-4.7c1,0,2,.2,2.9-.3.3-1.5-.5-2.6-1.2-3.9l-4.5-8.9c-1.6,1.4-3.8,2.5-5.1,4.3-.8,1.4-.4,4.3,0,5.9.3,1.2,1.8,1.4,2.9,1.7.5,1.7.2,3.2.3,5l-15.2-3.4v-4.6c.7.2,1.8.4,2.2,0,.8-.9.7-2.4.8-3.7v-20.9c0-2-1-3.5-3-4.1v-4.8c0,0,15.2,3.3,15.2,3.3v5.2c-.9-.2-1.5-.4-2.1-.3-.5,0-1.1.7-1.1,1.4v11.6c.1,0,10.7-8.7,10.7-8.7.5-.4.9-1,.9-1.6-.1-1.6-2.9-1.4-2.9-2.1v-4.9c0,0,17.2,2,17.2,2v4.9c-2.1,0-3.9.4-5.5,1.7l-8,6.5,10.3,18.2c.9,1.6,2.4,2.3,4.3,2.5v5.2s-19.1-2.6-19.1-2.6h0ZM107.8,209.3c-4.3,9.4-14.1,12.2-24.2,10.2-5.9-1.2-11.2-4.7-14.1-10.1-5.5-10.3-2.8-25.6,9.9-29.1,6.3-1.7,13-1.4,19,1.2,10.7,4.7,14,17.7,9.4,27.7h0ZM113,210.3l1.3-6.7c.8-4.5-.4-9-1.7-13.3.7,0,1.3.2,2,.5v18.6c0,.8-1.1,1.1-1.6.9h0ZM145.6,193.2c-.2-1.9-.2-3.6-1-5.3-.9-2-2.9-3.1-5.1-3l-9,.5v10.8c1.5.3,3.4.1,4.6-1,1.3-1.1,1.3-2.9,1.6-4.5l3.7-.4.4,15.4c-1.2.4-2.1.5-3.7.4-.1-2.2-.9-4.2-2.8-5-1.2-.5-2.6-.2-3.7.1v10c.1,1.4,1.1,2.2,2.5,2.2h2.4v5.1c0,0-20.8,1-20.8,1-.1-1.8-.3-3.3,0-5.1,1.2.1,3.9-.3,3.9-1.9v-23.7c0-2.1-1.8-3.3-4.2-3.2v-4.9c12-.3,23.8-1,35.7-2.2v14c.1,0-4.6.6-4.6.6h0ZM182.1,187.2l-.5-4.6c-.5-4.2-6.8-3.2-11.5-1.4l-.2,10.6c2.9.2,5.1-1.6,5.3-4.5,0-.8.1-1.7.7-2,.5-.3,2.2-.6,2.2,0l.2,15.3c-1,.3-1.6.6-2.8.6,0-1.4-.1-3.3-1.3-4.1-1.2-.8-2.9-.3-4.2.2l.3,10.7c0,1.5,2.5,1.4,3.7.9v4.7l-17.7,2.9v-5.1c1.7.1,3.6-.6,3.7-2.3l.2-14.5v-9.4c-.1-1-.6-1.8-1.2-2.1-.9-.4-1.8-.3-2.9-.1v-4.9c10.1-1.3,19.7-2.9,29.7-5.8l.2,13.8-3.6,1.1h0ZM88.1,185c-3.6,0-6.3,2.1-7.4,5.8-1.6,5.8-1.5,12.2.2,18,1,3.5,3.8,5.7,7.6,5.7,3.4,0,5.7-2.1,6.6-5.2,1.8-5.9,1.7-12.4.2-18.4-1-3.7-3.7-5.9-7.2-6h0ZM88.5,210.9c-1.4.1-2.8-.9-3.3-2.6-1.6-6-1.8-17.9,2.6-18.1,1.6,0,3.1.8,3.6,2.6,1.5,5.7,1.7,17.8-2.9,18.1h0ZM95.3,191c-1-3.7-3.7-5.9-7.2-6-3.6,0-6.3,2.1-7.4,5.8-1.6,5.8-1.5,12.2.2,18,1,3.5,3.8,5.7,7.6,5.7,3.4,0,5.7-2.1,6.6-5.2,1.8-5.9,1.7-12.4.2-18.4h0ZM88.5,210.9c-1.4.1-2.8-.9-3.3-2.6-1.6-6-1.8-17.9,2.6-18.1,1.6,0,3.1.8,3.6,2.6,1.5,5.7,1.7,17.8-2.9,18.1h0ZM95.3,191c-1-3.7-3.7-5.9-7.2-6-3.6,0-6.3,2.1-7.4,5.8-1.6,5.8-1.5,12.2.2,18,1,3.5,3.8,5.7,7.6,5.7,3.4,0,5.7-2.1,6.6-5.2,1.8-5.9,1.7-12.4.2-18.4h0ZM88.5,210.9c-1.4.1-2.8-.9-3.3-2.6-1.6-6-1.8-17.9,2.6-18.1,1.6,0,3.1.8,3.6,2.6,1.5,5.7,1.7,17.8-2.9,18.1h0ZM95.3,191c-1-3.7-3.7-5.9-7.2-6-3.6,0-6.3,2.1-7.4,5.8-1.6,5.8-1.5,12.2.2,18,1,3.5,3.8,5.7,7.6,5.7,3.4,0,5.7-2.1,6.6-5.2,1.8-5.9,1.7-12.4.2-18.4h0ZM88.5,210.9c-1.4.1-2.8-.9-3.3-2.6-1.6-6-1.8-17.9,2.6-18.1,1.6,0,3.1.8,3.6,2.6,1.5,5.7,1.7,17.8-2.9,18.1h0ZM95.3,191c-1-3.7-3.7-5.9-7.2-6-3.6,0-6.3,2.1-7.4,5.8-1.6,5.8-1.5,12.2.2,18,1,3.5,3.8,5.7,7.6,5.7,3.4,0,5.7-2.1,6.6-5.2,1.8-5.9,1.7-12.4.2-18.4h0ZM88.5,210.9c-1.4.1-2.8-.9-3.3-2.6-1.6-6-1.8-17.9,2.6-18.1,1.6,0,3.1.8,3.6,2.6,1.5,5.7,1.7,17.8-2.9,18.1h0ZM95.3,191c-1-3.7-3.7-5.9-7.2-6-3.6,0-6.3,2.1-7.4,5.8-1.6,5.8-1.5,12.2.2,18,1,3.5,3.8,5.7,7.6,5.7,3.4,0,5.7-2.1,6.6-5.2,1.8-5.9,1.7-12.4.2-18.4h0ZM88.5,210.9c-1.4.1-2.8-.9-3.3-2.6-1.6-6-1.8-17.9,2.6-18.1,1.6,0,3.1.8,3.6,2.6,1.5,5.7,1.7,17.8-2.9,18.1h0ZM95.3,191c-1-3.7-3.7-5.9-7.2-6-3.6,0-6.3,2.1-7.4,5.8-1.6,5.8-1.5,12.2.2,18,1,3.5,3.8,5.7,7.6,5.7,3.4,0,5.7-2.1,6.6-5.2,1.8-5.9,1.7-12.4.2-18.4h0ZM88.5,210.9c-1.4.1-2.8-.9-3.3-2.6-1.6-6-1.8-17.9,2.6-18.1,1.6,0,3.1.8,3.6,2.6,1.5,5.7,1.7,17.8-2.9,18.1h0ZM95.3,191c-1-3.7-3.7-5.9-7.2-6-3.6,0-6.3,2.1-7.4,5.8-1.6,5.8-1.5,12.2.2,18,1,3.5,3.8,5.7,7.6,5.7,3.4,0,5.7-2.1,6.6-5.2,1.8-5.9,1.7-12.4.2-18.4h0ZM88.5,210.9c-1.4.1-2.8-.9-3.3-2.6-1.6-6-1.8-17.9,2.6-18.1,1.6,0,3.1.8,3.6,2.6,1.5,5.7,1.7,17.8-2.9,18.1h0ZM95.3,191c-1-3.7-3.7-5.9-7.2-6-3.6,0-6.3,2.1-7.4,5.8-1.6,5.8-1.5,12.2.2,18,1,3.5,3.8,5.7,7.6,5.7,3.4,0,5.7-2.1,6.6-5.2,1.8-5.9,1.7-12.4.2-18.4h0ZM88.5,210.9c-1.4.1-2.8-.9-3.3-2.6-1.6-6-1.8-17.9,2.6-18.1,1.6,0,3.1.8,3.6,2.6,1.5,5.7,1.7,17.8-2.9,18.1h0ZM95.3,191c-1-3.7-3.7-5.9-7.2-6-3.6,0-6.3,2.1-7.4,5.8-1.6,5.8-1.5,12.2.2,18,1,3.5,3.8,5.7,7.6,5.7,3.4,0,5.7-2.1,6.6-5.2,1.8-5.9,1.7-12.4.2-18.4h0ZM88.5,210.9c-1.4.1-2.8-.9-3.3-2.6-1.6-6-1.8-17.9,2.6-18.1,1.6,0,3.1.8,3.6,2.6,1.5,5.7,1.7,17.8-2.9,18.1h0ZM95.3,191c-1-3.7-3.7-5.9-7.2-6-3.6,0-6.3,2.1-7.4,5.8-1.6,5.8-1.5,12.2.2,18,1,3.5,3.8,5.7,7.6,5.7,3.4,0,5.7-2.1,6.6-5.2,1.8-5.9,1.7-12.4.2-18.4h0ZM88.5,210.9c-1.4.1-2.8-.9-3.3-2.6-1.6-6-1.8-17.9,2.6-18.1,1.6,0,3.1.8,3.6,2.6,1.5,5.7,1.7,17.8-2.9,18.1h0ZM95.3,191c-1-3.7-3.7-5.9-7.2-6-3.6,0-6.3,2.1-7.4,5.8-1.6,5.8-1.5,12.2.2,18,1,3.5,3.8,5.7,7.6,5.7,3.4,0,5.7-2.1,6.6-5.2,1.8-5.9,1.7-12.4.2-18.4h0ZM88.5,210.9c-1.4.1-2.8-.9-3.3-2.6-1.6-6-1.8-17.9,2.6-18.1,1.6,0,3.1.8,3.6,2.6,1.5,5.7,1.7,17.8-2.9,18.1h0ZM95.3,191c-1-3.7-3.7-5.9-7.2-6-3.6,0-6.3,2.1-7.4,5.8-1.6,5.8-1.5,12.2.2,18,1,3.5,3.8,5.7,7.6,5.7,3.4,0,5.7-2.1,6.6-5.2,1.8-5.9,1.7-12.4.2-18.4h0ZM88.5,210.9c-1.4.1-2.8-.9-3.3-2.6-1.6-6-1.8-17.9,2.6-18.1,1.6,0,3.1.8,3.6,2.6,1.5,5.7,1.7,17.8-2.9,18.1h0ZM95.3,191c-1-3.7-3.7-5.9-7.2-6-3.6,0-6.3,2.1-7.4,5.8-1.6,5.8-1.5,12.2.2,18,1,3.5,3.8,5.7,7.6,5.7,3.4,0,5.7-2.1,6.6-5.2,1.8-5.9,1.7-12.4.2-18.4h0ZM88.5,210.9c-1.4.1-2.8-.9-3.3-2.6-1.6-6-1.8-17.9,2.6-18.1,1.6,0,3.1.8,3.6,2.6,1.5,5.7,1.7,17.8-2.9,18.1h0ZM95.3,191c-1-3.7-3.7-5.9-7.2-6-3.6,0-6.3,2.1-7.4,5.8-1.6,5.8-1.5,12.2.2,18,1,3.5,3.8,5.7,7.6,5.7,3.4,0,5.7-2.1,6.6-5.2,1.8-5.9,1.7-12.4.2-18.4h0ZM88.5,210.9c-1.4.1-2.8-.9-3.3-2.6-1.6-6-1.8-17.9,2.6-18.1,1.6,0,3.1.8,3.6,2.6,1.5,5.7,1.7,17.8-2.9,18.1h0ZM95.3,191c-1-3.7-3.7-5.9-7.2-6-3.6,0-6.3,2.1-7.4,5.8-1.6,5.8-1.5,12.2.2,18,1,3.5,3.8,5.7,7.6,5.7,3.4,0,5.7-2.1,6.6-5.2,1.8-5.9,1.7-12.4.2-18.4h0ZM88.5,210.9c-1.4.1-2.8-.9-3.3-2.6-1.6-6-1.8-17.9,2.6-18.1,1.6,0,3.1.8,3.6,2.6,1.5,5.7,1.7,17.8-2.9,18.1h0ZM95.3,191c-1-3.7-3.7-5.9-7.2-6-3.6,0-6.3,2.1-7.4,5.8-1.6,5.8-1.5,12.2.2,18,1,3.5,3.8,5.7,7.6,5.7,3.4,0,5.7-2.1,6.6-5.2,1.8-5.9,1.7-12.4.2-18.4h0ZM88.5,210.9c-1.4.1-2.8-.9-3.3-2.6-1.6-6-1.8-17.9,2.6-18.1,1.6,0,3.1.8,3.6,2.6,1.5,5.7,1.7,17.8-2.9,18.1h0ZM95.3,191c-1-3.7-3.7-5.9-7.2-6-3.6,0-6.3,2.1-7.4,5.8-1.6,5.8-1.5,12.2.2,18,1,3.5,3.8,5.7,7.6,5.7,3.4,0,5.7-2.1,6.6-5.2,1.8-5.9,1.7-12.4.2-18.4h0ZM88.5,210.9c-1.4.1-2.8-.9-3.3-2.6-1.6-6-1.8-17.9,2.6-18.1,1.6,0,3.1.8,3.6,2.6,1.5,5.7,1.7,17.8-2.9,18.1h0ZM95.3,191c-1-3.7-3.7-5.9-7.2-6-3.6,0-6.3,2.1-7.4,5.8-1.6,5.8-1.5,12.2.2,18,1,3.5,3.8,5.7,7.6,5.7,3.4,0,5.7-2.1,6.6-5.2,1.8-5.9,1.7-12.4.2-18.4h0ZM88.5,210.9c-1.4.1-2.8-.9-3.3-2.6-1.6-6-1.8-17.9,2.6-18.1,1.6,0,3.1.8,3.6,2.6,1.5,5.7,1.7,17.8-2.9,18.1h0ZM95.3,191c-1-3.7-3.7-5.9-7.2-6-3.6,0-6.3,2.1-7.4,5.8-1.6,5.8-1.5,12.2.2,18,1,3.5,3.8,5.7,7.6,5.7,3.4,0,5.7-2.1,6.6-5.2,1.8-5.9,1.7-12.4.2-18.4h0ZM88.5,210.9c-1.4.1-2.8-.9-3.3-2.6-1.6-6-1.8-17.9,2.6-18.1,1.6,0,3.1.8,3.6,2.6,1.5,5.7,1.7,17.8-2.9,18.1h0ZM95.3,191c-1-3.7-3.7-5.9-7.2-6-3.6,0-6.3,2.1-7.4,5.8-1.6,5.8-1.5,12.2.2,18,1,3.5,3.8,5.7,7.6,5.7,3.4,0,5.7-2.1,6.6-5.2,1.8-5.9,1.7-12.4.2-18.4h0ZM88.5,210.9c-1.4.1-2.8-.9-3.3-2.6-1.6-6-1.8-17.9,2.6-18.1,1.6,0,3.1.8,3.6,2.6,1.5,5.7,1.7,17.8-2.9,18.1h0ZM95.3,191c-1-3.7-3.7-5.9-7.2-6-3.6,0-6.3,2.1-7.4,5.8-1.6,5.8-1.5,12.2.2,18,1,3.5,3.8,5.7,7.6,5.7,3.4,0,5.7-2.1,6.6-5.2,1.8-5.9,1.7-12.4.2-18.4h0ZM88.5,210.9c-1.4.1-2.8-.9-3.3-2.6-1.6-6-1.8-17.9,2.6-18.1,1.6,0,3.1.8,3.6,2.6,1.5,5.7,1.7,17.8-2.9,18.1h0ZM95.3,191c-1-3.7-3.7-5.9-7.2-6-3.6,0-6.3,2.1-7.4,5.8-1.6,5.8-1.5,12.2.2,18,1,3.5,3.8,5.7,7.6,5.7,3.4,0,5.7-2.1,6.6-5.2,1.8-5.9,1.7-12.4.2-18.4h0ZM88.5,210.9c-1.4.1-2.8-.9-3.3-2.6-1.6-6-1.8-17.9,2.6-18.1,1.6,0,3.1.8,3.6,2.6,1.5,5.7,1.7,17.8-2.9,18.1h0ZM95.3,191c-1-3.7-3.7-5.9-7.2-6-3.6,0-6.3,2.1-7.4,5.8-1.6,5.8-1.5,12.2.2,18,1,3.5,3.8,5.7,7.6,5.7,3.4,0,5.7-2.1,6.6-5.2,1.8-5.9,1.7-12.4.2-18.4h0ZM88.5,210.9c-1.4.1-2.8-.9-3.3-2.6-1.6-6-1.8-17.9,2.6-18.1,1.6,0,3.1.8,3.6,2.6,1.5,5.7,1.7,17.8-2.9,18.1h0ZM95.3,191c-1-3.7-3.7-5.9-7.2-6-3.6,0-6.3,2.1-7.4,5.8-1.6,5.8-1.5,12.2.2,18,1,3.5,3.8,5.7,7.6,5.7,3.4,0,5.7-2.1,6.6-5.2,1.8-5.9,1.7-12.4.2-18.4h0ZM88.5,210.9c-1.4.1-2.8-.9-3.3-2.6-1.6-6-1.8-17.9,2.6-18.1,1.6,0,3.1.8,3.6,2.6,1.5,5.7,1.7,17.8-2.9,18.1h0ZM95.3,191c-1-3.7-3.7-5.9-7.2-6-3.6,0-6.3,2.1-7.4,5.8-1.6,5.8-1.5,12.2.2,18,1,3.5,3.8,5.7,7.6,5.7,3.4,0,5.7-2.1,6.6-5.2,1.8-5.9,1.7-12.4.2-18.4h0ZM88.5,210.9c-1.4.1-2.8-.9-3.3-2.6-1.6-6-1.8-17.9,2.6-18.1,1.6,0,3.1.8,3.6,2.6,1.5,5.7,1.7,17.8-2.9,18.1h0ZM95.3,191c-1-3.7-3.7-5.9-7.2-6-3.6,0-6.3,2.1-7.4,5.8-1.6,5.8-1.5,12.2.2,18,1,3.5,3.8,5.7,7.6,5.7,3.4,0,5.7-2.1,6.6-5.2,1.8-5.9,1.7-12.4.2-18.4h0ZM88.5,210.9c-1.4.1-2.8-.9-3.3-2.6-1.6-6-1.8-17.9,2.6-18.1,1.6,0,3.1.8,3.6,2.6,1.5,5.7,1.7,17.8-2.9,18.1h0ZM95.3,191c-1-3.7-3.7-5.9-7.2-6-3.6,0-6.3,2.1-7.4,5.8-1.6,5.8-1.5,12.2.2,18,1,3.5,3.8,5.7,7.6,5.7,3.4,0,5.7-2.1,6.6-5.2,1.8-5.9,1.7-12.4.2-18.4h0ZM88.5,210.9c-1.4.1-2.8-.9-3.3-2.6-1.6-6-1.8-17.9,2.6-18.1,1.6,0,3.1.8,3.6,2.6,1.5,5.7,1.7,17.8-2.9,18.1h0ZM95.3,191c-1-3.7-3.7-5.9-7.2-6-3.6,0-6.3,2.1-7.4,5.8-1.6,5.8-1.5,12.2.2,18,1,3.5,3.8,5.7,7.6,5.7,3.4,0,5.7-2.1,6.6-5.2,1.8-5.9,1.7-12.4.2-18.4h0ZM88.5,210.9c-1.4.1-2.8-.9-3.3-2.6-1.6-6-1.8-17.9,2.6-18.1,1.6,0,3.1.8,3.6,2.6,1.5,5.7,1.7,17.8-2.9,18.1h0ZM95.3,191c-1-3.7-3.7-5.9-7.2-6-3.6,0-6.3,2.1-7.4,5.8-1.6,5.8-1.5,12.2.2,18,1,3.5,3.8,5.7,7.6,5.7,3.4,0,5.7-2.1,6.6-5.2,1.8-5.9,1.7-12.4.2-18.4h0ZM88.5,210.9c-1.4.1-2.8-.9-3.3-2.6-1.6-6-1.8-17.9,2.6-18.1,1.6,0,3.1.8,3.6,2.6,1.5,5.7,1.7,17.8-2.9,18.1h0ZM95.3,191c-1-3.7-3.7-5.9-7.2-6-3.6,0-6.3,2.1-7.4,5.8-1.6,5.8-1.5,12.2.2,18,1,3.5,3.8,5.7,7.6,5.7,3.4,0,5.7-2.1,6.6-5.2,1.8-5.9,1.7-12.4.2-18.4h0ZM88.5,210.9c-1.4.1-2.8-.9-3.3-2.6-1.6-6-1.8-17.9,2.6-18.1,1.6,0,3.1.8,3.6,2.6,1.5,5.7,1.7,17.8-2.9,18.1h0ZM95.3,191c-1-3.7-3.7-5.9-7.2-6-3.6,0-6.3,2.1-7.4,5.8-1.6,5.8-1.5,12.2.2,18,1,3.5,3.8,5.7,7.6,5.7,3.4,0,5.7-2.1,6.6-5.2,1.8-5.9,1.7-12.4.2-18.4h0ZM88.5,210.9c-1.4.1-2.8-.9-3.3-2.6-1.6-6-1.8-17.9,2.6-18.1,1.6,0,3.1.8,3.6,2.6,1.5,5.7,1.7,17.8-2.9,18.1h0ZM95.3,191c-1-3.7-3.7-5.9-7.2-6-3.6,0-6.3,2.1-7.4,5.8-1.6,5.8-1.5,12.2.2,18,1,3.5,3.8,5.7,7.6,5.7,3.4,0,5.7-2.1,6.6-5.2,1.8-5.9,1.7-12.4.2-18.4h0ZM88.5,210.9c-1.4.1-2.8-.9-3.3-2.6-1.6-6-1.8-17.9,2.6-18.1,1.6,0,3.1.8,3.6,2.6,1.5,5.7,1.7,17.8-2.9,18.1h0ZM95.3,191c-1-3.7-3.7-5.9-7.2-6-3.6,0-6.3,2.1-7.4,5.8-1.6,5.8-1.5,12.2.2,18,1,3.5,3.8,5.7,7.6,5.7,3.4,0,5.7-2.1,6.6-5.2,1.8-5.9,1.7-12.4.2-18.4h0ZM88.5,210.9c-1.4.1-2.8-.9-3.3-2.6-1.6-6-1.8-17.9,2.6-18.1,1.6,0,3.1.8,3.6,2.6,1.5,5.7,1.7,17.8-2.9,18.1h0ZM95.3,191c-1-3.7-3.7-5.9-7.2-6-3.6,0-6.3,2.1-7.4,5.8-1.6,5.8-1.5,12.2.2,18,1,3.5,3.8,5.7,7.6,5.7,3.4,0,5.7-2.1,6.6-5.2,1.8-5.9,1.7-12.4.2-18.4h0ZM88.5,210.9c-1.4.1-2.8-.9-3.3-2.6-1.6-6-1.8-17.9,2.6-18.1,1.6,0,3.1.8,3.6,2.6,1.5,5.7,1.7,17.8-2.9,18.1h0ZM95.3,191c-1-3.7-3.7-5.9-7.2-6-3.6,0-6.3,2.1-7.4,5.8-1.6,5.8-1.5,12.2.2,18,1,3.5,3.8,5.7,7.6,5.7,3.4,0,5.7-2.1,6.6-5.2,1.8-5.9,1.7-12.4.2-18.4h0ZM88.5,210.9c-1.4.1-2.8-.9-3.3-2.6-1.6-6-1.8-17.9,2.6-18.1,1.6,0,3.1.8,3.6,2.6,1.5,5.7,1.7,17.8-2.9,18.1h0ZM95.3,191c-1-3.7-3.7-5.9-7.2-6-3.6,0-6.3,2.1-7.4,5.8-1.6,5.8-1.5,12.2.2,18,1,3.5,3.8,5.7,7.6,5.7,3.4,0,5.7-2.1,6.6-5.2,1.8-5.9,1.7-12.4.2-18.4h0ZM88.5,210.9c-1.4.1-2.8-.9-3.3-2.6-1.6-6-1.8-17.9,2.6-18.1,1.6,0,3.1.8,3.6,2.6,1.5,5.7,1.7,17.8-2.9,18.1h0ZM95.3,191c-1-3.7-3.7-5.9-7.2-6-3.6,0-6.3,2.1-7.4,5.8-1.6,5.8-1.5,12.2.2,18,1,3.5,3.8,5.7,7.6,5.7,3.4,0,5.7-2.1,6.6-5.2,1.8-5.9,1.7-12.4.2-18.4h0ZM88.5,210.9c-1.4.1-2.8-.9-3.3-2.6-1.6-6-1.8-17.9,2.6-18.1,1.6,0,3.1.8,3.6,2.6,1.5,5.7,1.7,17.8-2.9,18.1h0ZM95.3,191c-1-3.7-3.7-5.9-7.2-6-3.6,0-6.3,2.1-7.4,5.8-1.6,5.8-1.5,12.2.2,18,1,3.5,3.8,5.7,7.6,5.7,3.4,0,5.7-2.1,6.6-5.2,1.8-5.9,1.7-12.4.2-18.4h0ZM88.5,210.9c-1.4.1-2.8-.9-3.3-2.6-1.6-6-1.8-17.9,2.6-18.1,1.6,0,3.1.8,3.6,2.6,1.5,5.7,1.7,17.8-2.9,18.1h0ZM95.3,191c-1-3.7-3.7-5.9-7.2-6-3.6,0-6.3,2.1-7.4,5.8-1.6,5.8-1.5,12.2.2,18,1,3.5,3.8,5.7,7.6,5.7,3.4,0,5.7-2.1,6.6-5.2,1.8-5.9,1.7-12.4.2-18.4h0ZM88.5,210.9c-1.4.1-2.8-.9-3.3-2.6-1.6-6-1.8-17.9,2.6-18.1,1.6,0,3.1.8,3.6,2.6,1.5,5.7,1.7,17.8-2.9,18.1h0ZM95.3,191c-1-3.7-3.7-5.9-7.2-6-3.6,0-6.3,2.1-7.4,5.8-1.6,5.8-1.5,12.2.2,18,1,3.5,3.8,5.7,7.6,5.7,3.4,0,5.7-2.1,6.6-5.2,1.8-5.9,1.7-12.4.2-18.4h0ZM88.5,210.9c-1.4.1-2.8-.9-3.3-2.6-1.6-6-1.8-17.9,2.6-18.1,1.6,0,3.1.8,3.6,2.6,1.5,5.7,1.7,17.8-2.9,18.1h0Z"/>
  <path d="M199.2,232.1c.4,1.8.2,3.6-.5,5.2-.7,1.7-2.3,2.7-4,2.4-5.1-.9-2.6-10.5-.3-15.9l-.6,7.8c-.2,2.6.2,5.1,1.6,5.1.5,0,1.1-.4,1.3-1.1,1.6-3.9-1.9-9.7-.3-14.9l2.8,11.2h0Z"/>
  <path d="M202.2,78.6c-1.5,2.7-4,4.8-6.9,6.2-5.5,2.8-16.2,7.1-22.1,5.9,1.1-1.5,2.8-1.9,4.4-2.3,8.3-2,16-5.1,23.2-9.9.4-.3,1.3-.4,1.4,0Z"/>
  <path d="M84.9,8.8c-5.6-2.7-12.2-3-17.7,0-1.8,1-2.4,2.9-1.8,4.7,3.2,8.5,22.6,11.1,26.2,4,1.8-3.5-2.7-6.9-6.7-8.7ZM68.6,11.8c3.4-2.8,11.5-1.7,15.9.8-5.1.4-9.5.6-14.4,1.4-1,0-2.2-1.5-1.4-2.2h0ZM73.1,16.5c4.6-1,8.9-1,13.4-1.5.8,0,1.4.4,1.6.9,1,3.1-9.5,3.5-14.9.6h0ZM109.7,24c-5.4-3-13.7-4.9-18.7-1.3-1,.7-1.7,1.8-1.8,2.8-.3,3.7,6,7.6,10.2,9.2,4.9,1.8,9.7,0,8.9-1.4-.6-1.2-5.9-.4-9.3-2.4,3.7-1.8,7.5-1.6,11-.3,1.2.3,2.7.4,3.6-.5,1.4-1.4-1.1-4.4-4.1-6ZM101.5,27.2c-2.2.4-3.9,1.1-5.4,2.5-1.3-.7-2.8-1.8-3-3.4-.3-3.4,11.3-2,16,1.1-2.7,0-5-.8-7.6-.2ZM109.7,24c-5.4-3-13.7-4.9-18.7-1.3-1,.7-1.7,1.8-1.8,2.8-.3,3.7,6,7.6,10.2,9.2,4.9,1.8,9.7,0,8.9-1.4-.6-1.2-5.9-.4-9.3-2.4,3.7-1.8,7.5-1.6,11-.3,1.2.3,2.7.4,3.6-.5,1.4-1.4-1.1-4.4-4.1-6ZM101.5,27.2c-2.2.4-3.9,1.1-5.4,2.5-1.3-.7-2.8-1.8-3-3.4-.3-3.4,11.3-2,16,1.1-2.7,0-5-.8-7.6-.2ZM84.9,8.8c-5.6-2.7-12.2-3-17.7,0-1.8,1-2.4,2.9-1.8,4.7,3.2,8.5,22.6,11.1,26.2,4,1.8-3.5-2.7-6.9-6.7-8.7ZM68.6,11.8c3.4-2.8,11.5-1.7,15.9.8-5.1.4-9.5.6-14.4,1.4-1,0-2.2-1.5-1.4-2.2h0ZM73.1,16.5c4.6-1,8.9-1,13.4-1.5.8,0,1.4.4,1.6.9,1,3.1-9.5,3.5-14.9.6h0ZM84.9,8.8c-5.6-2.7-12.2-3-17.7,0-1.8,1-2.4,2.9-1.8,4.7,3.2,8.5,22.6,11.1,26.2,4,1.8-3.5-2.7-6.9-6.7-8.7ZM68.6,11.8c3.4-2.8,11.5-1.7,15.9.8-5.1.4-9.5.6-14.4,1.4-1,0-2.2-1.5-1.4-2.2h0ZM73.1,16.5c4.6-1,8.9-1,13.4-1.5.8,0,1.4.4,1.6.9,1,3.1-9.5,3.5-14.9.6h0ZM109.7,24c-5.4-3-13.7-4.9-18.7-1.3-1,.7-1.7,1.8-1.8,2.8-.3,3.7,6,7.6,10.2,9.2,4.9,1.8,9.7,0,8.9-1.4-.6-1.2-5.9-.4-9.3-2.4,3.7-1.8,7.5-1.6,11-.3,1.2.3,2.7.4,3.6-.5,1.4-1.4-1.1-4.4-4.1-6ZM101.5,27.2c-2.2.4-3.9,1.1-5.4,2.5-1.3-.7-2.8-1.8-3-3.4-.3-3.4,11.3-2,16,1.1-2.7,0-5-.8-7.6-.2ZM109.7,24c-5.4-3-13.7-4.9-18.7-1.3-1,.7-1.7,1.8-1.8,2.8-.3,3.7,6,7.6,10.2,9.2,4.9,1.8,9.7,0,8.9-1.4-.6-1.2-5.9-.4-9.3-2.4,3.7-1.8,7.5-1.6,11-.3,1.2.3,2.7.4,3.6-.5,1.4-1.4-1.1-4.4-4.1-6ZM101.5,27.2c-2.2.4-3.9,1.1-5.4,2.5-1.3-.7-2.8-1.8-3-3.4-.3-3.4,11.3-2,16,1.1-2.7,0-5-.8-7.6-.2ZM84.9,8.8c-5.6-2.7-12.2-3-17.7,0-1.8,1-2.4,2.9-1.8,4.7,3.2,8.5,22.6,11.1,26.2,4,1.8-3.5-2.7-6.9-6.7-8.7ZM68.6,11.8c3.4-2.8,11.5-1.7,15.9.8-5.1.4-9.5.6-14.4,1.4-1,0-2.2-1.5-1.4-2.2h0ZM73.1,16.5c4.6-1,8.9-1,13.4-1.5.8,0,1.4.4,1.6.9,1,3.1-9.5,3.5-14.9.6h0ZM84.9,8.8c-5.6-2.7-12.2-3-17.7,0-1.8,1-2.4,2.9-1.8,4.7,3.2,8.5,22.6,11.1,26.2,4,1.8-3.5-2.7-6.9-6.7-8.7ZM68.6,11.8c3.4-2.8,11.5-1.7,15.9.8-5.1.4-9.5.6-14.4,1.4-1,0-2.2-1.5-1.4-2.2h0ZM73.1,16.5c4.6-1,8.9-1,13.4-1.5.8,0,1.4.4,1.6.9,1,3.1-9.5,3.5-14.9.6h0ZM109.7,24c-5.4-3-13.7-4.9-18.7-1.3-1,.7-1.7,1.8-1.8,2.8-.3,3.7,6,7.6,10.2,9.2,4.9,1.8,9.7,0,8.9-1.4-.6-1.2-5.9-.4-9.3-2.4,3.7-1.8,7.5-1.6,11-.3,1.2.3,2.7.4,3.6-.5,1.4-1.4-1.1-4.4-4.1-6ZM101.5,27.2c-2.2.4-3.9,1.1-5.4,2.5-1.3-.7-2.8-1.8-3-3.4-.3-3.4,11.3-2,16,1.1-2.7,0-5-.8-7.6-.2ZM109.7,24c-5.4-3-13.7-4.9-18.7-1.3-1,.7-1.7,1.8-1.8,2.8-.3,3.7,6,7.6,10.2,9.2,4.9,1.8,9.7,0,8.9-1.4-.6-1.2-5.9-.4-9.3-2.4,3.7-1.8,7.5-1.6,11-.3,1.2.3,2.7.4,3.6-.5,1.4-1.4-1.1-4.4-4.1-6ZM101.5,27.2c-2.2.4-3.9,1.1-5.4,2.5-1.3-.7-2.8-1.8-3-3.4-.3-3.4,11.3-2,16,1.1-2.7,0-5-.8-7.6-.2ZM84.9,8.8c-5.6-2.7-12.2-3-17.7,0-1.8,1-2.4,2.9-1.8,4.7,3.2,8.5,22.6,11.1,26.2,4,1.8-3.5-2.7-6.9-6.7-8.7ZM68.6,11.8c3.4-2.8,11.5-1.7,15.9.8-5.1.4-9.5.6-14.4,1.4-1,0-2.2-1.5-1.4-2.2h0ZM73.1,16.5c4.6-1,8.9-1,13.4-1.5.8,0,1.4.4,1.6.9,1,3.1-9.5,3.5-14.9.6h0ZM84.7,38.8l-21.8-6.5c-1.8-.5-3.4-.9-4.9-1.9,1.8-.6,3.3-.2,4.7-1.4-2.3-.2-4.8.3-6.8,1.8.5,1.5,1.8,2,3.2,2.5,8.9,3.2,18,5.4,27.5,7.6.3-1.2-.8-1.7-1.8-2ZM84.9,8.8c-5.6-2.7-12.2-3-17.7,0-1.8,1-2.4,2.9-1.8,4.7,3.2,8.5,22.6,11.1,26.2,4,1.8-3.5-2.7-6.9-6.7-8.7ZM68.6,11.8c3.4-2.8,11.5-1.7,15.9.8-5.1.4-9.5.6-14.4,1.4-1,0-2.2-1.5-1.4-2.2h0ZM73.1,16.5c4.6-1,8.9-1,13.4-1.5.8,0,1.4.4,1.6.9,1,3.1-9.5,3.5-14.9.6h0ZM109.7,24c-5.4-3-13.7-4.9-18.7-1.3-1,.7-1.7,1.8-1.8,2.8-.3,3.7,6,7.6,10.2,9.2,4.9,1.8,9.7,0,8.9-1.4-.6-1.2-5.9-.4-9.3-2.4,3.7-1.8,7.5-1.6,11-.3,1.2.3,2.7.4,3.6-.5,1.4-1.4-1.1-4.4-4.1-6ZM101.5,27.2c-2.2.4-3.9,1.1-5.4,2.5-1.3-.7-2.8-1.8-3-3.4-.3-3.4,11.3-2,16,1.1-2.7,0-5-.8-7.6-.2ZM84.7,38.8l-21.8-6.5c-1.8-.5-3.4-.9-4.9-1.9,1.8-.6,3.3-.2,4.7-1.4-2.3-.2-4.8.3-6.8,1.8.5,1.5,1.8,2,3.2,2.5,8.9,3.2,18,5.4,27.5,7.6.3-1.2-.8-1.7-1.8-2ZM109.7,24c-5.4-3-13.7-4.9-18.7-1.3-1,.7-1.7,1.8-1.8,2.8-.3,3.7,6,7.6,10.2,9.2,4.9,1.8,9.7,0,8.9-1.4-.6-1.2-5.9-.4-9.3-2.4,3.7-1.8,7.5-1.6,11-.3,1.2.3,2.7.4,3.6-.5,1.4-1.4-1.1-4.4-4.1-6ZM101.5,27.2c-2.2.4-3.9,1.1-5.4,2.5-1.3-.7-2.8-1.8-3-3.4-.3-3.4,11.3-2,16,1.1-2.7,0-5-.8-7.6-.2ZM84.9,8.8c-5.6-2.7-12.2-3-17.7,0-1.8,1-2.4,2.9-1.8,4.7,3.2,8.5,22.6,11.1,26.2,4,1.8-3.5-2.7-6.9-6.7-8.7ZM68.6,11.8c3.4-2.8,11.5-1.7,15.9.8-5.1.4-9.5.6-14.4,1.4-1,0-2.2-1.5-1.4-2.2h0ZM73.1,16.5c4.6-1,8.9-1,13.4-1.5.8,0,1.4.4,1.6.9,1,3.1-9.5,3.5-14.9.6h0ZM84.7,38.8l-21.8-6.5c-1.8-.5-3.4-.9-4.9-1.9,1.8-.6,3.3-.2,4.7-1.4-2.3-.2-4.8.3-6.8,1.8.5,1.5,1.8,2,3.2,2.5,8.9,3.2,18,5.4,27.5,7.6.3-1.2-.8-1.7-1.8-2ZM84.9,8.8c-5.6-2.7-12.2-3-17.7,0-1.8,1-2.4,2.9-1.8,4.7,3.2,8.5,22.6,11.1,26.2,4,1.8-3.5-2.7-6.9-6.7-8.7ZM68.6,11.8c3.4-2.8,11.5-1.7,15.9.8-5.1.4-9.5.6-14.4,1.4-1,0-2.2-1.5-1.4-2.2h0ZM73.1,16.5c4.6-1,8.9-1,13.4-1.5.8,0,1.4.4,1.6.9,1,3.1-9.5,3.5-14.9.6h0ZM109.7,24c-5.4-3-13.7-4.9-18.7-1.3-1,.7-1.7,1.8-1.8,2.8-.3,3.7,6,7.6,10.2,9.2,4.9,1.8,9.7,0,8.9-1.4-.6-1.2-5.9-.4-9.3-2.4,3.7-1.8,7.5-1.6,11-.3,1.2.3,2.7.4,3.6-.5,1.4-1.4-1.1-4.4-4.1-6ZM101.5,27.2c-2.2.4-3.9,1.1-5.4,2.5-1.3-.7-2.8-1.8-3-3.4-.3-3.4,11.3-2,16,1.1-2.7,0-5-.8-7.6-.2ZM84.7,38.8l-21.8-6.5c-1.8-.5-3.4-.9-4.9-1.9,1.8-.6,3.3-.2,4.7-1.4-2.3-.2-4.8.3-6.8,1.8.5,1.5,1.8,2,3.2,2.5,8.9,3.2,18,5.4,27.5,7.6.3-1.2-.8-1.7-1.8-2ZM109.7,24c-5.4-3-13.7-4.9-18.7-1.3-1,.7-1.7,1.8-1.8,2.8-.3,3.7,6,7.6,10.2,9.2,4.9,1.8,9.7,0,8.9-1.4-.6-1.2-5.9-.4-9.3-2.4,3.7-1.8,7.5-1.6,11-.3,1.2.3,2.7.4,3.6-.5,1.4-1.4-1.1-4.4-4.1-6ZM101.5,27.2c-2.2.4-3.9,1.1-5.4,2.5-1.3-.7-2.8-1.8-3-3.4-.3-3.4,11.3-2,16,1.1-2.7,0-5-.8-7.6-.2ZM91.6,17.5c1.8-3.5-2.7-6.9-6.7-8.7-5.6-2.7-12.2-3-17.7,0-1.8,1-2.4,2.9-1.8,4.7,3.2,8.5,22.6,11.1,26.2,4ZM68.6,11.8c3.4-2.8,11.5-1.7,15.9.8-5.1.4-9.5.6-14.4,1.4-1,0-2.2-1.5-1.4-2.2h0ZM73.1,16.5c4.6-1,8.9-1,13.4-1.5.8,0,1.4.4,1.6.9,1,3.1-9.5,3.5-14.9.6h0ZM207.3,69.8l-10.9-17.7c-2.1-3.5-4-6.7-5.4-10.8,1.9-2.8,2.5-5.8,2.7-9.1.5-8.5-4.8-13-12.1-16.4-24.5-11.2-63.5-12.5-90.6-11.1-3.4-1.7-6.6-3.2-10.4-4-8.3-1.8-20.2,0-23.8,8-9.3,1.6-18,3.8-26.7,7.2-8.2,3.2-14.5,8.3-13.1,17.6.4,2.8,1.1,5.3,2.8,7.6-3.8,10.4-13.4,22.2-16.7,31.3C.4,79.8,0,87.7,0,95.8l1.1,81.5.4,74.2.3,33.5v25.7c.1,6.2,2.3,11.5,6.3,16.2,4,4.6,8.6,8.6,13.6,12.1,3.8,2.6,4.7,7.3,11.1,11.7,8.3,5.8,20.7,9.8,30.8,11.9,22.8,4.7,46.1,5.8,69.2,3.1,14.3-1.7,32.1-6,44.2-13.7,3.9-2.5,6.9-5.6,8.9-9.6.9-1.7,2.2-2.9,3.7-4,8.6-6.2,18-14,19-25l.2-20.2v-34.6c-.1,0,.6-58,.6-58l.2-36.8,1-71.9c0-6.3-.7-17.4-3.5-22h0ZM153.1,13c9.9,1.8,19.3,4.2,28.4,8.3,2,.9,4.5,2.1,5.4,4.1.6,1.5-.9,3.3-1.8,4.3-1-4.4-9-7.4-13.7-8.8-3.3-1-6.6-2.4-10.1-1.7,1.8,1.4,3.6,1.7,5.4,2.4,5.5,2,13.6,4.7,16.7,9.5-1.6,1.4-3.2,2.1-5.1,3-1.5-2.5-3.8-4-6.6-5.2-17.6-7.8-39-9.7-58.3-10.1l-6.1-4.1c11.1-.2,22,.4,33.1,1.4.9,0,1.7.3,2.5-.2l-6.7-1.6c-10.9-1.8-21.7-2.4-32.8-2-1.9-1.2-3.8-1.9-5.4-3.4,18.7-.5,36.9.7,55,4h0ZM157.3,34c-1.5-1.3-3.3-2.2-5.2-2.9-8.8-3.1-18-3.8-27.4-2.8-1.7-2-3.3-3.6-5.5-5.3,11.8.4,23.6,1.6,35.3,4.4,6.6,1.6,15.6,3.9,20,8.4-5.4,1.6-10.4,2.7-16.3,3.8,1.1-2.1,1-4-.8-5.5ZM62.2,7.9c5.5-5.2,15.8-5.2,23.2-1.9,4.7,2.1,8.9,4.6,13.1,7.4l13.1,8.5c4.1,2.7,9.4,6.2,10.6,10.4,2.2,8.3-15.6,9.2-27.3,3.4-9.8-4.8-18.9-10.2-28.3-15.7-2.4-1.4-4.2-3.6-5.5-5.9-1.2-2.2-.7-4.6,1.1-6.3ZM99.6,44.1c-15.9-.2-31.6-1.5-47.4-4.5-5.5-1-10.6-2.2-16.1-4.1,3.1-2.6,6.6-4,10.2-5.2,6.9-2.3,13.7-3.8,20.8-5,4.7,3.1,9.4,5.3,14.3,7.9,5.8,3.1,11.3,6.1,17.4,8.6.4.6.8,1,.7,2.3ZM62.6,22c-8.3,1.5-16.1,3.1-24.1,6.2v-4.5c5.9-3,13.1-4.6,19.6-6.1,1.2,1.7,2.6,3,4.4,4.5ZM23.1,25.8c3-4.3,15.2-8.6,21-9.9l12.4-2.9c.2,1.1.5,1.8.9,2.7-6.5,1.1-12.7,2.4-19,4.4-5.3,1.7-11.8,4-13.9,8.9-1.3-.5-2.2-2.1-1.4-3.2ZM33.5,30c-.5-1.1-1-2.8.3-3.7,0,1.2.3,2.1-.3,3.7ZM21.7,31.9c3,3,6.1,4.9,9.7,6.5,14.9,6.1,33.7,8.6,50,9.6,28.6,1.7,59.5.8,87.4-5.6,6.9-1.6,14.8-4.8,19.8-9.6,0,4.9-4.9,8.2-9.4,10.1-13.8,6.2-33.4,9-48.6,10.1-23.6,1.6-48.4,1.1-71.7-2.8-10.1-1.7-29.1-6-35.5-12.6-1.4-1.5-1.8-3.7-1.7-5.7ZM169.8,343l-23.2,7c-2.2.6-4.2,1.1-6.1,2.8,2.1.8,4.1.4,6.2.2,9-1,17.4-3,26.2-5.5-6.7,4.2-13.9,6.8-21.6,8.8-29,7.6-60.9,6.4-90.1-.2-6.5-1.5-12.4-3.4-18.4-5.9-3.1-1.3-6.2-2.7-8.8-5,9.4,3.5,18.6,5.8,28.5,7.4,12.6,2,25,3.2,37.7,3.5,5.3.1,10.2-.7,15.1-1.4l-34.3-3c-15.3-1.4-40.1-6.8-53.4-14.9l16.4,4.9c35.8,9.2,77.7,9.7,113.9,2.3,8.9-1.8,17.1-4.4,25.8-7.6-4.3,3.2-9.1,5.2-14.2,6.7h0ZM205.5,95.5l-1,91-.8,90.3.2,24.7-.4,10.5c-.6,15.1-30.4,23.2-43.6,26.1-31.2,6.9-66.1,7.5-97.6,2-15.3-2.7-35.1-7.3-47.6-16-4.7-3.3-7.4-7.9-7.4-13.6l-.2-21.2v-29.9c0,0-.6-85.5-.6-85.5l-1.2-76c-.2-9.5.2-19.9,4.8-28.1l10-17.5c1.6-2.8,2.8-5.4,3.7-8.5,7,4.7,15.8,7.3,24,9.4,23.3,5.4,49.4,6.5,73.3,5.5,13.3-.5,26.2-1.9,39.2-4.6,9.3-2.1,19.1-4.4,26.8-10.1,1.2,4.5,3.3,8.1,5.6,11.9l10.2,16.6c2.6,4.2,2.6,16.3,2.6,22.8h0ZM89.2,25.5c-.3,3.7,6,7.6,10.2,9.2,4.9,1.8,9.7,0,8.9-1.4-.6-1.2-5.9-.4-9.3-2.4,3.7-1.8,7.5-1.6,11-.3,1.2.3,2.7.4,3.6-.5,1.4-1.4-1.1-4.4-4.1-6-5.4-3-13.7-4.9-18.7-1.3-1,.7-1.7,1.8-1.8,2.8ZM109.1,27.3c-2.7,0-5-.8-7.6-.2-2.2.4-3.9,1.1-5.4,2.5-1.3-.7-2.8-1.8-3-3.4-.3-3.4,11.3-2,16,1.1ZM91.6,17.5c1.8-3.5-2.7-6.9-6.7-8.7-5.6-2.7-12.2-3-17.7,0-1.8,1-2.4,2.9-1.8,4.7,3.2,8.5,22.6,11.1,26.2,4ZM86.5,15c.8,0,1.4.4,1.6.9,1,3.1-9.5,3.5-14.9.6,4.6-1,8.9-1,13.4-1.5h0ZM68.6,11.8c3.4-2.8,11.5-1.7,15.9.8-5.1.4-9.5.6-14.4,1.4-1,0-2.2-1.5-1.4-2.2h0ZM58,30.4c1.8-.6,3.3-.2,4.7-1.4-2.3-.2-4.8.3-6.8,1.8.5,1.5,1.8,2,3.2,2.5,8.9,3.2,18,5.4,27.5,7.6.3-1.2-.8-1.7-1.8-2l-21.8-6.5c-1.8-.5-3.4-.9-4.9-1.9ZM84.9,8.8c-5.6-2.7-12.2-3-17.7,0-1.8,1-2.4,2.9-1.8,4.7,3.2,8.5,22.6,11.1,26.2,4,1.8-3.5-2.7-6.9-6.7-8.7ZM68.6,11.8c3.4-2.8,11.5-1.7,15.9.8-5.1.4-9.5.6-14.4,1.4-1,0-2.2-1.5-1.4-2.2h0ZM73.1,16.5c4.6-1,8.9-1,13.4-1.5.8,0,1.4.4,1.6.9,1,3.1-9.5,3.5-14.9.6h0ZM109.7,24c-5.4-3-13.7-4.9-18.7-1.3-1,.7-1.7,1.8-1.8,2.8-.3,3.7,6,7.6,10.2,9.2,4.9,1.8,9.7,0,8.9-1.4-.6-1.2-5.9-.4-9.3-2.4,3.7-1.8,7.5-1.6,11-.3,1.2.3,2.7.4,3.6-.5,1.4-1.4-1.1-4.4-4.1-6ZM101.5,27.2c-2.2.4-3.9,1.1-5.4,2.5-1.3-.7-2.8-1.8-3-3.4-.3-3.4,11.3-2,16,1.1-2.7,0-5-.8-7.6-.2ZM84.7,38.8l-21.8-6.5c-1.8-.5-3.4-.9-4.9-1.9,1.8-.6,3.3-.2,4.7-1.4-2.3-.2-4.8.3-6.8,1.8.5,1.5,1.8,2,3.2,2.5,8.9,3.2,18,5.4,27.5,7.6.3-1.2-.8-1.7-1.8-2ZM109.7,24c-5.4-3-13.7-4.9-18.7-1.3-1,.7-1.7,1.8-1.8,2.8-.3,3.7,6,7.6,10.2,9.2,4.9,1.8,9.7,0,8.9-1.4-.6-1.2-5.9-.4-9.3-2.4,3.7-1.8,7.5-1.6,11-.3,1.2.3,2.7.4,3.6-.5,1.4-1.4-1.1-4.4-4.1-6ZM101.5,27.2c-2.2.4-3.9,1.1-5.4,2.5-1.3-.7-2.8-1.8-3-3.4-.3-3.4,11.3-2,16,1.1-2.7,0-5-.8-7.6-.2ZM84.9,8.8c-5.6-2.7-12.2-3-17.7,0-1.8,1-2.4,2.9-1.8,4.7,3.2,8.5,22.6,11.1,26.2,4,1.8-3.5-2.7-6.9-6.7-8.7ZM68.6,11.8c3.4-2.8,11.5-1.7,15.9.8-5.1.4-9.5.6-14.4,1.4-1,0-2.2-1.5-1.4-2.2h0ZM73.1,16.5c4.6-1,8.9-1,13.4-1.5.8,0,1.4.4,1.6.9,1,3.1-9.5,3.5-14.9.6h0ZM84.7,38.8l-21.8-6.5c-1.8-.5-3.4-.9-4.9-1.9,1.8-.6,3.3-.2,4.7-1.4-2.3-.2-4.8.3-6.8,1.8.5,1.5,1.8,2,3.2,2.5,8.9,3.2,18,5.4,27.5,7.6.3-1.2-.8-1.7-1.8-2ZM84.9,8.8c-5.6-2.7-12.2-3-17.7,0-1.8,1-2.4,2.9-1.8,4.7,3.2,8.5,22.6,11.1,26.2,4,1.8-3.5-2.7-6.9-6.7-8.7ZM68.6,11.8c3.4-2.8,11.5-1.7,15.9.8-5.1.4-9.5.6-14.4,1.4-1,0-2.2-1.5-1.4-2.2h0ZM73.1,16.5c4.6-1,8.9-1,13.4-1.5.8,0,1.4.4,1.6.9,1,3.1-9.5,3.5-14.9.6h0ZM109.7,24c-5.4-3-13.7-4.9-18.7-1.3-1,.7-1.7,1.8-1.8,2.8-.3,3.7,6,7.6,10.2,9.2,4.9,1.8,9.7,0,8.9-1.4-.6-1.2-5.9-.4-9.3-2.4,3.7-1.8,7.5-1.6,11-.3,1.2.3,2.7.4,3.6-.5,1.4-1.4-1.1-4.4-4.1-6ZM101.5,27.2c-2.2.4-3.9,1.1-5.4,2.5-1.3-.7-2.8-1.8-3-3.4-.3-3.4,11.3-2,16,1.1-2.7,0-5-.8-7.6-.2ZM109.7,24c-5.4-3-13.7-4.9-18.7-1.3-1,.7-1.7,1.8-1.8,2.8-.3,3.7,6,7.6,10.2,9.2,4.9,1.8,9.7,0,8.9-1.4-.6-1.2-5.9-.4-9.3-2.4,3.7-1.8,7.5-1.6,11-.3,1.2.3,2.7.4,3.6-.5,1.4-1.4-1.1-4.4-4.1-6ZM101.5,27.2c-2.2.4-3.9,1.1-5.4,2.5-1.3-.7-2.8-1.8-3-3.4-.3-3.4,11.3-2,16,1.1-2.7,0-5-.8-7.6-.2ZM84.9,8.8c-5.6-2.7-12.2-3-17.7,0-1.8,1-2.4,2.9-1.8,4.7,3.2,8.5,22.6,11.1,26.2,4,1.8-3.5-2.7-6.9-6.7-8.7ZM68.6,11.8c3.4-2.8,11.5-1.7,15.9.8-5.1.4-9.5.6-14.4,1.4-1,0-2.2-1.5-1.4-2.2h0ZM73.1,16.5c4.6-1,8.9-1,13.4-1.5.8,0,1.4.4,1.6.9,1,3.1-9.5,3.5-14.9.6h0ZM84.9,8.8c-5.6-2.7-12.2-3-17.7,0-1.8,1-2.4,2.9-1.8,4.7,3.2,8.5,22.6,11.1,26.2,4,1.8-3.5-2.7-6.9-6.7-8.7ZM68.6,11.8c3.4-2.8,11.5-1.7,15.9.8-5.1.4-9.5.6-14.4,1.4-1,0-2.2-1.5-1.4-2.2h0ZM73.1,16.5c4.6-1,8.9-1,13.4-1.5.8,0,1.4.4,1.6.9,1,3.1-9.5,3.5-14.9.6h0ZM109.7,24c-5.4-3-13.7-4.9-18.7-1.3-1,.7-1.7,1.8-1.8,2.8-.3,3.7,6,7.6,10.2,9.2,4.9,1.8,9.7,0,8.9-1.4-.6-1.2-5.9-.4-9.3-2.4,3.7-1.8,7.5-1.6,11-.3,1.2.3,2.7.4,3.6-.5,1.4-1.4-1.1-4.4-4.1-6ZM101.5,27.2c-2.2.4-3.9,1.1-5.4,2.5-1.3-.7-2.8-1.8-3-3.4-.3-3.4,11.3-2,16,1.1-2.7,0-5-.8-7.6-.2ZM109.7,24c-5.4-3-13.7-4.9-18.7-1.3-1,.7-1.7,1.8-1.8,2.8-.3,3.7,6,7.6,10.2,9.2,4.9,1.8,9.7,0,8.9-1.4-.6-1.2-5.9-.4-9.3-2.4,3.7-1.8,7.5-1.6,11-.3,1.2.3,2.7.4,3.6-.5,1.4-1.4-1.1-4.4-4.1-6ZM101.5,27.2c-2.2.4-3.9,1.1-5.4,2.5-1.3-.7-2.8-1.8-3-3.4-.3-3.4,11.3-2,16,1.1-2.7,0-5-.8-7.6-.2ZM84.9,8.8c-5.6-2.7-12.2-3-17.7,0-1.8,1-2.4,2.9-1.8,4.7,3.2,8.5,22.6,11.1,26.2,4,1.8-3.5-2.7-6.9-6.7-8.7ZM68.6,11.8c3.4-2.8,11.5-1.7,15.9.8-5.1.4-9.5.6-14.4,1.4-1,0-2.2-1.5-1.4-2.2h0ZM73.1,16.5c4.6-1,8.9-1,13.4-1.5.8,0,1.4.4,1.6.9,1,3.1-9.5,3.5-14.9.6h0ZM84.9,8.8c-5.6-2.7-12.2-3-17.7,0-1.8,1-2.4,2.9-1.8,4.7,3.2,8.5,22.6,11.1,26.2,4,1.8-3.5-2.7-6.9-6.7-8.7ZM68.6,11.8c3.4-2.8,11.5-1.7,15.9.8-5.1.4-9.5.6-14.4,1.4-1,0-2.2-1.5-1.4-2.2h0ZM73.1,16.5c4.6-1,8.9-1,13.4-1.5.8,0,1.4.4,1.6.9,1,3.1-9.5,3.5-14.9.6h0ZM109.7,24c-5.4-3-13.7-4.9-18.7-1.3-1,.7-1.7,1.8-1.8,2.8-.3,3.7,6,7.6,10.2,9.2,4.9,1.8,9.7,0,8.9-1.4-.6-1.2-5.9-.4-9.3-2.4,3.7-1.8,7.5-1.6,11-.3,1.2.3,2.7.4,3.6-.5,1.4-1.4-1.1-4.4-4.1-6ZM101.5,27.2c-2.2.4-3.9,1.1-5.4,2.5-1.3-.7-2.8-1.8-3-3.4-.3-3.4,11.3-2,16,1.1-2.7,0-5-.8-7.6-.2ZM109.7,24c-5.4-3-13.7-4.9-18.7-1.3-1,.7-1.7,1.8-1.8,2.8-.3,3.7,6,7.6,10.2,9.2,4.9,1.8,9.7,0,8.9-1.4-.6-1.2-5.9-.4-9.3-2.4,3.7-1.8,7.5-1.6,11-.3,1.2.3,2.7.4,3.6-.5,1.4-1.4-1.1-4.4-4.1-6ZM101.5,27.2c-2.2.4-3.9,1.1-5.4,2.5-1.3-.7-2.8-1.8-3-3.4-.3-3.4,11.3-2,16,1.1-2.7,0-5-.8-7.6-.2ZM84.9,8.8c-5.6-2.7-12.2-3-17.7,0-1.8,1-2.4,2.9-1.8,4.7,3.2,8.5,22.6,11.1,26.2,4,1.8-3.5-2.7-6.9-6.7-8.7ZM68.6,11.8c3.4-2.8,11.5-1.7,15.9.8-5.1.4-9.5.6-14.4,1.4-1,0-2.2-1.5-1.4-2.2h0ZM73.1,16.5c4.6-1,8.9-1,13.4-1.5.8,0,1.4.4,1.6.9,1,3.1-9.5,3.5-14.9.6h0Z"/>
</svg>