<?xml version="1.0" encoding="UTF-8"?>
<svg id="Layer_1" data-name="Layer 1" xmlns="http://www.w3.org/2000/svg" viewBox="0 0 1368 768">
  <defs>
    <style>
      .cls-1 {
        fill: #010101;
      }

      .cls-2 {
        fill: #000100;
      }
    </style>
  </defs>
  <path class="cls-2" d="M929.3,266.43l1.93,163.21c.04,3.83-2.16,5.82-6.17,6.03l-222.48,11.51-244.46,12.24c-3.62.18-7.37-2.24-7.45-5.87l-2.68-117.85,56.61-13.14,55.14,11.24,1.11,49.91c2.45.42,4.74.34,7.62-.12l-.48-22.1,36.33-191.8,42.4,186.87,1.07,24.07c2.09.51,4.88.47,7.33-.32l-.11-30.81,21.22-31.17,19.4-1.7v-11.27s31.45-1.2,31.45-1.2c1.27,3.92.69,7.41.6,11.82l21.9-.25,21.31,30.76.03,16.8c2.67.91,5.6,1.04,7.83-.09l-.21-41.26,40.72-31.55c2.88.95,4.66,2.4,6.67,4.01l37.21,29.8.82,54.13c2.39.67,4.54.5,7.16-.21l-.98-111.01c10.3-1.98,19.46-7.07,29.24-7.08,10.16-.02,19.66,4.38,29.92,6.4Z"/>
  <path class="cls-2" d="M948.35,146.19c-.21-16.27-12.92-26.4-27.99-26.67l-206.9-3.78-265.84-4.94c-16.7-.31-32.26,11.15-31.87,29.34l6.96,319.26c.39,17.83,16.13,29.68,32.93,28.75l191.91-10.53,279.58-15.87c14.68-.83,25.07-15.2,24.9-28.18l-3.68-287.38ZM928.75,450.4l-474.98,25.57c-11.79.64-19.02-8.36-19.25-19.37l-6.55-314.49c-.25-12.12,8.48-19.06,19.46-18.79l45.26,1.09,231.77,3.43,196.95,3.21c7.95.13,16.78,4.63,16.91,14.29l3.72,289.75c-1.68,7.71-5.48,14.89-13.29,15.31Z"/>
  <path d="M931.23,429.64c.04,3.83-2.16,5.82-6.17,6.03l-222.48,11.51-244.46,12.24c-3.62.18-7.37-2.24-7.45-5.87l-2.68-117.85,56.61-13.14,55.14,11.24,1.11,49.91c2.45.42,4.74.34,7.62-.12l-.48-22.1,36.33-191.8,42.4,186.87,1.07,24.07c2.09.51,4.88.47,7.33-.32l-.11-30.81,21.22-31.17,19.4-1.7v-11.27s31.45-1.2,31.45-1.2c1.27,3.92.69,7.41.6,11.82l21.9-.25,21.31,30.76.03,16.8c2.67.91,5.6,1.04,7.83-.09l-.21-41.26,40.72-31.55c2.88.95,4.66,2.4,6.67,4.01l37.21,29.8.82,54.13c2.39.67,4.54.5,7.16-.21l-.98-111.01c10.3-1.98,19.46-7.07,29.24-7.08,10.16-.02,19.66,4.38,29.92,6.4l1.93,163.21Z"/>
  <path class="cls-1" d="M617.53,602.14l-11.98.81-13.63-28.33c-9.91,10.95-7.17,16.33-7.07,29.58-3.17,1.01-6.4.93-10.01,1.21l-1.17-65.72c3.12-.8,6.22-.53,9.87-.57l1.12,29.32,18.51-30.19,11.73-.94-16.87,27.24,19.5,37.59Z"/>
  <path class="cls-1" d="M657.39,537.04c-5.7-3.18-11.98-3.17-17.53-.71-7.15,3.17-12.64,10.38-12.64,18.28l.02,26.34c.01,6.19,2.75,12.56,8.18,16.49,6.14,4.46,14.16,4.41,20.86,1.03,5.28-2.67,9.75-8.93,10.79-16.12,2.23-15.38,2.78-38.34-9.68-45.31ZM647.95,591.14c-4.81.23-9.64-2.9-10.55-8.37-1.59-9.59-1.99-19.72-.31-29.23.97-5.44,5.38-8.99,10.15-9.32,5.14-.35,9.68,3.72,10.52,9.45,2.2,15.23,3.13,36.85-9.81,37.47Z"/>
  <path class="cls-1" d="M712.02,565.09c8.28-4.68,11.27-13.29,8.94-21.88-1.79-7.19-7.92-11.72-15.47-11.41l-22.5,1.58,1.08,64.03c3.73.07,6.25-.03,9.67-.78l-.36-28.63,9.36-.7,10.24,28.16,10.48-.76-11.44-29.61ZM708.33,556.64c-4.63,1.86-9.51,1.57-15.32,1.83l-.13-16.29,14.31-.65c3.25-.15,4.93,4.48,5.09,6.91.22,3.17-.63,6.86-3.95,8.2Z"/>
  <path class="cls-1" d="M772.3,574.78c-.36,9.45-6.13,16.71-16.02,18.41-6.06,1.03-11.76.31-16.22-3.34-4.11-3.36-6.92-8.9-6.95-15,3.19-1.13,5.98-1.46,9.29-1.68.38,3.39,1.07,6.49,3.07,8.28,2.71,2.43,6.25,3.18,9.84,2.28,3.38-.85,5.99-2.89,7.01-5.69,5.62-15.4-18.66-11.34-25.35-23.62-3.36-6.18-2.55-13.8,1.46-18.98,4.11-5.31,10.55-8.07,17.66-7.17,8.43,1.06,14.62,7.47,14.98,15.63l-9.37,1.97c-.57-5.94-4.73-9.11-10.17-8.14-3.65.65-6.13,2.88-6.95,5.87-1.01,3.67.61,7.31,4.35,8.82l12.74,5.15c7.42,2.99,10.93,9.45,10.63,17.21Z"/>
  <path class="cls-1" d="M822.44,541.92c-.76-5.19-3.42-10.44-7.59-13.45-5.34-3.84-12.37-4.09-18.81-.96-13.41,6.51-12.35,29-10.45,45.21.51,4.37,2.57,9.33,5.97,12.49,5.4,5.02,12.87,5.29,19.36,2.76,14.45-5.65,13.93-29.5,11.52-46.05ZM803.94,580.17c-4.55.21-8.53-3.47-9.3-8.71-1.36-9.19-1.46-18.99.08-28.13.85-5.1,5.07-8.35,9.31-8.61,5.03-.31,9.02,3.5,9.69,8.97,1.92,15.6,3,35.9-9.78,36.48Z"/>
  <path class="cls-1" d="M952.19,533.84l-.69-38.18c-.13-7.17-5.83-16.21-14.02-15.74l-83.1,4.76-242.1,12.75-175.68,9.45c-10.17.55-17.42,10.16-17.17,19.97l2.88,113.82c.28,10.96,10.08,17.32,20.42,16.46l307.22-25.31,187.86-15.59c8.18-.68,14.46-9.71,14.45-17.37l-.07-65.02ZM935.21,608.97l-454.92,36.9-38.86,2.96c-5.75.76-10.56-3.11-10.72-9.18l-2.93-110.7c-.17-6.32,2.12-11.4,8.23-13.86l233.73-12.79,265.52-14.6c5.61-.31,8.47,2.82,9.85,7.88l.54,103.05c.03,6.13-4.72,9.88-10.44,10.34Z"/>
  <path class="cls-1" d="M617.53,602.14l-11.98.81-13.63-28.33c-9.91,10.95-7.17,16.33-7.07,29.58-3.17,1.01-6.4.93-10.01,1.21l-1.17-65.72c3.12-.8,6.22-.53,9.87-.57l1.12,29.32,18.51-30.19,11.73-.94-16.87,27.24,19.5,37.59Z"/>
  <path class="cls-1" d="M772.3,574.78c-.36,9.45-6.13,16.71-16.02,18.41-6.06,1.03-11.76.31-16.22-3.34-4.11-3.36-6.92-8.9-6.95-15,3.19-1.13,5.98-1.46,9.29-1.68.38,3.39,1.07,6.49,3.07,8.28,2.71,2.43,6.25,3.18,9.84,2.28,3.38-.85,5.99-2.89,7.01-5.69,5.62-15.4-18.66-11.34-25.35-23.62-3.36-6.18-2.55-13.8,1.46-18.98,4.11-5.31,10.55-8.07,17.66-7.17,8.43,1.06,14.62,7.47,14.98,15.63l-9.37,1.97c-.57-5.94-4.73-9.11-10.17-8.14-3.65.65-6.13,2.88-6.95,5.87-1.01,3.67.61,7.31,4.35,8.82l12.74,5.15c7.42,2.99,10.93,9.45,10.63,17.21Z"/>
  <path class="cls-1" d="M712.02,565.09c8.28-4.68,11.27-13.29,8.94-21.88-1.79-7.19-7.92-11.72-15.47-11.41l-22.5,1.58,1.08,64.03c3.73.07,6.25-.03,9.67-.78l-.36-28.63,9.36-.7,10.24,28.16,10.48-.76-11.44-29.61ZM708.33,556.64c-4.63,1.86-9.51,1.57-15.32,1.83l-.13-16.29,14.31-.65c3.25-.15,4.93,4.48,5.09,6.91.22,3.17-.63,6.86-3.95,8.2Z"/>
  <path class="cls-1" d="M657.39,537.04c-5.7-3.18-11.98-3.17-17.53-.71-7.15,3.17-12.64,10.38-12.64,18.28l.02,26.34c.01,6.19,2.75,12.56,8.18,16.49,6.14,4.46,14.16,4.41,20.86,1.03,5.28-2.67,9.75-8.93,10.79-16.12,2.23-15.38,2.78-38.34-9.68-45.31ZM647.95,591.14c-4.81.23-9.64-2.9-10.55-8.37-1.59-9.59-1.99-19.72-.31-29.23.97-5.44,5.38-8.99,10.15-9.32,5.14-.35,9.68,3.72,10.52,9.45,2.2,15.23,3.13,36.85-9.81,37.47Z"/>
  <path class="cls-1" d="M822.44,541.92c-.76-5.19-3.42-10.44-7.59-13.45-5.34-3.84-12.37-4.09-18.81-.96-13.41,6.51-12.35,29-10.45,45.21.51,4.37,2.57,9.33,5.97,12.49,5.4,5.02,12.87,5.29,19.36,2.76,14.45-5.65,13.93-29.5,11.52-46.05ZM803.94,580.17c-4.55.21-8.53-3.47-9.3-8.71-1.36-9.19-1.46-18.99.08-28.13.85-5.1,5.07-8.35,9.31-8.61,5.03-.31,9.02,3.5,9.69,8.97,1.92,15.6,3,35.9-9.78,36.48Z"/>
</svg>