<?xml version="1.0" encoding="UTF-8"?>
<svg id="Layer_1" data-name="Layer 1" xmlns="http://www.w3.org/2000/svg" viewBox="0 0 1408 768">
  <defs>
    <style>
      .cls-1 {
        fill: #010101;
      }

      .cls-2 {
        fill: #080808;
      }

      .cls-3 {
        fill: #020202;
      }

      .cls-4 {
        fill: #010202;
      }

      .cls-5 {
        fill: #030303;
      }

      .cls-6 {
        fill: #050605;
      }
    </style>
  </defs>
  <path d="M592.76,274.51c.55,1.23-.47,4.45-3.09,4.17l-30.47-3.4c-2.25-.24-6.72-1.24-7.34-3.66-.58-2.23,3.65-3.15,5.5-2.96l32.59,3.33c1.73.19,2.45,1.68,2.82,2.53Z"/>
  <path d="M802.71,407.33c0,5.38-4.36,9.74-9.74,9.74s-9.74-4.36-9.74-9.74,4.36-9.72,9.74-9.72,9.74,4.36,9.74,9.72Z"/>
  <path d="M820.49,415.8c22.14,7.46,38.02,24.31,42.9,46.65.22.99-.34,2.29-.8,2.7-.55.52-2.23-.03-2.94-1.2l-12.95-21.69c-7.18-8.78-16.54-14.76-26.5-18.97-4.74-2.01-6.38-4.6-7.26-9.61l-12.01-68.35c-6.35-36.18-35.82-66.81-72.23-70.77l-136.19-14.84-128.98-14.08c-1.48-.16-2.87-1.42-3.03-2.2-.28-1.36,1.24-3,3.12-2.96,19.17.59,36.97,2.75,56.35,4.76l206.32,21.49c26.84,2.79,50.53,16.68,66.46,38.39,9.21,14.64,15.04,30.15,17.76,47.32l9.99,63.35Z"/>
  <circle cx="957.67" cy="166.13" r="5.6"/>
  <path d="M1040.86,159.43c-3.3-7.48-11.08-12.38-20.2-14.2-6.55-1.3-12.24,3.46-18.5,3.56l-49.17.78c-8.53.13-16.08,5.39-17.36,14.56-3.68,26.11,8.2,60.97,36.04,58.67,26.26-2.19,50.87-15.49,66.41-36.41,5.96-8.02,6.65-18.13,2.78-26.96ZM957.47,210.98c-3.99-1.46-5.25-4.86-7.45-8.1-5.39-11.16-7.95-23.29-7.12-35.75.8-5.53,4.63-9.66,10.21-9.66l38.39.07c-12.64,10.43-23.22,21.56-32.73,34-3.9,5.93-4.66,11.79-1.3,19.43ZM967.52,207.05c-1.51-.4-4.23-4.42-2.45-5.72l28.79-20.97c1.67-1.21,4.74-.25,5.66,1,.9,1.26.65,4.33-1.26,5.85l-24.63,19.73c-2.11,1.68-4.8.44-6.1.1ZM979.34,213.47l23.6-21.03c4.51-4.03,4.79-10.43,2.28-14.47-3-4.83-9.03-6.25-14.01-3.44l-14.5,8.14,15.87-15.65c11.75-11.6,30.31-19.3,39.15-6.49,14.75,21.37-27.16,48.87-52.39,52.93Z"/>
  <path d="M1098.72,269.93c-44.16,11.29-51.59,41.97-56.17,41.07-7.77-1.52,11.87-43.68,68.87-51.04,1.86-.25,3.4,1.36,3.59,2.44.25,1.36-.47,3.49-2.29,3.95l-13.99,3.59Z"/>
  <path d="M1021.96,521.67c-.49-.5-1.63-.93-2.96-.81l-14.62,1.45-7.06-14.07c-.71-1.42-3.4-3.09-4.29-1.37-2.78,5.29-3.66,11.07-5.23,17.11l-15.61,1.73c-1.48.16-2.41,1.14-2.45,2.32-.03.95.43,2.1,1.57,2.93l12.72,9.24-4,14.7c-.49,1.8.65,3.5,2.04,3.75.83.15,2.22-.3,3.21-1.06l12.59-9.9c11.01,7.2,21.99,13.29,18.56,4.39l-5.97-15.46,11.41-10.83c1.14-1.06.95-3.21.09-4.11ZM1021.96,521.67c-.49-.5-1.63-.93-2.96-.81l-14.62,1.45-7.06-14.07c-.71-1.42-3.4-3.09-4.29-1.37-2.78,5.29-3.66,11.07-5.23,17.11l-15.61,1.73c-1.48.16-2.41,1.14-2.45,2.32-.03.95.43,2.1,1.57,2.93l12.72,9.24-4,14.7c-.49,1.8.65,3.5,2.04,3.75.83.15,2.22-.3,3.21-1.06l12.59-9.9c11.01,7.2,21.99,13.29,18.56,4.39l-5.97-15.46,11.41-10.83c1.14-1.06.95-3.21.09-4.11ZM1021.96,521.67c-.49-.5-1.63-.93-2.96-.81l-14.62,1.45-7.06-14.07c-.71-1.42-3.4-3.09-4.29-1.37-2.78,5.29-3.66,11.07-5.23,17.11l-15.61,1.73c-1.48.16-2.41,1.14-2.45,2.32-.03.95.43,2.1,1.57,2.93l12.72,9.24-4,14.7c-.49,1.8.65,3.5,2.04,3.75.83.15,2.22-.3,3.21-1.06l12.59-9.9c11.01,7.2,21.99,13.29,18.56,4.39l-5.97-15.46,11.41-10.83c1.14-1.06.95-3.21.09-4.11ZM1021.96,521.67c-.49-.5-1.63-.93-2.96-.81l-14.62,1.45-7.06-14.07c-.71-1.42-3.4-3.09-4.29-1.37-2.78,5.29-3.66,11.07-5.23,17.11l-15.61,1.73c-1.48.16-2.41,1.14-2.45,2.32-.03.95.43,2.1,1.57,2.93l12.72,9.24-4,14.7c-.49,1.8.65,3.5,2.04,3.75.83.15,2.22-.3,3.21-1.06l12.59-9.9c11.01,7.2,21.99,13.29,18.56,4.39l-5.97-15.46,11.41-10.83c1.14-1.06.95-3.21.09-4.11ZM1021.96,521.67c-.49-.5-1.63-.93-2.96-.81l-14.62,1.45-7.06-14.07c-.71-1.42-3.4-3.09-4.29-1.37-2.78,5.29-3.66,11.07-5.23,17.11l-15.61,1.73c-1.48.16-2.41,1.14-2.45,2.32-.03.95.43,2.1,1.57,2.93l12.72,9.24-4,14.7c-.49,1.8.65,3.5,2.04,3.75.83.15,2.22-.3,3.21-1.06l12.59-9.9c11.01,7.2,21.99,13.29,18.56,4.39l-5.97-15.46,11.41-10.83c1.14-1.06.95-3.21.09-4.11ZM1021.96,521.67c-.49-.5-1.63-.93-2.96-.81l-14.62,1.45-7.06-14.07c-.71-1.42-3.4-3.09-4.29-1.37-2.78,5.29-3.66,11.07-5.23,17.11l-15.61,1.73c-1.48.16-2.41,1.14-2.45,2.32-.03.95.43,2.1,1.57,2.93l12.72,9.24-4,14.7c-.49,1.8.65,3.5,2.04,3.75.83.15,2.22-.3,3.21-1.06l12.59-9.9c11.01,7.2,21.99,13.29,18.56,4.39l-5.97-15.46,11.41-10.83c1.14-1.06.95-3.21.09-4.11ZM996.58,492.03c-23.05,0-41.73,18.68-41.73,41.73s18.68,41.72,41.73,41.72,41.72-18.68,41.72-41.72-18.68-41.73-41.72-41.73ZM996.63,568.1c-18.93,0-34.26-15.32-34.26-34.26s15.32-34.26,34.26-34.26,34.26,15.34,34.26,34.26-15.34,34.26-34.26,34.26ZM1021.96,521.67c-.49-.5-1.63-.93-2.96-.81l-14.62,1.45-7.06-14.07c-.71-1.42-3.4-3.09-4.29-1.37-2.78,5.29-3.66,11.07-5.23,17.11l-15.61,1.73c-1.48.16-2.41,1.14-2.45,2.32-.03.95.43,2.1,1.57,2.93l12.72,9.24-4,14.7c-.49,1.8.65,3.5,2.04,3.75.83.15,2.22-.3,3.21-1.06l12.59-9.9c11.01,7.2,21.99,13.29,18.56,4.39l-5.97-15.46,11.41-10.83c1.14-1.06.95-3.21.09-4.11ZM1021.96,521.67c-.49-.5-1.63-.93-2.96-.81l-14.62,1.45-7.06-14.07c-.71-1.42-3.4-3.09-4.29-1.37-2.78,5.29-3.66,11.07-5.23,17.11l-15.61,1.73c-1.48.16-2.41,1.14-2.45,2.32-.03.95.43,2.1,1.57,2.93l12.72,9.24-4,14.7c-.49,1.8.65,3.5,2.04,3.75.83.15,2.22-.3,3.21-1.06l12.59-9.9c11.01,7.2,21.99,13.29,18.56,4.39l-5.97-15.46,11.41-10.83c1.14-1.06.95-3.21.09-4.11ZM1021.96,521.67c-.49-.5-1.63-.93-2.96-.81l-14.62,1.45-7.06-14.07c-.71-1.42-3.4-3.09-4.29-1.37-2.78,5.29-3.66,11.07-5.23,17.11l-15.61,1.73c-1.48.16-2.41,1.14-2.45,2.32-.03.95.43,2.1,1.57,2.93l12.72,9.24-4,14.7c-.49,1.8.65,3.5,2.04,3.75.83.15,2.22-.3,3.21-1.06l12.59-9.9c11.01,7.2,21.99,13.29,18.56,4.39l-5.97-15.46,11.41-10.83c1.14-1.06.95-3.21.09-4.11ZM1103.96,620.22c-4.18-1.45-9.38.35-12,4.42-6.65,10.33-14.19,19.09-23.6,26.84-4.18,3.44-4.73,9.32-2.62,12.8,8.23,13.64,29.87-5.65,40.18-21.21,2.48-3.77,3.84-7.86,4.33-12.21.58-5.04-2.25-9.24-6.3-10.64ZM1021.96,521.67c-.49-.5-1.63-.93-2.96-.81l-14.62,1.45-7.06-14.07c-.71-1.42-3.4-3.09-4.29-1.37-2.78,5.29-3.66,11.07-5.23,17.11l-15.61,1.73c-1.48.16-2.41,1.14-2.45,2.32-.03.95.43,2.1,1.57,2.93l12.72,9.24-4,14.7c-.49,1.8.65,3.5,2.04,3.75.83.15,2.22-.3,3.21-1.06l12.59-9.9c11.01,7.2,21.99,13.29,18.56,4.39l-5.97-15.46,11.41-10.83c1.14-1.06.95-3.21.09-4.11ZM1021.96,521.67c-.49-.5-1.63-.93-2.96-.81l-14.62,1.45-7.06-14.07c-.71-1.42-3.4-3.09-4.29-1.37-2.78,5.29-3.66,11.07-5.23,17.11l-15.61,1.73c-1.48.16-2.41,1.14-2.45,2.32-.03.95.43,2.1,1.57,2.93l12.72,9.24-4,14.7c-.49,1.8.65,3.5,2.04,3.75.83.15,2.22-.3,3.21-1.06l12.59-9.9c11.01,7.2,21.99,13.29,18.56,4.39l-5.97-15.46,11.41-10.83c1.14-1.06.95-3.21.09-4.11ZM996.58,492.03c-23.05,0-41.73,18.68-41.73,41.73s18.68,41.72,41.73,41.72,41.72-18.68,41.72-41.72-18.68-41.73-41.72-41.73ZM996.63,568.1c-18.93,0-34.26-15.32-34.26-34.26s15.32-34.26,34.26-34.26,34.26,15.34,34.26,34.26-15.34,34.26-34.26,34.26ZM1021.96,521.67c-.49-.5-1.63-.93-2.96-.81l-14.62,1.45-7.06-14.07c-.71-1.42-3.4-3.09-4.29-1.37-2.78,5.29-3.66,11.07-5.23,17.11l-15.61,1.73c-1.48.16-2.41,1.14-2.45,2.32-.03.95.43,2.1,1.57,2.93l12.72,9.24-4,14.7c-.49,1.8.65,3.5,2.04,3.75.83.15,2.22-.3,3.21-1.06l12.59-9.9c11.01,7.2,21.99,13.29,18.56,4.39l-5.97-15.46,11.41-10.83c1.14-1.06.95-3.21.09-4.11ZM1021.96,521.67c-.49-.5-1.63-.93-2.96-.81l-14.62,1.45-7.06-14.07c-.71-1.42-3.4-3.09-4.29-1.37-2.78,5.29-3.66,11.07-5.23,17.11l-15.61,1.73c-1.48.16-2.41,1.14-2.45,2.32-.03.95.43,2.1,1.57,2.93l12.72,9.24-4,14.7c-.49,1.8.65,3.5,2.04,3.75.83.15,2.22-.3,3.21-1.06l12.59-9.9c11.01,7.2,21.99,13.29,18.56,4.39l-5.97-15.46,11.41-10.83c1.14-1.06.95-3.21.09-4.11ZM1021.96,521.67c-.49-.5-1.63-.93-2.96-.81l-14.62,1.45-7.06-14.07c-.71-1.42-3.4-3.09-4.29-1.37-2.78,5.29-3.66,11.07-5.23,17.11l-15.61,1.73c-1.48.16-2.41,1.14-2.45,2.32-.03.95.43,2.1,1.57,2.93l12.72,9.24-4,14.7c-.49,1.8.65,3.5,2.04,3.75.83.15,2.22-.3,3.21-1.06l12.59-9.9c11.01,7.2,21.99,13.29,18.56,4.39l-5.97-15.46,11.41-10.83c1.14-1.06.95-3.21.09-4.11ZM1103.96,620.22c-4.18-1.45-9.38.35-12,4.42-6.65,10.33-14.19,19.09-23.6,26.84-4.18,3.44-4.73,9.32-2.62,12.8,8.23,13.64,29.87-5.65,40.18-21.21,2.48-3.77,3.84-7.86,4.33-12.21.58-5.04-2.25-9.24-6.3-10.64ZM1021.96,521.67c-.49-.5-1.63-.93-2.96-.81l-14.62,1.45-7.06-14.07c-.71-1.42-3.4-3.09-4.29-1.37-2.78,5.29-3.66,11.07-5.23,17.11l-15.61,1.73c-1.48.16-2.41,1.14-2.45,2.32-.03.95.43,2.1,1.57,2.93l12.72,9.24-4,14.7c-.49,1.8.65,3.5,2.04,3.75.83.15,2.22-.3,3.21-1.06l12.59-9.9c11.01,7.2,21.99,13.29,18.56,4.39l-5.97-15.46,11.41-10.83c1.14-1.06.95-3.21.09-4.11ZM1021.96,521.67c-.49-.5-1.63-.93-2.96-.81l-14.62,1.45-7.06-14.07c-.71-1.42-3.4-3.09-4.29-1.37-2.78,5.29-3.66,11.07-5.23,17.11l-15.61,1.73c-1.48.16-2.41,1.14-2.45,2.32-.03.95.43,2.1,1.57,2.93l12.72,9.24-4,14.7c-.49,1.8.65,3.5,2.04,3.75.83.15,2.22-.3,3.21-1.06l12.59-9.9c11.01,7.2,21.99,13.29,18.56,4.39l-5.97-15.46,11.41-10.83c1.14-1.06.95-3.21.09-4.11ZM996.58,492.03c-23.05,0-41.73,18.68-41.73,41.73s18.68,41.72,41.73,41.72,41.72-18.68,41.72-41.72-18.68-41.73-41.72-41.73ZM996.63,568.1c-18.93,0-34.26-15.32-34.26-34.26s15.32-34.26,34.26-34.26,34.26,15.34,34.26,34.26-15.34,34.26-34.26,34.26ZM1021.96,521.67c-.49-.5-1.63-.93-2.96-.81l-14.62,1.45-7.06-14.07c-.71-1.42-3.4-3.09-4.29-1.37-2.78,5.29-3.66,11.07-5.23,17.11l-15.61,1.73c-1.48.16-2.41,1.14-2.45,2.32-.03.95.43,2.1,1.57,2.93l12.72,9.24-4,14.7c-.49,1.8.65,3.5,2.04,3.75.83.15,2.22-.3,3.21-1.06l12.59-9.9c11.01,7.2,21.99,13.29,18.56,4.39l-5.97-15.46,11.41-10.83c1.14-1.06.95-3.21.09-4.11ZM1103.96,620.22c-4.18-1.45-9.38.35-12,4.42-6.65,10.33-14.19,19.09-23.6,26.84-4.18,3.44-4.73,9.32-2.62,12.8,8.23,13.64,29.87-5.65,40.18-21.21,2.48-3.77,3.84-7.86,4.33-12.21.58-5.04-2.25-9.24-6.3-10.64ZM996.58,492.03c-23.05,0-41.73,18.68-41.73,41.73s18.68,41.72,41.73,41.72,41.72-18.68,41.72-41.72-18.68-41.73-41.72-41.73ZM996.63,568.1c-18.93,0-34.26-15.32-34.26-34.26s15.32-34.26,34.26-34.26,34.26,15.34,34.26,34.26-15.34,34.26-34.26,34.26ZM1021.96,521.67c-.49-.5-1.63-.93-2.96-.81l-14.62,1.45-7.06-14.07c-.71-1.42-3.4-3.09-4.29-1.37-2.78,5.29-3.66,11.07-5.23,17.11l-15.61,1.73c-1.48.16-2.41,1.14-2.45,2.32-.03.95.43,2.1,1.57,2.93l12.72,9.24-4,14.7c-.49,1.8.65,3.5,2.04,3.75.83.15,2.22-.3,3.21-1.06l12.59-9.9c11.01,7.2,21.99,13.29,18.56,4.39l-5.97-15.46,11.41-10.83c1.14-1.06.95-3.21.09-4.11ZM1103.96,620.22c-4.18-1.45-9.38.35-12,4.42-6.65,10.33-14.19,19.09-23.6,26.84-4.18,3.44-4.73,9.32-2.62,12.8,8.23,13.64,29.87-5.65,40.18-21.21,2.48-3.77,3.84-7.86,4.33-12.21.58-5.04-2.25-9.24-6.3-10.64ZM1074.2,310.15c10.97-10.21,24.89-16.63,40.02-19.12,9.75-1.61,15.64-7.58,16.83-17.7,2.05-17.26.44-34.67-.77-52.28-.55-7.88-3.24-14.44-9.18-19.55-6.22-5.35-9.74-12.77-10.61-20.91,11.62-7.63,20.26-20.08,19.37-34.34-.18-2.82-3.19-5.39-1.6-9.09,1.27-2.93-3.27-4.03-3.77-5.6-.65-2.01.1-5.32-1.74-6.15l-5.51-2.5c-1.77-1.92-1.97-4.77-3.65-5.93-2.25-1.52-5.56.47-7.34.24-2.14-1.7-3.21-4.6-6.3-4.37-2.44.16-4.18,1.97-6.62,3.06l-6.1-1.37c-5.7,2.73-4.09,7.77-8.98,6.74-3.04-.65-5.35,1.98-6.47,5.17l-14.08-11.33c-13.92-11.19.19-33.35-20.96-35.44l-12.96-1.27c-12.41-1.21-5.42-12.61-10.52-18.55-3.93-4.6-15.1-4.86-19.54-.3-6.15,6.32,1.18,18.72-10.27,18.78l-258.76,1.12-205.93.72-159.14.64c-1.15-6.15-2.28-11.14-5.31-16.45-17.57.25-35.42.99-42.53,16.8-15.04,5.59-13.2,21.9-15.74,23.45-2.73,1.68-16.18,1.08-17.72,15.07-2.6,23.41-3.3,46.74-.78,70.05,1.23,11.28,9.01,18.65,20.38,18.4,1.99,12.43,5.51,31.82,14.13,36.65,5.02,2.81,11.19,4,17.1,3.89l27.55-.58c24.74-.52,48.86-.47,73.52,2.87,2.51,7.8,8.76,12.28,17.01,13.11,26.1,2.63,51.68,4.61,77.54,9.31,12.07,2.19,21.09,12.58,20.47,24.68l-4.29,22.42c-10.94,57.28,18.68,106.12,75.01,116.38,28.6,5.19,56.57,8.32,85.64,11.28,41.84,4.26,62.35-9.31,86.61-11.53,24.13-2.22,44.76,12.49,50.79,36.27l12.69,68.75,22.57,129.87c-7.86,11.72-23.2,15.62-18.28,29.28,1.94,5.35,7.08,10.05,14.32,10.15l62.79.83,100.12-1.61c9.56-.15,15.95-6.87,16.4-16.3l53.53-8.38c27.01-4.23,27.59-66.57,23.69-94.28-8.85-62.75-26.62-123.23-54.12-180.13l-12.55-28.42c-5.98-17.73-4.79-35.05,1.89-52.33,2.97-7.67,5.73-14.16,12.15-20.14ZM288.33,188.97c-1.95-22.76-1.54-45.1.49-67.77.31-3.44,2.56-5.57,7.09-5.11-.56,26.45.12,52.96,1,81.22-5.07.46-8.17-3.43-8.59-8.33ZM989.99,88.3c.49-1.29,1.36-2.22,3.18-3.35,11.05-6.87,3.64-22.31,12.1-19.7,3.74,1.14-1.4,14.07,10.64,21.1,1.52.89,2.85,2.6,2.04,5.69l-26.84.06c-1.37,0-1.68-2.29-1.12-3.8ZM348.79,74.22c.74,2.51,1.2,3.52,1.2,6.61h-26.96c7.03-6.43,16.73-6.68,25.76-6.61ZM432.04,240.27c-23.1-2.99-44.85-3.68-67.58-3.09l-37.88.99c-6.16.16-10.4-3.12-12.52-8.79-4.26-11.41-5.7-23.01-6.5-34.95,4.66,5.28,9.61,7.08,16.05,6.44,53.44-5.25,116.78-1.24,163.61,26.73l-31.33.65c-9.93.21-18.19,4.37-23.85,12.01ZM1032.54,699.2l-123.62,1.97-38.51-.98c-1.97-.04-3.64-1.49-4.11-3.01-.38-1.21.25-3.41,1.82-4.42,5.99-3.83,10.12-8.65,15.25-13.68,2.29-2.23,8.42-.22,9.66,2.78,2.73,6.68,8.26,12.55,16.11,12.56l129.65.21c-.46,2.91-2.59,4.52-6.25,4.58ZM1105.9,611.87c4.73.13,8.1-1.8,11.11-5.48,3.06,18.64-2.38,64.98-13.39,67.18l-44.42,8.91-2.19-15.68c-1.23-8.79-2.56-17.72-1-26.29,4.39-24.06,26.75-29.26,49.89-28.64ZM1058.21,458.38c8.76,18.62,15.68,37.11,19.86,57.32l16.27,78.77c.4,1.98-.22,3.56-1.05,4.46-.99,1.08-4.51.89-4.91-1.12l-14.76-73.3c-4.99-24.75-13.58-47.6-24.37-70.3l-21.66-45.55c-4.46-9.38-7.4-18.69-10.02-28.63-.67-2.51-4.94-1.86-6.56-.64-32.75,24.61-75.86,34.58-116.54,36.34-3.35.15-6.37.41-9.09,3.74,9.3,14.66,15.96,29.54,18.77,46.45l12.13,72.8,19.74,115.43c.9,5.29,5.23,8.33,10.4,8.7,32.02,2.33,63.59,2.08,95.66-.27,2.1-.15,2.57,2.05,2.7,3.04.16,1.39-.49,3.84-2.85,3.98-31.65,1.82-62.81,2.48-94.46.12-9.09-.68-16.24-5.29-17.9-14.56l-14.29-80.3-15.31-96.97c-3.1-19.73-9.3-37.46-19.46-54.52-1.8-3.03-.34-7.65,1.79-9.95,1.74-1.86,5.23-4.08,9.03-4.2,34.27-1.05,67.55-8.14,98.19-23.64l18.87-12.03c5.08-3.24,13.2-1.48,15.24,4.67l7.45,22.48,27.13,57.66ZM1044.36,533.79c0,26.36-21.37,47.73-47.75,47.73s-47.73-21.37-47.73-47.73,21.37-47.75,47.73-47.75,47.75,21.38,47.75,47.75ZM843.78,373.11c-.72-1.02-.86-1.8-.55-2.29,2.2-3.41,10.06,7.67,30.44,9.74,32.01,3.28,77.36-6.72,104.94-23.5,13-7.91,22.49-18.58,27.75-33.43,3.4,1.03,3.53,3.8,2.99,6.59-6.61,33.53-62.61,50.44-95.1,55.98-22.3,3.81-57.94,4.68-70.48-13.09ZM1056.24,315.8l-27.21-.37c-6.62-.09-12.47-2.25-17.48-6.64-25.71-22.49-58.42-34.05-92.81-33.55-29.69.44-64.79,7.73-84.88,29.57-8.72,9.5-12.31,22.05-11.7,35.33.87,19.12,4.49,37.49,8.22,56.17,1.89,9.44,6.69,17.5,14.32,23.25,21.52,16.23,28.48,38.7,32.81,65.26l9.28,56.94,21.72,126.75c.96,5.63,3.28,10.18,6.96,14.91-1.67,1.23-8.98,1.7-10.15-1.49-3.4-9.34-10.3-14.5-20.7-14.62l-33.66-193.28c-3.22-18.55-15.04-33.22-30.5-42.25-10.64-4.91-21.19-6.95-33.06-6.5-11.04-4.18-15.96-17.78-9.84-28.03,10.39-14.13,14.85-30.74,12.49-48.63-4.24-32.25-28.58-59.07-60.25-66.25l-31.55-3.06-58.24-5.01c-33.29-2.87-66.41,13.77-77.47,46.93-11.08,33.22,2.35,70.82,32.59,88.8,9.18,5.45,19.17,7.83,29.73,9.12l82.12,10.02c22.52,2.75,42.87-5.08,59.41-20.16.44,7.6,2.63,13.43,8.79,18.32l-28.57,7.32c-13.89,3.56-27.61,3.99-41.97,2.84-28.58-2.29-55.67-6.46-84.78-10.82-37.82-5.67-65.91-34.92-70.11-72.49-2.85-25.63,6.25-41.63,5.85-58.27-.37-15.28-10.06-27.74-24.83-31.94-10.48-2.99-20.97-4.11-31.98-5.33l-53.48-5.96c-2.11-.24-3.89-2.48-4.3-4-1.24-4.66,7.48-10.54,18.22-10.49l53.07.24,275.23.4c-4.06,4.73-5.94,10.08-5.88,16.37l.12,14.41c.06,7.27,6.5,12.38,14.05,12.64l50.04,1.61c10.2.33,17.28-7.94,16.7-17.59l-1.61-27.24,244.84.43c6.35.01,8.47-3.95,9.28-9.64.74-5.2,1.71-12.1-3.34-15.58-8.31-5.67-14.04-12.81-17.16-22.64-5.32-16.74-13.71-37.3-28.21-46.65-.92-.59-2.72-.95-3.27-.43-.69.67-1.18,3.12-.37,4.21l13.21,17.54c9.58,12.72,9.22,39.19,31.76,54.29,1.99,1.34,1.77,6.27.35,8.38l-170.29-.4-6.89-24.15-17.01-59.73,137.92-.62c1.95,0,3.15-2.07,3.31-3.07.18-1.21-.92-3.99-3.49-3.98l-642.86,2.16-84.96,1.46c-1.42.03-2.32.62-2.93.96-1.17.65-.89,2.04-.12,2.45.58.31,1.82,1.23,3.03,1.24l90.37.78,230.12-.41,122.81-.56,24.46,83.24-287.51-.64c-18.83-14.19-39.61-23.67-62.94-29.47-38.67-9.61-77.84-11.53-117.51-7.32-6.47,1.27-11.6-2.87-12.37-9.41l-3.95-33.31c-1.82-15.31-.28-30.58.86-46.17.21-2.81,2.26-9.69,5.85-10.02l131.08-.95,536.78-2.07c-1.33,4.51-.65,10.29,3.22,10.33l40.11.44c2.02-3.41,1.76-6.25.93-10.61,4.57.25,8.84.78,13.39,2.53-1.08,13.55,3.66,25.15,13.46,33.68l22.37,19.48c12.77,13.48,21.19,29.48,26.82,46.96,5.16,16.02,16.97,18.8,17.14,27.13l1.08,50.59c.06,2.73-1.24,9.22-4.43,9.8-23.88,4.26-47.57,14.93-59.67,36.47ZM662.11,388.55c28.24-11.28,47.16-37.14,50.05-68.05l13.32-3.89c8.82-2.56,15.97-7.98,20.7-16.83,34.61,21.06,46.23,63.89,20.54,95.47-14.85,18.27-36.9,27.04-60.89,25.05l-80.97-10.09c-8.38-1.05-16.3-3.22-23.6-7.36-29.47-16.71-41.81-53.9-27.24-84.71,10.45-22.11,32.85-34.39,57.07-34.45l45.9,3.59,3.35,25.26c1.77,13.34-2.31,26.93-10.11,37.98-9.18,12.99-22.63,20.78-37.62,25.08-4.18,1.2-6.3,5.41-6.12,9.01.55,11.28,21.5,9.59,35.6,3.95ZM914.24,228.27c-3.22.62-6.01.33-9.25-.21l-23.82-82.88c3.03-.62,5.75-.69,8.67.19l24.4,82.89ZM897.47,145.13c3.3-.86,5.96-.77,9,.12l24.3,83.19c-3.3.3-6.04.34-9.35-.3l-23.94-83.01ZM897.62,228.13c-3.16.52-5.97.47-9.04-.04l-23.81-83.07,9.1.07,23.75,83.04ZM881.49,228.22l-9.65-.06-24.35-82.96,10-.21,24,83.23ZM864.69,227.81c-3.07,1.12-6.65.83-10.61.37l-24.43-83.05c3.56-.33,6.86-.46,10.64.24l24.4,82.45ZM846.9,228.39l-11.02.04-24.46-83.26,10.67-.04,24.81,83.26ZM828.56,228.19l-10.82-.06-24.52-82.98c3.62-.37,6.9-.47,10.64.25l24.69,82.79ZM810.15,227.47c-3.33,1.55-7.12.89-10.77.58l-24.64-82.76c4.21-.58,6.99-.43,10.71-.01l24.69,82.2ZM807.41,238.69l45.28.35,1.02,20.36c-4.57-2.1-8.76-3.59-13.71-3.75l-49.91-1.71c-.59-10.05,8.05-15.32,17.32-15.25ZM800.01,271.58l39.27,1.14,9,2.01-52.79-.9c-2.99-.06-5.38-2.91-5.36-5.51v-7.8c4.79,2.04,9.55,2.63,14.84,2.85l31.21,1.29c4.97.21,9.25.89,13.23,3.28-2.2,1.42-4.14-.4-5.79-.44l-42.09-1.15c-1.95-.06-2.44,1.18-2.87,1.68-.62.77-.3,3.5,1.36,3.56ZM1065.75,664.28c8.23,13.64,29.87-5.65,40.18-21.21,2.48-3.77,3.84-7.86,4.33-12.21.58-5.04-2.25-9.24-6.3-10.64-4.18-1.45-9.38.35-12,4.42-6.65,10.33-14.19,19.09-23.6,26.84-4.18,3.44-4.73,9.32-2.62,12.8ZM954.85,533.76c0,23.04,18.68,41.72,41.73,41.72s41.72-18.68,41.72-41.72-18.68-41.73-41.72-41.73-41.73,18.68-41.73,41.73ZM1030.88,533.85c0,18.93-15.34,34.26-34.26,34.26s-34.26-15.32-34.26-34.26,15.32-34.26,34.26-34.26,34.26,15.34,34.26,34.26ZM969.75,528.02c-.03.95.43,2.1,1.57,2.93l12.72,9.24-4,14.7c-.49,1.8.65,3.5,2.04,3.75.83.15,2.22-.3,3.21-1.06l12.59-9.9c11.01,7.2,21.99,13.29,18.56,4.39l-5.97-15.46,11.41-10.83c1.14-1.06.95-3.21.09-4.11-.49-.5-1.63-.93-2.96-.81l-14.62,1.45-7.06-14.07c-.71-1.42-3.4-3.09-4.29-1.37-2.78,5.29-3.66,11.07-5.23,17.11l-15.61,1.73c-1.48.16-2.41,1.14-2.45,2.32ZM1103.96,620.22c-4.18-1.45-9.38.35-12,4.42-6.65,10.33-14.19,19.09-23.6,26.84-4.18,3.44-4.73,9.32-2.62,12.8,8.23,13.64,29.87-5.65,40.18-21.21,2.48-3.77,3.84-7.86,4.33-12.21.58-5.04-2.25-9.24-6.3-10.64ZM1021.96,521.67c-.49-.5-1.63-.93-2.96-.81l-14.62,1.45-7.06-14.07c-.71-1.42-3.4-3.09-4.29-1.37-2.78,5.29-3.66,11.07-5.23,17.11l-15.61,1.73c-1.48.16-2.41,1.14-2.45,2.32-.03.95.43,2.1,1.57,2.93l12.72,9.24-4,14.7c-.49,1.8.65,3.5,2.04,3.75.83.15,2.22-.3,3.21-1.06l12.59-9.9c11.01,7.2,21.99,13.29,18.56,4.39l-5.97-15.46,11.41-10.83c1.14-1.06.95-3.21.09-4.11ZM1021.96,521.67c-.49-.5-1.63-.93-2.96-.81l-14.62,1.45-7.06-14.07c-.71-1.42-3.4-3.09-4.29-1.37-2.78,5.29-3.66,11.07-5.23,17.11l-15.61,1.73c-1.48.16-2.41,1.14-2.45,2.32-.03.95.43,2.1,1.57,2.93l12.72,9.24-4,14.7c-.49,1.8.65,3.5,2.04,3.75.83.15,2.22-.3,3.21-1.06l12.59-9.9c11.01,7.2,21.99,13.29,18.56,4.39l-5.97-15.46,11.41-10.83c1.14-1.06.95-3.21.09-4.11ZM996.58,492.03c-23.05,0-41.73,18.68-41.73,41.73s18.68,41.72,41.73,41.72,41.72-18.68,41.72-41.72-18.68-41.73-41.72-41.73ZM996.63,568.1c-18.93,0-34.26-15.32-34.26-34.26s15.32-34.26,34.26-34.26,34.26,15.34,34.26,34.26-15.34,34.26-34.26,34.26ZM1021.96,521.67c-.49-.5-1.63-.93-2.96-.81l-14.62,1.45-7.06-14.07c-.71-1.42-3.4-3.09-4.29-1.37-2.78,5.29-3.66,11.07-5.23,17.11l-15.61,1.73c-1.48.16-2.41,1.14-2.45,2.32-.03.95.43,2.1,1.57,2.93l12.72,9.24-4,14.7c-.49,1.8.65,3.5,2.04,3.75.83.15,2.22-.3,3.21-1.06l12.59-9.9c11.01,7.2,21.99,13.29,18.56,4.39l-5.97-15.46,11.41-10.83c1.14-1.06.95-3.21.09-4.11ZM1103.96,620.22c-4.18-1.45-9.38.35-12,4.42-6.65,10.33-14.19,19.09-23.6,26.84-4.18,3.44-4.73,9.32-2.62,12.8,8.23,13.64,29.87-5.65,40.18-21.21,2.48-3.77,3.84-7.86,4.33-12.21.58-5.04-2.25-9.24-6.3-10.64ZM1021.96,521.67c-.49-.5-1.63-.93-2.96-.81l-14.62,1.45-7.06-14.07c-.71-1.42-3.4-3.09-4.29-1.37-2.78,5.29-3.66,11.07-5.23,17.11l-15.61,1.73c-1.48.16-2.41,1.14-2.45,2.32-.03.95.43,2.1,1.57,2.93l12.72,9.24-4,14.7c-.49,1.8.65,3.5,2.04,3.75.83.15,2.22-.3,3.21-1.06l12.59-9.9c11.01,7.2,21.99,13.29,18.56,4.39l-5.97-15.46,11.41-10.83c1.14-1.06.95-3.21.09-4.11ZM1021.96,521.67c-.49-.5-1.63-.93-2.96-.81l-14.62,1.45-7.06-14.07c-.71-1.42-3.4-3.09-4.29-1.37-2.78,5.29-3.66,11.07-5.23,17.11l-15.61,1.73c-1.48.16-2.41,1.14-2.45,2.32-.03.95.43,2.1,1.57,2.93l12.72,9.24-4,14.7c-.49,1.8.65,3.5,2.04,3.75.83.15,2.22-.3,3.21-1.06l12.59-9.9c11.01,7.2,21.99,13.29,18.56,4.39l-5.97-15.46,11.41-10.83c1.14-1.06.95-3.21.09-4.11ZM996.58,492.03c-23.05,0-41.73,18.68-41.73,41.73s18.68,41.72,41.73,41.72,41.72-18.68,41.72-41.72-18.68-41.73-41.72-41.73ZM996.63,568.1c-18.93,0-34.26-15.32-34.26-34.26s15.32-34.26,34.26-34.26,34.26,15.34,34.26,34.26-15.34,34.26-34.26,34.26ZM1021.96,521.67c-.49-.5-1.63-.93-2.96-.81l-14.62,1.45-7.06-14.07c-.71-1.42-3.4-3.09-4.29-1.37-2.78,5.29-3.66,11.07-5.23,17.11l-15.61,1.73c-1.48.16-2.41,1.14-2.45,2.32-.03.95.43,2.1,1.57,2.93l12.72,9.24-4,14.7c-.49,1.8.65,3.5,2.04,3.75.83.15,2.22-.3,3.21-1.06l12.59-9.9c11.01,7.2,21.99,13.29,18.56,4.39l-5.97-15.46,11.41-10.83c1.14-1.06.95-3.21.09-4.11ZM1021.96,521.67c-.49-.5-1.63-.93-2.96-.81l-14.62,1.45-7.06-14.07c-.71-1.42-3.4-3.09-4.29-1.37-2.78,5.29-3.66,11.07-5.23,17.11l-15.61,1.73c-1.48.16-2.41,1.14-2.45,2.32-.03.95.43,2.1,1.57,2.93l12.72,9.24-4,14.7c-.49,1.8.65,3.5,2.04,3.75.83.15,2.22-.3,3.21-1.06l12.59-9.9c11.01,7.2,21.99,13.29,18.56,4.39l-5.97-15.46,11.41-10.83c1.14-1.06.95-3.21.09-4.11ZM1021.96,521.67c-.49-.5-1.63-.93-2.96-.81l-14.62,1.45-7.06-14.07c-.71-1.42-3.4-3.09-4.29-1.37-2.78,5.29-3.66,11.07-5.23,17.11l-15.61,1.73c-1.48.16-2.41,1.14-2.45,2.32-.03.95.43,2.1,1.57,2.93l12.72,9.24-4,14.7c-.49,1.8.65,3.5,2.04,3.75.83.15,2.22-.3,3.21-1.06l12.59-9.9c11.01,7.2,21.99,13.29,18.56,4.39l-5.97-15.46,11.41-10.83c1.14-1.06.95-3.21.09-4.11ZM1021.96,521.67c-.49-.5-1.63-.93-2.96-.81l-14.62,1.45-7.06-14.07c-.71-1.42-3.4-3.09-4.29-1.37-2.78,5.29-3.66,11.07-5.23,17.11l-15.61,1.73c-1.48.16-2.41,1.14-2.45,2.32-.03.95.43,2.1,1.57,2.93l12.72,9.24-4,14.7c-.49,1.8.65,3.5,2.04,3.75.83.15,2.22-.3,3.21-1.06l12.59-9.9c11.01,7.2,21.99,13.29,18.56,4.39l-5.97-15.46,11.41-10.83c1.14-1.06.95-3.21.09-4.11ZM1021.96,521.67c-.49-.5-1.63-.93-2.96-.81l-14.62,1.45-7.06-14.07c-.71-1.42-3.4-3.09-4.29-1.37-2.78,5.29-3.66,11.07-5.23,17.11l-15.61,1.73c-1.48.16-2.41,1.14-2.45,2.32-.03.95.43,2.1,1.57,2.93l12.72,9.24-4,14.7c-.49,1.8.65,3.5,2.04,3.75.83.15,2.22-.3,3.21-1.06l12.59-9.9c11.01,7.2,21.99,13.29,18.56,4.39l-5.97-15.46,11.41-10.83c1.14-1.06.95-3.21.09-4.11ZM1021.96,521.67c-.49-.5-1.63-.93-2.96-.81l-14.62,1.45-7.06-14.07c-.71-1.42-3.4-3.09-4.29-1.37-2.78,5.29-3.66,11.07-5.23,17.11l-15.61,1.73c-1.48.16-2.41,1.14-2.45,2.32-.03.95.43,2.1,1.57,2.93l12.72,9.24-4,14.7c-.49,1.8.65,3.5,2.04,3.75.83.15,2.22-.3,3.21-1.06l12.59-9.9c11.01,7.2,21.99,13.29,18.56,4.39l-5.97-15.46,11.41-10.83c1.14-1.06.95-3.21.09-4.11ZM1021.96,521.67c-.49-.5-1.63-.93-2.96-.81l-14.62,1.45-7.06-14.07c-.71-1.42-3.4-3.09-4.29-1.37-2.78,5.29-3.66,11.07-5.23,17.11l-15.61,1.73c-1.48.16-2.41,1.14-2.45,2.32-.03.95.43,2.1,1.57,2.93l12.72,9.24-4,14.7c-.49,1.8.65,3.5,2.04,3.75.83.15,2.22-.3,3.21-1.06l12.59-9.9c11.01,7.2,21.99,13.29,18.56,4.39l-5.97-15.46,11.41-10.83c1.14-1.06.95-3.21.09-4.11ZM996.58,492.03c-23.05,0-41.73,18.68-41.73,41.73s18.68,41.72,41.73,41.72,41.72-18.68,41.72-41.72-18.68-41.73-41.72-41.73ZM996.63,568.1c-18.93,0-34.26-15.32-34.26-34.26s15.32-34.26,34.26-34.26,34.26,15.34,34.26,34.26-15.34,34.26-34.26,34.26ZM1021.96,521.67c-.49-.5-1.63-.93-2.96-.81l-14.62,1.45-7.06-14.07c-.71-1.42-3.4-3.09-4.29-1.37-2.78,5.29-3.66,11.07-5.23,17.11l-15.61,1.73c-1.48.16-2.41,1.14-2.45,2.32-.03.95.43,2.1,1.57,2.93l12.72,9.24-4,14.7c-.49,1.8.65,3.5,2.04,3.75.83.15,2.22-.3,3.21-1.06l12.59-9.9c11.01,7.2,21.99,13.29,18.56,4.39l-5.97-15.46,11.41-10.83c1.14-1.06.95-3.21.09-4.11ZM1021.96,521.67c-.49-.5-1.63-.93-2.96-.81l-14.62,1.45-7.06-14.07c-.71-1.42-3.4-3.09-4.29-1.37-2.78,5.29-3.66,11.07-5.23,17.11l-15.61,1.73c-1.48.16-2.41,1.14-2.45,2.32-.03.95.43,2.1,1.57,2.93l12.72,9.24-4,14.7c-.49,1.8.65,3.5,2.04,3.75.83.15,2.22-.3,3.21-1.06l12.59-9.9c11.01,7.2,21.99,13.29,18.56,4.39l-5.97-15.46,11.41-10.83c1.14-1.06.95-3.21.09-4.11ZM1021.96,521.67c-.49-.5-1.63-.93-2.96-.81l-14.62,1.45-7.06-14.07c-.71-1.42-3.4-3.09-4.29-1.37-2.78,5.29-3.66,11.07-5.23,17.11l-15.61,1.73c-1.48.16-2.41,1.14-2.45,2.32-.03.95.43,2.1,1.57,2.93l12.72,9.24-4,14.7c-.49,1.8.65,3.5,2.04,3.75.83.15,2.22-.3,3.21-1.06l12.59-9.9c11.01,7.2,21.99,13.29,18.56,4.39l-5.97-15.46,11.41-10.83c1.14-1.06.95-3.21.09-4.11ZM1021.96,521.67c-.49-.5-1.63-.93-2.96-.81l-14.62,1.45-7.06-14.07c-.71-1.42-3.4-3.09-4.29-1.37-2.78,5.29-3.66,11.07-5.23,17.11l-15.61,1.73c-1.48.16-2.41,1.14-2.45,2.32-.03.95.43,2.1,1.57,2.93l12.72,9.24-4,14.7c-.49,1.8.65,3.5,2.04,3.75.83.15,2.22-.3,3.21-1.06l12.59-9.9c11.01,7.2,21.99,13.29,18.56,4.39l-5.97-15.46,11.41-10.83c1.14-1.06.95-3.21.09-4.11ZM1021.96,521.67c-.49-.5-1.63-.93-2.96-.81l-14.62,1.45-7.06-14.07c-.71-1.42-3.4-3.09-4.29-1.37-2.78,5.29-3.66,11.07-5.23,17.11l-15.61,1.73c-1.48.16-2.41,1.14-2.45,2.32-.03.95.43,2.1,1.57,2.93l12.72,9.24-4,14.7c-.49,1.8.65,3.5,2.04,3.75.83.15,2.22-.3,3.21-1.06l12.59-9.9c11.01,7.2,21.99,13.29,18.56,4.39l-5.97-15.46,11.41-10.83c1.14-1.06.95-3.21.09-4.11ZM1021.96,521.67c-.49-.5-1.63-.93-2.96-.81l-14.62,1.45-7.06-14.07c-.71-1.42-3.4-3.09-4.29-1.37-2.78,5.29-3.66,11.07-5.23,17.11l-15.61,1.73c-1.48.16-2.41,1.14-2.45,2.32-.03.95.43,2.1,1.57,2.93l12.72,9.24-4,14.7c-.49,1.8.65,3.5,2.04,3.75.83.15,2.22-.3,3.21-1.06l12.59-9.9c11.01,7.2,21.99,13.29,18.56,4.39l-5.97-15.46,11.41-10.83c1.14-1.06.95-3.21.09-4.11ZM1021.96,521.67c-.49-.5-1.63-.93-2.96-.81l-14.62,1.45-7.06-14.07c-.71-1.42-3.4-3.09-4.29-1.37-2.78,5.29-3.66,11.07-5.23,17.11l-15.61,1.73c-1.48.16-2.41,1.14-2.45,2.32-.03.95.43,2.1,1.57,2.93l12.72,9.24-4,14.7c-.49,1.8.65,3.5,2.04,3.75.83.15,2.22-.3,3.21-1.06l12.59-9.9c11.01,7.2,21.99,13.29,18.56,4.39l-5.97-15.46,11.41-10.83c1.14-1.06.95-3.21.09-4.11ZM996.58,492.03c-23.05,0-41.73,18.68-41.73,41.73s18.68,41.72,41.73,41.72,41.72-18.68,41.72-41.72-18.68-41.73-41.72-41.73ZM996.63,568.1c-18.93,0-34.26-15.32-34.26-34.26s15.32-34.26,34.26-34.26,34.26,15.34,34.26,34.26-15.34,34.26-34.26,34.26ZM1021.96,521.67c-.49-.5-1.63-.93-2.96-.81l-14.62,1.45-7.06-14.07c-.71-1.42-3.4-3.09-4.29-1.37-2.78,5.29-3.66,11.07-5.23,17.11l-15.61,1.73c-1.48.16-2.41,1.14-2.45,2.32-.03.95.43,2.1,1.57,2.93l12.72,9.24-4,14.7c-.49,1.8.65,3.5,2.04,3.75.83.15,2.22-.3,3.21-1.06l12.59-9.9c11.01,7.2,21.99,13.29,18.56,4.39l-5.97-15.46,11.41-10.83c1.14-1.06.95-3.21.09-4.11ZM1021.96,521.67c-.49-.5-1.63-.93-2.96-.81l-14.62,1.45-7.06-14.07c-.71-1.42-3.4-3.09-4.29-1.37-2.78,5.29-3.66,11.07-5.23,17.11l-15.61,1.73c-1.48.16-2.41,1.14-2.45,2.32-.03.95.43,2.1,1.57,2.93l12.72,9.24-4,14.7c-.49,1.8.65,3.5,2.04,3.75.83.15,2.22-.3,3.21-1.06l12.59-9.9c11.01,7.2,21.99,13.29,18.56,4.39l-5.97-15.46,11.41-10.83c1.14-1.06.95-3.21.09-4.11ZM1021.96,521.67c-.49-.5-1.63-.93-2.96-.81l-14.62,1.45-7.06-14.07c-.71-1.42-3.4-3.09-4.29-1.37-2.78,5.29-3.66,11.07-5.23,17.11l-15.61,1.73c-1.48.16-2.41,1.14-2.45,2.32-.03.95.43,2.1,1.57,2.93l12.72,9.24-4,14.7c-.49,1.8.65,3.5,2.04,3.75.83.15,2.22-.3,3.21-1.06l12.59-9.9c11.01,7.2,21.99,13.29,18.56,4.39l-5.97-15.46,11.41-10.83c1.14-1.06.95-3.21.09-4.11ZM1021.96,521.67c-.49-.5-1.63-.93-2.96-.81l-14.62,1.45-7.06-14.07c-.71-1.42-3.4-3.09-4.29-1.37-2.78,5.29-3.66,11.07-5.23,17.11l-15.61,1.73c-1.48.16-2.41,1.14-2.45,2.32-.03.95.43,2.1,1.57,2.93l12.72,9.24-4,14.7c-.49,1.8.65,3.5,2.04,3.75.83.15,2.22-.3,3.21-1.06l12.59-9.9c11.01,7.2,21.99,13.29,18.56,4.39l-5.97-15.46,11.41-10.83c1.14-1.06.95-3.21.09-4.11ZM1021.96,521.67c-.49-.5-1.63-.93-2.96-.81l-14.62,1.45-7.06-14.07c-.71-1.42-3.4-3.09-4.29-1.37-2.78,5.29-3.66,11.07-5.23,17.11l-15.61,1.73c-1.48.16-2.41,1.14-2.45,2.32-.03.95.43,2.1,1.57,2.93l12.72,9.24-4,14.7c-.49,1.8.65,3.5,2.04,3.75.83.15,2.22-.3,3.21-1.06l12.59-9.9c11.01,7.2,21.99,13.29,18.56,4.39l-5.97-15.46,11.41-10.83c1.14-1.06.95-3.21.09-4.11Z"/>
  <g>
    <g>
      <g>
        <path class="cls-1" d="M1021.87,525.78l-11.41,10.83,5.97,15.46c3.43,8.9-7.55,2.81-18.56-4.39l-12.59,9.9c-.99.77-2.38,1.21-3.21,1.06-1.39-.25-2.53-1.95-2.04-3.75l4-14.7-12.72-9.24c-1.14-.83-1.6-1.98-1.57-2.93.04-1.18.98-2.16,2.45-2.32l15.61-1.73c1.57-6.04,2.45-11.82,5.23-17.11.89-1.71,3.58-.04,4.29,1.37l7.06,14.07,14.62-1.45c1.33-.12,2.47.31,2.96.81.86.9,1.05,3.04-.09,4.11Z"/>
        <path class="cls-1" d="M996.58,492.03c-23.05,0-41.73,18.68-41.73,41.73s18.68,41.72,41.73,41.72,41.72-18.68,41.72-41.72-18.68-41.73-41.72-41.73ZM996.63,568.1c-18.93,0-34.26-15.32-34.26-34.26s15.32-34.26,34.26-34.26,34.26,15.34,34.26,34.26-15.34,34.26-34.26,34.26Z"/>
      </g>
      <path class="cls-3" d="M1110.26,630.86c-.49,4.34-1.85,8.44-4.33,12.21-10.32,15.56-31.95,34.85-40.18,21.21-2.11-3.47-1.57-9.35,2.62-12.8,9.41-7.74,16.95-16.51,23.6-26.84,2.62-4.06,7.82-5.87,12-4.42,4.05,1.4,6.87,5.6,6.3,10.64Z"/>
    </g>
    <g>
      <path class="cls-4" d="M862.59,465.16c-.55.52-2.23-.03-2.94-1.2l-12.95-21.69c-7.18-8.78-16.54-14.76-26.5-18.97-4.74-2.01-6.38-4.6-7.26-9.61l-12.01-68.35c-6.35-36.18-35.82-66.81-72.23-70.77l-136.19-14.84-128.98-14.08c-1.48-.16-2.87-1.42-3.03-2.2-.28-1.36,1.24-3,3.12-2.96,19.17.59,36.97,2.75,56.35,4.76l206.32,21.49c26.84,2.79,50.53,16.68,66.46,38.39,9.21,14.64,15.04,30.15,17.76,47.32l9.99,63.35c22.14,7.46,38.02,24.31,42.9,46.65.22.99-.34,2.29-.8,2.7Z"/>
      <path class="cls-3" d="M1112.71,266.34l-13.99,3.59c-44.16,11.29-51.59,41.97-56.17,41.07-7.77-1.52,11.87-43.68,68.87-51.04,1.86-.25,3.4,1.36,3.59,2.44.25,1.36-.47,3.49-2.29,3.95Z"/>
      <path class="cls-5" d="M802.71,407.33c0,5.38-4.36,9.74-9.74,9.74s-9.74-4.36-9.74-9.74,4.36-9.72,9.74-9.72,9.74,4.36,9.74,9.72Z"/>
      <path class="cls-6" d="M589.67,278.67l-30.47-3.4c-2.25-.24-6.72-1.24-7.34-3.66-.58-2.23,3.65-3.15,5.5-2.96l32.59,3.33c1.73.19,2.45,1.68,2.82,2.53.55,1.23-.47,4.45-3.09,4.17Z"/>
      <g>
        <circle class="cls-1" cx="957.67" cy="166.13" r="5.6"/>
        <path class="cls-1" d="M1040.86,159.43c-3.3-7.48-11.08-12.38-20.2-14.2-6.55-1.3-12.24,3.46-18.5,3.56l-49.17.78c-8.53.13-16.08,5.39-17.36,14.56-3.68,26.11,8.2,60.97,36.04,58.67,26.26-2.19,50.87-15.49,66.41-36.41,5.96-8.02,6.65-18.13,2.78-26.96ZM957.47,210.98c-3.99-1.46-5.25-4.86-7.45-8.1-5.39-11.16-7.95-23.29-7.12-35.75.8-5.53,4.63-9.66,10.21-9.66l38.39.07c-12.64,10.43-23.22,21.56-32.73,34-3.9,5.93-4.66,11.79-1.3,19.43ZM967.52,207.05c-1.51-.4-4.23-4.42-2.45-5.72l28.79-20.97c1.67-1.21,4.74-.25,5.66,1,.9,1.26.65,4.33-1.26,5.85l-24.63,19.73c-2.11,1.68-4.8.44-6.1.1ZM979.34,213.47l23.6-21.03c4.51-4.03,4.79-10.43,2.28-14.47-3-4.83-9.03-6.25-14.01-3.44l-14.5,8.14,15.87-15.65c11.75-11.6,30.31-19.3,39.15-6.49,14.75,21.37-27.16,48.87-52.39,52.93Z"/>
        <circle class="cls-2" cx="957.67" cy="166.13" r="5.6"/>
      </g>
    </g>
  </g>
</svg>