<?xml version="1.0" encoding="UTF-8"?>
<svg id="Layer_1" data-name="Layer 1" xmlns="http://www.w3.org/2000/svg" viewBox="0 0 1195 896">
  <defs>
    <style>
      .cls-1 {
        stroke-width: 10px;
      }

      .cls-1, .cls-2 {
        fill: none;
        stroke: #000;
        stroke-miterlimit: 10;
      }

      .cls-2 {
        stroke-width: 14px;
      }
    </style>
  </defs>
  <g>
    <path class="cls-1" d="M788.75,472.9c-4.46-15.56-15.28-27.16-29.73-34.77,27.77-15.4,31.73-49.7,19.28-77.78-7.48-13-18.59-22.74-32.99-28.14-39.43-14.77-94.61-4.15-107.15,39.08-3.27,11.28-3.27,22.86-.99,34.13,2.87,14.22,11.16,25.17,24.07,32.93-13.27,7.25-22.59,17.1-27.6,30.57-7.78,20.91-6.37,43.52,3.6,63.47,19.85,35.92,67.52,44.4,105.24,32.85,40.32-12.36,57.51-53.15,46.27-92.34ZM710.29,366.6c15.02,0,27.2,12.18,27.2,27.2s-12.18,27.2-27.2,27.2-27.2-12.18-27.2-27.2,12.18-27.2,27.2-27.2ZM740.72,505.49c-3.52,14.17-15.37,23.08-29.56,23.25-10.23.12-20.17-3.78-26.09-12.13-10.34-14.6-8.89-41.56,6.66-51.64,11.94-7.74,28.11-7.1,39.45,1.4,10.57,7.93,12.99,25.23,9.54,39.12Z"/>
    <path class="cls-1" d="M580.44,465.72c-6.27-11.9-15.37-20.39-27.96-26.64,28.02-15.72,33.12-53.53,18.03-80.94-5.99-9.24-13.92-16.37-23.75-21.24-13-5.65-26.22-7.91-40.59-7.91l-103.29-.02v236.97s101.17-.16,101.17-.16c11.44-.02,21.9-1.17,32.68-3.71,43.45-10.37,59.88-55.99,43.71-96.35ZM501.16,369.54c6.36.27,12.35,1.18,17.86,4.06,12.4,7.17,13.04,29.73,4.86,39.57-4.85,5.85-12.17,7.67-19.74,8.49l-51.05.12-.06-52.32,48.13.08ZM530.73,512.08c-5.48,7.83-14.73,11.69-24.4,11.79l-53.22.54-.02-62.11,47.05-.04c8,.08,15.57,1.11,22.68,4.56,14.73,8.52,16.19,33.43,7.91,45.26Z"/>
  </g>
  <ellipse class="cls-2" cx="597.5" cy="448" rx="451.88" ry="274.21"/>
  <ellipse class="cls-2" cx="597.5" cy="448" rx="520.82" ry="316.04"/>
</svg>