<?xml version="1.0" encoding="UTF-8"?>
<svg id="Layer_1" data-name="Layer 1" xmlns="http://www.w3.org/2000/svg" viewBox="0 0 1408.08 768">
  <path d="M1008.17,528.4c4.72-20.24,8.31-39.57,9.63-60.48.13-1.03,2-2.89,3.14-3.37l44.32-4.82,1.92-30.86-10.36,1.12-36.66,2.64.48-8.3-.02-50.14-.71-13.71-1.64-22.71-6.11-50.45c-.21-1.72-1.91-4.36-3.1-5.9l-43.5-5.71c-2.11-.28-5.44,1.62-5.19,3.87l5.49,50.24.77,11.47.96,16.35.96,17.24.23,59.78-15.52.95-56.01,3.05-18.97,1.17-14.43.96-13.44.93-17.24,1.11-15.34.93-14.67.93c2.97,13.55-.97,24.88-9.28,35.08-.17,1.98,1.04,5.33,2.84,6.65l83.05-9.04,62.18-6.18,25.02-2.67-2.68,27.77-6.59,39.74,2.04,2.45,48.44-10.06ZM1007.91,285.54c4.99,30.29,7.47,59.13,8.52,89.32l.19,51.8-1.2,24.88c-1.05,21.73-3.11,42.43-8,64.19l-17.86,3.43,4.85-38.79,1.17-13.49,1.07-17.2.93-21.22v-56.19s-.96-19.34-.96-19.34l-.85-13.56-1.3-15.7-2.87-27.42-1.9-13.13,18.21,2.4ZM970.46,471.99l1.25-18.45.87-22.36.02-55.22-.94-18.2-.76-12.69-.62-5.38-6.16-59.53,21.82,2.5c3.48,20.61,5.06,40.16,6.51,60.64l1.08,15.25,1.09,21.27.03,40.01-1.04,21.28-3.93,53.62-3.61,25.25-22.35,4.19,6.73-52.17ZM963.68,528.31l17.08-3.09,26.18-4.89-1.63,5.37-24.48,4.82-18.82,3.9,1.68-6.11Z"/>
  <path d="M683.05,450.28l-.38-41.61-.83-14.65-2.51-49.25c-.63-12.3-6.1-29.37-12.25-23.08l4.33,10.52c2.57,6.25,2.22,13.82,2.67,20.54l1.1,16.38,1.18,17.98.88,42.42.14,22.25-8.43-.09-.41-47.58-.84-21.62-.93-18.18-.93-15.36-.98-16.3-1.21-15.05-5.08-58.81-1.6-10.48c-1.12-7.32-5.64-12.38-13.18-13.17l-28.42-2.96c-5.43-.56-9.32,2.32-11.26,6.84-1.73,4.02-.77,7.24-.38,11.48l8.1,89.22,1.06,15.43.91,19.35,1.03,23.94.23,90.39-.78,11.59-.54,21.77c-.05,1.91.68,5.12,1.84,6.17,1.16,1.05,4.62,2.29,6.29,2.05l34.41-5.03c4.83-.71,9.63-4.13,10.18-9.14l1.85-16.84,7.95-.9-1.19,13.53c-.48,5.45.04,11.62-3.07,16.41-1.04,1.6-4.62,4.39-1.33,6.09,3.06,1.59,7.03-3.12,7.86-6.53,1.77-7.27,1.66-14.28,2.46-21.81l.87-8.28,20.98-2.44-13.99-40.84c-.76-2.22-2.78-3.52-5.81-4.38ZM662.6,515.27c-.38,3.31-3.6,5.56-6.51,5.97l-28.69,4.06c-3.12.44-7.03,1.65-10.26-.33l.08-20.32,28.38-2.92,10.15-1.18.26,5.34c.03.58,1.94,2.03,2.09,1.5l.86-3.16,1.17-4.16c.26-.92,3.62.02,4.14.77l-1.67,14.44ZM641.16,453.91l-22.07,1.4-.45-39.84-.87-24.32-.87-18.23-1.11-20.06-1.11-17.26-.98-15.26-.75-11.66-3.47-40.02-1.93-23.34c-.17-2.07.8-5.53,2-6.89,1.13-1.28,4.57-2.55,6.48-2.28l30.22,4.27c3.78.53,6.68,6.87,7.04,10.46l4.18,42.57,4.19,52.92,1.04,18.96,1.11,20.09.94,21.16.37,45.75-23.93,1.58Z"/>
  <path d="M717.16,317.2c1.24,17.67,2.33,35.07,3.11,52.74.3,7.15.55,14.19.87,21.3.27,5.08.11,9.83,1.87,14.18,4.03,11.2,14.31,11.3,24.47,10.42,7.92-.41,14.41-.52,24.22-.82,18.91-.54,38.19-1.31,57.23-2.16h.11c28.62-.83,84.54-3.46,115.44-4.56,5.12.24,9.58-5.73,10.6-10.69,1.92-9.06.22-18.35.01-27.5-.58-13.43-1.39-26.16-2.71-39.58-.96-9.73-2.26-19.97-3.34-29.91-1.05-8.12-.88-16.04-5.89-22.5-2.83-3.74-7.06-5.77-11.57-6.13-5.81-.8-20.75-2.85-27.76-3.81-56.44-7.35-104.95-13.66-169.05-21.83-5.72-.62-11.69-2.48-16.73,1.18-6.62,4.75-6.09,14.39-5.22,21.68.91,9.82,3.18,34.6,4.34,47.99ZM878.31,269.63c2.49.29,7.14.91,12.61,1.61,13.2,1.73,28.83,3.66,35.67,4.59,4.97.62,11.1,1.75,13.98,6.42,1.39,2.33,1.46,4.56,2.17,8.62,1.33,8.82,3.12,18.42,4.2,26.93,1.02,12.8,3.33,35.3,3.94,50.12.35,6.55.13,13.2.19,19.84-.09,4.76.47,9.22-1.55,11.85-2.44,3.51-6.42,4.36-10.34,4.29-9.41.24-29.45,1.02-36.91,1.18h-.11c-4.13.15-8.57.31-12.98.43-1.33-.03-2.9.07-3.91-.82-.98-1.17-.27-2.97.03-4.56.62-2.6,1.05-5.36,1.24-8.04.47-11.98-.97-25.04-1.15-37.23-.75-18.55-1.95-36.92-4-55.38-.59-5.52-1.09-12.23-1.87-16.73-.54-3.9-2.21-8.06-2.98-11.8-.2-1.27.79-1.41,1.78-1.32ZM719.95,253.25c3.39-3.4,8.43-2.7,12.66-2.15,7.27.93,28.78,3.69,33.72,4.32,12.15,1.5,38.96,5.15,46.14,5.98,15.51,2.13,46.19,5.56,56.73,7.41,2.76,1.6,3.95,5.63,5.09,8.67,1.88,6.31,2.15,10.85,2.79,17.82.58,6.18,1.17,12.66,1.74,18.84,1.81,18.44,3.14,36.64,3.63,55.12.29,6.97.15,12.92.27,19.9,0,6.1.58,10.07-2.43,14.41-1.24,2.09-3.34,2.76-5.65,2.75-7.76.25-21.83.87-29.23,1.09h-.11c-24.69.92-53.3,1.88-77.29,2.68-6.25.2-14.39.42-20.68.71-14.19,1.56-21-1.43-21.28-16.69-.71-30.15-2.6-58.5-4.87-88.99-.84-11.04-2.45-28.58-3.75-41.98-.58-3.82-.03-7.05,2.53-9.88Z"/>
  <path d="M738.46,432.66l-14.47,43.13-11.32-34.4c-.87-2.65-2.73-5.58-4.37-8.14-6.44.31-12.03.49-17.79,1.69l26.12,74.11c5.65.18,9.97-.34,14.84-1.76l24.01-75.79-17.02,1.17Z"/>
  <path d="M795.61,462.98c3.41-14.82-1.12-31.18-13.43-32.49l-21.97.9-4.75,16.77,17.19-1.33c5.09-.39,9.73,2.05,10.03,7.27.22,3.78-3.06,8.17-7.64,8.54l-23.89,1.89c-2.38,6.88-5.79,13.7-5.91,20.84l-.34,20.81,16.48-2.07.95-22.92c1.29-.9,5.61-.86,6.32.36l9.26,20.74,17.14-2.05-10.45-21.73c5.03-4.71,9.54-9.13,11.01-15.52Z"/>
  <path d="M1028.38,349.45c.66,12.7,1.17,24.82,1.2,37.68.12,9.3.25,19.97.32,24.31-.39,5.02,3.41,9.75,8.57,9.95,9.75.1,22.76-1.35,32.55-1.79,5.36-.4,10.85-1.04,16.76-1.58,1.84-.21,3.82-.45,5.22-1.69l.11-.1c5.33-6.98,3.79-15.96,3.89-24.67-.18-10.77-.05-20.88-1-31.62-.38-5.47-.81-11.15-1.21-16.71-.44-6.18-.61-10-4.2-14.39-1.54-1.88-3.51-2.76-5.83-2.86-4.03-.37-13.92-1.26-23.58-2.13-6.59-.58-12.16-1.12-17.27-1.56-3.55-.24-5.9-.78-8.9-.38-6.1.98-7.76,5.82-7.17,12.21.16,4.75.37,11.01.55,15.35ZM1045.27,326.47c9.78.45,20.81,1.82,30.97,2.64,2.57.24,4.9.45,6.74.62,2.12.22,4.14.16,5.53,1.85,2.07,2.56,3.22,7.66,3.42,11.35.41,5.61.7,10.05.99,15.27.35,6.9.9,13.67.78,20.36-.18,9.35.48,20.39-.2,28.08l-.03.14c-1.27,5.26-3.09,7.55-8.62,7.53-15.58,1.33-29.09,2.41-44.08,2.87-2.96.16-4.84.09-5.93-1.13-1.98-2.66-2.04-6.27-2.1-9.44-.03-4.66-.1-15.66-.16-25.18-.1-7.12.06-12.82-.25-19.68-.37-7.07-.82-13.3-.94-20.61.13-17.75-4.24-15.18,13.89-14.67Z"/>
  <path d="M1103.62,372.88c.09,8.82.23,22.13.31,29.75.13,3.08-.27,5.62.65,8.48,1.63,5.34,6.41,5.96,11.44,5.44,3.7-.31,8.52-.2,11.19-2.92l.12-.13c2.03-2.18,2.49-5.43,2.7-8.29.18-3.71.07-8.99.13-13.84.28-12.14-.23-23.96-1.06-35.87-.21-3.39-.65-8.24-.96-12.01-.4-4.63-.38-9.23-3.58-12.15-1.71-1.74-4.16-2.23-6.54-2.48-3.13-.3-6.78-.72-9.28-.69-9.92-.04-6.31,13.57-6.2,20.53.63,8.65,1.12,15.57,1.08,24.18ZM1108.94,331.54c7.05-.46,15.69-.24,15.95,8.64.4,3.81.91,9.28,1.29,13.08.9,9.82,1.06,19.28,1.45,29.24.18,7.72.04,15.2-.55,23.4-.12,1.58-.24,3.66-1.01,4.78l-.08.11c-.7.99-2,1.45-3.97,1.68-2.17.24-5.02.47-7.29.68-2.56.22-5.94.71-6.91-2.22-1.49-5.25-1.07-10.59-1.23-16.11-.29-14.53,0-27.83-.75-38.62-.28-4.08-.59-8.61-.88-12.75-.21-5.58-1.73-10.45,3.97-11.91Z"/>
  <rect x="626.12" y="192.02" width="4.86" height="69.25" transform="translate(325.61 822.19) rotate(-82.87)"/>
  <path d="M1080.04,430.02c-1.28-1.68-6.3-1.54-8.94-.94l-1.35,26.39c-.03.6.29,2.96.88,2.87l2.5-.38c.6-.09.38-1.75.47-2.56l1.11-9.53c2.93,4.76,2.12,11.88,3.74,11.61l3.25-.55-2.7-11.75c3.02-4.34,4.58-10.47,1.03-15.15ZM1078.67,437.52c-.35,2.05-1.7,4.26-3.84,5.07-1.35-2.73-1.29-6.73.39-9.23,1.85.06,3.7,2.72,3.45,4.16Z"/>
  <path d="M1083.82,457.14l8.77-1.29c.66-.53.92-4.66-.17-4.63l-4.36.1c-2.1-.83-1.89-7.09,1.06-7.32,1.98-.15,3.59-.64,3.8-1.6.17-.78.42-3.21-.35-3.22l-4.56-.05c-.69-1.12-.58-6.15,1.17-6.58,1.14-.26,4.43-.13,4.48-1.08l.23-3.91-9.01.46-1.07,29.12Z"/>
  <path d="M364.21,434.09c9.65-8.76,15.92-19.81,22.13-30.97,3.17-5.69,5.11-12.23,6.18-18.71,1.43-8.68-5.3-16.22-13.7-16.83-14.3-1.04-25.56,6.73-32.48,18.75-10.02,17.41-19.38,34.45-27.46,52.88-.98,2.24.23,6.69,1.63,8.11,7.7,7.82,31-1.69,43.71-13.23ZM367.9,381.51c1.89-1.93,5.86-3.17,9.03-1.48,4.11,2.19,5.81,8.1,4.39,12.63-1.48,4.75-5.54,7.39-9.19,6.94-4.65-.58-7.53-4.47-7.62-9.44-.06-3.28,1.07-6.28,3.39-8.65ZM349.28,410.37c2.55-3.12,7.09-4.26,10.75-2.71,2.98,1.26,5.93,5.33,6.27,9,.47,4.99-.71,8.16-4.33,11.71-2.83,2.78-7.02,4.87-10.85,1.9-5.7-4.41-6.53-14.17-1.84-19.91Z"/>
  <path d="M192.11,441.26c2.72.15,6.28-1.73,6.84-4.88l10.6-59.34c1.56-8.73-4.2-15.91-12.48-17.01-8.14-1.08-15.31,3.94-19.41,11.31-8.87,15.93-14.84,42-5.85,57.07,4.49,7.53,11.15,12.33,20.3,12.84ZM187.66,380.16c.13-3.85,2.46-8.1,7.57-8.77,2.19-.29,5.44,2.43,6.25,4.29,2.67,6.09-2.03,15.55-7.34,14.24-4.63-1.14-6.62-5.62-6.48-9.76ZM190.75,400.39c2.1-1.09,8.2-.5,8.16,2.97-.07,5.79-1.37,12.94-2.91,19.37-5.57,2.43-11.38-3.16-11.96-8.45-.66-6.05,1.23-11.05,6.72-13.89Z"/>
  <path d="M179.47,454.05c26.42,8.87,71.51,14.54,98.8,14.37l30.81-.19c41.06-.25,76.91-14.61,100.55-48.42,2.62-3.74,6.52-6.43,5.59-12.4l-13.77,16.64c-19.42,23.47-47.06,36.07-77.45,38.53l-12.52,1.02c-15.45,1.25-30.6.7-46.22-.02-25.09-1.16-49.39-4.32-73.69-10.42-10.4-2.61-20.1-6.37-27.22-14.25-6.44-7.12-7.48-16.05-10.94-25.59-3.6,18.24,8.83,34.95,26.04,40.73Z"/>
  <path d="M382.84,565.86c-.66-4.29-3.89-9.98-8.36-10.86-9-1.78-17.72-1.89-26.77-2.37l-10.84-.58c-8.27-.44-14.36,6.53-14.56,14.62-.34,13.81.17,26.99,1.49,40.72.34,3.56,3.8,7.47,7.28,8.31,16.45,3.97,39.15,7.56,53.57.11,5.12-2.65,4.31-10.32,3.65-14.61l-5.46-35.35ZM347.05,613.26l-16.34-3.13c-1.69-3.23-2.61-7.99-2.73-11.78l-.94-28.92c-.11-3.25,1.02-6.97,2.98-9.14,2.24-2.47,6.09-3.45,9.74-3.21l17.35,1.13,12.37.8c4.39.29,7.51,2.83,8.22,7.29l5.23,32.94.75,8.98c.54,6.45-22.37,7.75-36.61,5.02Z"/>
  <path d="M349.42,536.09l-24.16-1.19c-.94-.05-2.69.67-3.08,1.38-.3.53,1.52,2.16,2.17,2.22l11.54,1.13c10,.98,19.7.72,29.55-.19,24.97-2.32,47.72-10.87,68.86-24.08l19.05-13.63c3.28-2.35,7.93-4.62,7.33-9.89-30.83,25.1-71.59,46.2-111.25,44.25Z"/>
  <path d="M310.16,476.27l-27.44-1.95c-1.66-.12-3.71-.03-4.66.64-.8.56-.83,3.12-.56,4.44l35.91,2.14c.42-1.28.85-3.58.19-4.07-.66-.49-2.47-1.13-3.43-1.2Z"/>
  <path d="M307.5,493.91l-14.65-1.27-15.37-.96c-1.11-.07-3.86,1.77-3.24,2.52l2.14,2.6,29.02,2.32,3.59-1.88c.68-.35-.68-3.27-1.49-3.34Z"/>
  <path d="M310.18,484.98l-20.32-1.21-11.37-.97c-1.02-.09-3.19,2.15-2.58,2.77l1.99,2.05,30.97,2.47,3.05-1.68c.65-.36-.81-3.38-1.75-3.43Z"/>
  <path d="M152.8,518.42c-5.06-2.57-21.16-1.17-37.16-19.06-.68,6.86,5.2,10.18,9.49,13.25,15.91,11.38,32.43,8.23,27.68,5.81Z"/>
  <path d="M224.36,470.33l-16.04-1.75-12.35-.77c-.81-.05-1.81,2.8-1.2,3.3.45.37,1.89,1.18,2.51,1.25l26.14,2.72c.75.08,2.77-1.32,3.22-1.89.45-.57-1.51-2.78-2.27-2.87Z"/>
  <path d="M211.79,477.2l-14.53-1.42c-.77-.07-2.88,1.39-2.79,2.15.08.76,1.59,2.6,2.55,2.71l22.68,2.54c2.14.24,4.71-.66,5.78-2.45-1.19-1.06-4.08-2.28-5.42-2.45l-8.26-1.07Z"/>
  <path d="M196.57,484.51c-.92-.11-3.2,2.18-2.7,2.89.4.57,1.96,2.03,2.9,2.14l22.32,2.52c3.06.35,5.33-3.15,3.88-4.4l-26.41-3.16Z"/>
  <path d="M1254.64,368.37c-.42-5.65-.36-22.94-3.98-26.4-1.52-1.06-3.23-.9-5.18-1.16-3.81-.38-8.29-.85-12.31-1.25-2.57-.26-5.06-.51-7.17-.73-3.87-.34-6.08-.92-7.74.4-3.44,3.32-1.73,9.55-1.62,14.02.31,5.41.91,11.88.93,16.99.06,5.72.13,12.72.19,18.83.06,5.72.11,11.06.14,13.88-.02,1.61.27,3.18,1.42,4.38,3.25,3.88,9.66,1.53,14.74,1.57,5.09-.6,12.79-.38,16.87-1.73l.12-.06c2.64-1.39,3.96-4.04,3.76-6.81-.04-6.42-.14-25.01-.19-31.93ZM1249.59,404.1l-.14.08c-2.54,1.26-5.96,1.11-8.84,1.46-4.61.42-7.91.65-12.2.86-2.38.06-5.64.57-7.25-1.47-1.75-3.08-1.1-7.12-1.09-10.58.7-11.88-.44-23.95-.72-35.42-.16-4.62-.58-11.92-.63-15.85.03-2.82,1.58-1.86,5.2-1.68,6.8.63,18.02,1.68,22.9,2.14,1.03.13,2.12.18,2.73,1.07.92,1.54,1.07,4.62,1.41,6.61.93,6.66,1.43,12.91,1.62,19.19.07,6.05.14,14.5.21,21.67-.14,4.8,1.12,9.18-3.2,11.92Z"/>
  <path d="M1175.13,335.06c-2.88-2.62-8.61-2.44-12.63-2.6-6.42-.17-7.52,4.62-6.82,10.75.39,6.5.78,11.42.94,17.63.52,14.22.87,28.11,1.02,41.51.02,3.66.3,8.25,3.81,10.29,1.85.95,4.77.45,8.37.16,2.74-.32,6.53-.22,8.34-1.95l.1-.1c2.49-3.34,2.6-8.35,2.67-12.4-.05-6.04-.22-24.5-.27-29.89-.03-3.96-.53-7.57-.87-11.89-.41-4.61-.88-9.95-1.16-13.11-.16-3.15-.93-6.34-3.5-8.4ZM1178.37,397.82c-.22,2.42-.44,5.59-.72,7.71-.18,1.19-.46,2.05-1.05,2.6l-.1.09c-1.54,1.21-5.05,1.14-7.28,1.4-5.57.81-9.83-.75-9.49-6.5-.03-5.63-.07-17.47-.09-24.29,0-10.64-.82-28.92-1.11-40.29-.38-2.96,2.19-2.73,4.37-2.73,6.54.15,12.88.49,13.43,8.26,2.15,17.95,3.19,35.66,2.03,53.76Z"/>
  <path d="M1328.22,343.71c-.4-5.12.11-7.51-1.8-10.99-1.97-3.46-8.54-4.07-9.91.09-.6,1.85-.44,3.9-.41,5.86.12,3.62.27,7.65.37,10.8.2,7.73.34,17.95.48,25.04.07,5.06.1,10.48.15,15.66.05,3.64-.03,5.9.29,8.27.23,1.41.54,2.95,1.58,3.98,1.74,1.71,6.07,1.08,8.09-.82l.12-.11c1.43-1.41,1.56-3.76,1.79-5.81.21-2.13.23-3.8.22-5.86-.14-9.45.1-24.68-.37-33.71-.2-3.92-.42-8.38-.62-12.39ZM1327.93,388.33c-.1,2.13-.2,4.8-.36,7.05-.08,1.31-.43,2.91-1.26,3.66l-.1.1c-1.24,1.12-3.29,1.29-4.9.87-4.5-1.03-2.74-7.04-3.11-11.05-.03-7.64,0-15.98-.07-23.4-.1-5.97-.43-23.35-.53-30.12,0-.88.13-1.84.86-2.28,1.6-.82,4.96-.13,6.65,1.86,1.13,1.37,1.58,3.52,1.72,5.38,1.1,16.02,1.59,31.79,1.1,47.92Z"/>
  <path d="M1302.53,325.23c-1.35-.11-2.87-.23-3.98.63-1.78,1.5-1.39,4.89-1.32,7.4.07,1.8.17,3.3.34,5.04.45,4.75,1.67,17.57,2.32,24.45.78,7.56.96,14.6,1.39,22.08.2,3.85.61,12.25.83,16.45.1,1.64.25,2.63,1.01,3.05l.09.05c2.42.68,5.49-.2,8.23-.41,2.87-.3,3.63-1.45,3.58-4.65.99-22.73.06-46.07-4.68-68.42-1.01-3.65-3.99-5.43-7.81-5.67ZM1312.67,370.58c.07,5.66.37,21.84.4,27.33-.04,1.09-.26,2.04-1.14,2.67l-.1.07c-8.71,3.69-8.25-1.34-8.76-8.14-.61-8.66-.65-18.33-1.02-27-.55-7.61-2.04-22.23-2.94-32.52-.22-2.5-.52-4.13.28-4.75.45-.37,1.23-.44,2.29-.33,2.07.34,4.82.69,6.2,2.24.51.64.69,1.44.81,2.3.63,5.52,2.27,20.33,3.2,28.64.42,3.99.78,5.93.78,9.48Z"/>
  <path d="M1267.18,342.58c-6.46-1.31-9.95-.17-9.7,6.75-.18,5.86.64,12.8,1.06,18.4.54,9.08.24,18.71.43,27.94.26,4.58-.76,7.02,2.3,9.57,3.18,2.19,10.02,1.85,11.74-1.95,2.54-6.44,1.38-21.51,1.07-29.51v-.17c-.26-5.08-.59-11.34-.84-16.35-.48-5.18.28-12.98-6.06-14.69ZM1271.9,364.41c.29,5.93.73,12.79.89,18.43v.14c-.02,2.98-.42,8.16-.6,11.66-.16,2.92-.2,6.69-1.77,7.71-2.31,1.72-9.45,2.42-9.4-1.76-.19-7.42.05-19.96-.18-28.52-.67-6.46-1.28-13.85-1.39-20.56.04-2.08-.5-4.45,1.24-5.79,2.3-1.19,6.9-1.02,8.65,1.58,1.18,1.61,1.39,4.13,1.68,6.41.42,3.56.67,7.08.88,10.69Z"/>
  <path d="M377.4,152.19c8.57,7.48,31.25-.04,37.67-16.81.83-2.18.25-6.04-.9-7.84-4.55-7.11-28.1-2.11-37.59,15.58-1.67,3.11-1.77,6.81.83,9.07ZM394.07,139.82c3.04-6.25,10.04-11.14,15.98-6.57-1.57,5.85-7.88,13.63-13.99,14.39-4.38.55-3.06-5.63-1.99-7.82Z"/>
  <path d="M214.21,589.31c3.46,2.93,9.33,4.36,13.49,2.48,6.18-2.8,9.23-9.19,9.35-15.09.13-6.4-2.5-12.64-8.06-16.34-4.38-2.92-10.08-2.79-14.34.43-3.23,2.44-6.47,6.96-5.9,11.51l9.43,2.45-10.09.96c.67,6.21,2.57,10.59,6.12,13.6Z"/>
  <path d="M179.38,569.27c-3.47-.96-4.09,3.22-3.85,6.05.22,2.59,1.45,7.44,5.21,5.18,3.16-1.89,2.04-10.29-1.36-11.23Z"/>
  <path d="M861.05,530.63c1.62-.67,3.02-4.89,1.53-5.63-3.45-1.71-8.2.97-7.54,4.69.31,1.56,4.29,1.65,6.01.94Z"/>
  <path d="M910.19,516.81c-2.14-.11-5.03.51-6.06,1.49-.88.84-1.27,3.92-.79,5.14,1.74.08,5.24-.8,6.98-1.97.86-.58.63-4.38-.13-4.67Z"/>
  <path d="M124.93,548.39l-15.44-1.36.24,3.31,24.4,2.88c.53.06,2.42-.51,2.93-.67.52-.16-.65-2.52-1.24-2.6l-10.89-1.57Z"/>
  <path d="M136.1,558.77l-23.36-3.07c-.56-.07-2.47.23-2.85.39-.38.16-.36.89-.48,2.26,8.74,1.95,16.62,3.26,26.71,3.89.8.05,1-3.33-.03-3.46Z"/>
  <path d="M111.15,564.69c-.5.44-1.44,2.88-.75,3.31.52.33,2.13.89,2.97.98l20.76,2.42c.88.1,3.1-.42,3.72-.69.46-.2-.15-1.3-.63-2.09l-26.07-3.93Z"/>
  <path d="M133.77,540.43l-25.98-2.59c2.68,5.44,19.56,5.41,29.75,6.01-1.03-2.51-2.34-3.29-3.77-3.43Z"/>
  <path d="M636.31,590.61l-.09,29.27,21.87-5.41-.02-32.88-20.32,3.54c-.54,1.71-1.44,4.24-1.44,5.48ZM655.02,585.96l-1.05,26.13-13.72,3.02-.11-26.25,14.88-2.9Z"/>
  <path d="M568.46,478.46c2.46-6.47,1.52-13.42.18-19.69-3.18-1.38-8.02-1.38-11.01.49-.86,6.82-1.13,14.08.48,20.55,2.29,2.23,9.05,2.09,10.35-1.34ZM561.47,461.42c.79-.83,4.57-.18,4.59,1.19l.17,12.7c.02,1.17-2.24,3.15-3.29,3.06-1.05-.09-2.92-1.93-2.93-3.09l-.09-10.4c0-.98.9-2.78,1.56-3.47Z"/>
  <path d="M991.61,418.2c.94-29.39.08-57.53-2.58-86.32l-.92-10c-.67-7.25-.78-14.88-3.48-21.81-1.44-3.69-9.52-4.77-12.08-1.77-1.56,1.82-1.99,5.91-1.69,8.63,4.05,36.83,5.76,72.92,5.24,109.85-.03,2.39,1.85,5.66,3.41,6.56,3.91,2.24,11.94-.01,12.11-5.14ZM987.41,419.51l-7.09,1.03-1.19-10.15-.47-43.15-.86-14.45-1.1-14.32-1.05-11.43-1.06-11.57-.63-14.37c1.8-.9,5.2-1.04,6.75-.37,1.4.6,2.75,3.4,2.93,5.35l2.29,23.82,1.18,16.2.61,13.48.99,13.33.32,42.31c0,1.09-.56,4.14-1.61,4.29Z"/>
  <path d="M999.67,359.47l.9,18.79.76,41.45c.06,3.43,6.32,3.72,8.3,2.49,2.47-1.53,3.52-4.75,3.5-8.48l-.13-43.62-.89-18.23-1.21-16.23-2.63-29.16c-.21-2.36-2.35-5.38-3.96-6.38-1.73-1.07-6.25-1.28-7.53.36-1.61,2.07-1.28,5.22-1.09,7.67l3.98,51.32ZM1003.16,303.06c1.35.31,2.55,2.96,2.71,4.75l3.62,41.33,1,17.09.2,48.31c0,2.3-2.06,4.56-3.43,4.75-2.06.28-3.79-1.21-3.79-3.7l-.04-35.32-.87-21.27-2.12-25.74-2.7-29.57c1.15-.49,4.17-.91,5.42-.63Z"/>
  <path d="M651.48,300.36l-2.19-24.51c-1.15-12.82-.26-26.05-12.5-27.14-5.66-.51-11.75-.89-17.39.06-3.49,1.78-4.91,8.35-4.58,11.8l1.06,10.93.98,11.37.97,13.45,1.03,14.31.9,12.5.97,13.47.85,14.08c.5,8.41,7.33,11.93,14.83,11.5,4.47-.26,9.8.46,13.95-1.31,4.03-1.72,4.85-7.79,4.56-11.82l-3.44-48.68ZM649.08,356.79l-16.4-.1c-1.36,0-4.33-1.57-5.64-2.57l-1.49-17.5-.89-13.56-.98-14.32-.93-12.46-1.04-13.44-.94-10.55-.53-18.86c7.32-.44,13.73-1.05,20.24,1.61,3.19,1.31,3.5,7.46,3.75,10.33l1.01,11.78,1.02,12.46,1.05,13.37.91,11.51.91,11.57,1.09,18.13c.27,4.45.99,7.7-1.11,12.6Z"/>
  <path d="M365.19,599.61c.49-.99,1.15-2.54.76-2.72-.39-.18-1.52-.61-2.21-.69l-21.01-2.52c-4.66-.56-8.06-1.2-12.84-.01,2.21,2.32,4.7,2.89,7.81,3.2l27.49,2.74Z"/>
  <path d="M332.41,585.77l29.5,3.21,3.04-1.67c.49-.27-1.3-1.93-1.79-2.13l-30.12-3.48-2.89,1.76c-.62.38,1.56,1.93,2.25,2.31Z"/>
  <path d="M333.18,571.5l-2.58.87c-.51.17-.15,1.58.14,2.62l33.3,3.59c.86-.99,1.62-1.86,1.6-1.86-.06-.02-.83-.93-1.22-1.35l-31.25-3.87Z"/>
  <path d="M331.22,604.31l1.4,1.35,27.32,3.84c2.65.37,4.99,1.07,6.5-2.69l-34.42-4.97c-.42.57-1.21,2.08-.8,2.47Z"/>
  <path d="M332.42,565.45l30.93,3.17c1.23-.56,2.59-1.53,2.07-1.93l-2.21-1.7-29.9-3.09-2.95,1.39c-.54.25,1.74,1.96,2.05,2.17Z"/>
  <path d="M1188.21,405.87c-.02,1.85.66,3.29,1.3,4.09,1,1.24,2.16,1.27,3.68,1.19,2.66-.14,4.39-2.53,4.39-6.28v-21.23h-.01c-.01-19.71-1.56-39-3.27-58.49-.31-3.66-2.4-5.61-5.34-5.47-1.39.07-2.84-.03-3.5,1.41-.39.87-.81,2.34-.67,3.93,2.36,27.02,3.72,53.68,3.42,80.85ZM1186.57,323.44c.79-1.83,5.05-1.48,5.55.66,2.52,20.8,3.38,41.4,3.85,62.4.17,6.94.6,13.23-.59,20.53-.31,1.95-4.88,1.98-4.92.15l-.61-30-3.28-53.74Z"/>
  <path d="M1204.04,321.51c-1.64-.48-4.53-.08-4.38,2.72l1.01,19.07c1.8,21.4,2.14,42.36,2.13,64.23-.01,2.99,4.05,3.09,5.3,2.35,1.38-.83,2.46-2.92,2.44-5.41l-.05-24.4-3.33-53.82c-.16-2.62-1.52-4.27-3.12-4.74ZM1208.87,404.84c-.01,1.76-.92,2.62-1.85,2.92-.73.25-2.49-.21-2.44-1.91.43-19.03-.47-37.51-1.65-56.49l-1.55-24.48c-.06-.95,2.16-1.01,2.71-.64.75.5,1.55,1.18,1.65,2.94l3.42,54.31-.29,23.35Z"/>
  <path d="M1279.3,402.99c-.02,1.57.48,2.78.95,3.47.72,1.05,1.57,1.07,2.69,1,1.91-.12,3.18-2.14,3.18-5.31v-17.95h-.01c-.01-16.69-1.13-33-2.37-49.49-.23-3.09-1.75-4.75-3.89-4.63-1.02.06-2.07-.02-2.54,1.2-.29.73-.61,1.98-.5,3.32,1.72,22.86,2.71,45.42,2.49,68.39ZM1278.1,333.27c.58-1.55,3.68-1.25,4.06.56,1.81,17.59,2.44,35.01,2.8,52.79.12,5.85.42,11.18-.44,17.36-.22,1.65-3.55,1.67-3.57.13l-.46-25.39-2.39-45.45Z"/>
  <path d="M1290.82,331.63c-1.2-.41-3.29-.07-3.19,2.3l.74,16.14c1.31,18.1,1.55,35.83,1.54,54.33,0,2.52,2.94,2.62,3.86,1.99,1-.7,1.79-2.47,1.78-4.57l-.03-20.64-2.42-45.53c-.13-2.23-1.12-3.63-2.28-4.02ZM1294.34,402.13c-.02,1.49-.67,2.21-1.35,2.47-.54.21-1.81-.18-1.77-1.62.31-16.1-.35-31.73-1.21-47.78l-1.12-20.72c-.05-.81,1.57-.85,1.96-.54.55.43,1.13.99,1.21,2.49l2.48,45.95-.2,19.75Z"/>
  <path d="M1342.35,391.59c-1.45-20.77-4.72-40.42-9.21-60.72-3.39-15.34-8.93-29.36-18.82-41.65-2.37-2.95-6.5-4.91-9.68-6.63-4.47-5.74-8.22-12.09-14.73-16.02-6.68-4.03-14.59-5.48-22.03-7.79-8.77-2.73-17.43-3-26.19-2.15-5.02-4.93-10.69-8.82-17.51-10.73l-51.51-14.45c-5.3-1.48-11.99.01-17.36.27l-22.69,1.09c-6,.29-10.03,2.75-13.53,8.26l-11.1-2.57-1.6-10.22c-.4-2.6-4.17-4.79-6.68-5.45l-12.57-3.27c-.43-2.8-.97-5.6-2.01-6.7-1.96-2.07-12.48-4.3-16.23,1.61l-31.36-47.57-5.66-8.26,9.67-8.99,5.63-5.89,29.75-30.54,15.48-16.29,4.27-4.99,4.52,5.23c.5.58,3.24.41,3.29-.36l.26-3.68-3.09-6.22c10.64,1.96,17.35,9.29,23.42,17.5.57.78,3.71,1.11,3.84.21.4-2.67-1.23-6.87-3-8.54l-9.13-8.62c-11.23-10.61-39.38-9.06-57.08-8.06l-11.84.67c-9.95.56-19.59,2.03-29.26,4.47-7.09,1.79-12.11,5.84-16.58,11.43-7.51,9.4-4.77,12.55-3.34,11.73.53-.31,1.79-1.13,2.21-1.59l10.47-11.52c3.21-3.55,8.98-4.41,13.69-4.67l-4.09,6.81c-.6.99.53,4.51,1.56,4.28,5-1.13,5.43-6.2,9.67-6.12l-10.65,21.53-18.84,38.77c1.43,3.11,5.61,4.14,8.64,4.29l7.01,16.13,18.18,40.2c-6.91-.17-11.22-.03-16.13,3.13l-11.92-2.91c-1.98-6.75.01-14.84-4.77-20.39-4.91-5.69-12.73-12.68-20.28-14.7l-55.47-14.87-58.95-14.92c-8.35-2.12-17.6-.44-26.25.31l-52.04,4.54c-5.91.51-9.31,4.32-13.33,9.21-1.63-9.19-1.44-17.86-5.51-25.5-3.21-6.03-24.56-21.82-29.64-23.11l-122.44-31.06c-11.7-.04-22.18-1.34-33.45-3.95-5.02-.25-10.64-.35-15.3-1.99-9.88-3.48-19.26-4.4-29.8-3.72l-17.17,1.11-13.5.82-14.41.92-50.21,4.34c-8.44.73-16.35,3.17-23.67,7-5.35,2.8-10.5,2.69-16.28,3.59-18.93,2.94-35.72,13.66-48.91,27.05l-10.14,3.44c-23.16,6.88-44.31,17.35-62.63,33.32-19.07,16.63-35.65,34.64-50.05,55.49-21.88,31.7-41.32,64.11-57.05,99.13l-8.99,20.04c-5.95,13.23-11.21,26.33-15.07,40.41l-11.98,43.69c-7.18,26.22-21.58,45.55-31.52,69.1-5.75,13.64-4.75,28.44-3.17,42.97-1.36,1.15-4.8,4.05-4.79,5.78l.11,27.78.9,13.24c.76,11.22,7.69,12.27,16.89,14.81,1.9,7.55,4.07,14.98,8.8,21.15,7.57,9.89,32.76,17.24,46.22,18.8l5.24.6c4.07,8.61,6.13,16.66,7.55,26.33.42,2.82,4.76,7.14,7.82,8.31,29.09,11.07,67.04,23.75,97.42,26.2l23.87,1.93,29.95,2.44,42.84,3.48,27.75,2.25c31.64,2.56,65.71-12.94,82.16-40.55,7.14.87,15.01.28,22.38-2.49,2.22,7.44,5.1,14.68,9.56,20.84,8.29,11.43,21.5,14.39,34.58,9.5,5.99-.01,13.63,2.69,19.33-.73l9.54-5.73c9.49-7.1,13.45-18.13,17.95-28.21,4.92-2.85,11.84-6.35,11.6-14.63l18,1.59c6.63.59,12.9.57,19.37-1.16l17.39-4.64c7.91,19.08,16.86,16.71,30.32,17.69,20.83,1.5,30.91-13.82,36.25-32.95l12.94-3.23,1.02-14.04,10.83,1.98c5.01.92,8.78,1.84,14.26.51l260.87-62.91,23.45-5.66c1.21,9.22,7.24,12,14.77,12.21,8.32.24,15.05-2.92,17.45-11.93,1.31-4.92,7.83-7.01,13.58-6.38,1.31,5.08,4.28,7.54,9.38,7.61,2.15.03,6.42.36,8.25-.23,6.82-2.23,9.89-8.57,10.95-14.91l4.4-1.69c2.59-5.68,8.39-8.39,14.64-7.16l79.1-18.9,36.91-8.75c1.71,4.57,4.59,7.06,8.5,7.24,3.2.15,7.3-2.71,8.46-6.01l2.75-7.79,3.48,6.43c.99,1.82,6.22,2.15,8.35,1.1,5.7-2.81,2.95-9.74,9.17-11.61l2.57-5.16c6.56-.35,12.66-2.83,14.8-9.21,3.8-11.33,5.97-23.12,5.97-35.19v-34.66ZM1285.84,269.56c4.24,3.33,8.22,5.76,11.33,11.48l-27.67-6.41-5.32-11.52,21.66,6.45ZM1254.88,261.23c4.82,2.73,7.75,6.11,10.68,11.95l-19.57-3.92-1.89-8.1,10.78.07ZM1298.62,287.34c4.49,1.01,8.61,1.99,11.57,6.18l-35.11-7.46-112.9-23.99-28.76-6.08c-2.26-.47-4.9-4.24-5.76-6.9l58.57,12.85,112.39,25.4ZM1221.82,250.23c8.74,1.82,16.88,6.61,18.39,17.81l-48.94-11-2.02-9.96-9.78-8.9,42.35,12.05ZM1134.09,237.38l34.32-1.33c3.97,1.48,8.76,5.51,12.06,8.35,3.86,2.86,7,5.57,6.74,11.49l-62.76-13.92c2.65-2.78,6.27-4.46,9.64-4.59ZM1075.9,223.12l23.41,5.84c1.54,1.29,1.97,5.56,1.08,7.59l-23.51-5.31-31.14-7.27,21.67-.89,8.49.04ZM1030.14,89.39c-.48-.09.85-1.94,1.53-1.99l18.05-1.48,31.13-1.48c2.83-.14,5.46.28,7.85,1.51l-17.53.99-20.12,1.03-18.34,1.68c-.68.06-2.1-.17-2.57-.26ZM1012.09,150.14l6.59-13.83,20.08-41.02,18.79-1.41,30.41-1.4-35.98,36.95-20.37,21-19.52-.29ZM1019.6,164.59l.66-3.23c.18-.93,3.14.1,3.69,1l11.59,18.93,19.44,30.58-12.91,2.81-22.47-50.09ZM879.83,159.77l100.83,26.63c6.72,1.78,13.13,8.02,17.42,12.96,2.97,3.43,2.73,10.05,2.96,15.18l-110.87-24.25c-.99-5.9-1.01-12.52-3.15-17.9-2.72-6.86-10.03-8.8-15.7-13.96,2.37-.33,5.4.52,8.51,1.34ZM792.55,161.68l19.39-1.66,10.62-1.04,15.34-1.08,14.5-.88c2.62-.56,7.29-.86,9.74.9l20.85,14.87c1.35,5.13,2.02,10.61,1.97,16.23l-72.06-15.91-28.4-6c1.31-3.76,4.52-5.13,8.05-5.43ZM792.71,175.57l66.18,14.44,84.16,18.46,23.86,5.26,109.09,23.95,35.09,7.85c2.74.61,5.46,4.11,6.19,7.04l-70.43-14.64-143.42-29.95-85.78-17.97-57.25-11.92-86.23-18.23-86.06-17.67-19.38-2.78-6.64-10.33,27.41,5.04,42.49,8.36,86.26,17.45,74.46,15.64ZM490.96,410.7c.38,6.57,5.79,11.84,12.41,11.81l33.45-.16,43.76-.81,11.63-.51-.1,35.82-16.3.38c-.57-2.64-1.54-5.7-2.81-6.63-6.29-1.35-13.35-.84-20.43.29-1.38,2.39-2.33,5.51-2.97,8.13l-10.23.77-19.19,1.11c-9.84.57-18.84,4.81-24.62,13.23l-8.02,11.67c-2.75-33.02-7.85-63.97-16.69-95.01-9.07-30.97-18.15-49.57-52.62-55.96,13.11-13.42,24.41-26.11,34.95-40.29l15.96-21.46c12.08-16.25,23.48-32.38,37.15-47.28l10.6-11.56c14.24-15.52,36.93-34.32,58.13-37.44,3.35,20.29,5.85,39.1,7.56,59.34-11.5,4.9-20.4,12.53-28.13,22.49-26.89,34.65-50.54,92.36-61.41,135.23-1.44,5.69-2.4,11.3-2.08,16.84ZM590.34,507.61l-.64,20.74-1.07,18.66-2.07,27.08c-7.59,5.14-13.65,10.77-19.1,17.65l-10.02,12.65-32.51,6.26-47.55,8.44,6.13-38.46c3.33-20.9,4.37-41.14,4.6-62.39l11.12-1.53,91.11-9.1ZM552.86,458.28c0-1.56,2.22-4.1,3.61-4.08l15.56.26v32.27l-11.07,1.6c-2.83.41-5.57.16-8.06-.33l-.04-29.72ZM373.54,341.52c-3.88,5.42-9.27,11.46-16.23,12.48-19.66,2.9-38.84,2.76-58.81,2.85-23.89.1-46.83-.79-70.32-4.55-3.59-.58-9.35-2.62-9.89-6.44,1.8-14.45,6.25-27.51,10.61-41.43,9.97-31.76,23.1-61.28,38.73-91.03l51.43-5.8,32.23-2.48,15.42-.58,62.3-.02,16.37.9,12.53.89-58.37,93.94c-8.78,14.14-16.35,27.8-26,41.27ZM387.16,337.96c-2.96,4.6-6.17,8.6-11.7,12.25l7.17-10.27c1-1.42,1.14-2.51,4.53-1.98ZM309.88,363.41l-11.53,15.73-7.77,9.12c-11.86.42-22.6.12-34.33-1.96-2.64-.47-4.26-4.99-4.24-7.35l.2-17.03,25.59.98,32.08.51ZM290.14,197.9c3.35-8.57,8.24-14.59,14.51-20.16,26.56-3.37,52.36-4.57,78.78-5.77l14.93-.67,58.52.02c2.97,0,5.58.7,8.63,1.95l-12.82,18.6-71.88.21-22.29.9-27.33,1.52-41.05,3.4ZM402.18,307.69l39.56-64.89c12.99-21.3,26.37-41.3,41.78-60.82,18-22.8,42.72-45.39,71.28-53.25l8.84,11.11c-29.45,5.75-49.85,20.83-68.71,43.1-19.69,23.26-35.77,48.47-52.32,74.06l-25.45,39.35-25.03,35.79-2.17,1.51c-.58.4-2.09-1.2-2.19-1.65l14.41-24.31ZM698.46,112.54c14.53,3.58,28.48,6.38,42.49,11.49,9.13,3.32,17.92,11.39,24.25,18.33,4.89,5.36,3.79,13.92,4.83,21.5l-19.23-4.01-89.29-17.97c-.81-4.65-2.08-8.52-3.99-12.33l-5.97-9.54c-6.28-11.52-15.92-18.06-27.33-25.79l74.24,18.32ZM608,93.59c25.01,8.15,38.76,21.32,48.42,46.89l-25.68-5.07-74.43-14.39c-13.37-4.83-26.41-7.28-41.18-10.3,8.77-8.61,18.66-12.38,28.62-17.36,20.26-6.98,43.94-6.37,64.25.23ZM425.77,96.34c7.54-3.54,14.83-5.9,23.18-6.66l19.13-1.73,33-2.71,20.16-1.16,21.13-.95c6.18-.28,11.83-1.04,17.63.9-19.32,3.26-39.32,12.54-51.02,26.31l-12.8-1.22c-15.78-1.51-31.13-.92-46.95.02l-17.78,1.07-31.66,3.07c7.05-8.51,16.54-12.51,25.98-16.94ZM400.28,101.49l4.79.28c-4.43,3.41-7.84,7.22-11.77,12.18l-22.43,4.57c7.8-8.61,18.91-12.38,29.41-17.03ZM309.11,153.4c15.18-15.15,25.05-17.61,44.5-23.62,21.99-6.79,44.08-9.4,67.04-11.79,24.76-2.59,49-3.24,73.82-2.21,16.38.68,37.22,3.92,53.2,10.01-20.86,8.04-38.04,20.34-53.39,36.89l-16.02-2.7c-37.94-6.39-95.33-5.58-133.93-.01-16.33,2.35-31.39,4.97-48.27,8.78,2.35-3.52,4.94-7.25,7.68-9.99l5.37-5.36ZM197.79,287.87l6.41-11.92c22.47-41.81,49.35-82.22,85.17-113.38,3.26-2.84,6.37-5.06,10.57-7.23-3.48,4.73-6.87,8.73-11.03,12.44l-8.18,7.29c-20.2,20.59-37.57,43.21-52.97,67.72-14.99,23.85-28.44,54-31.96,82.97l-18.83,5.15c6.4-15.09,13.32-29.08,20.82-43.04ZM113.38,581.81c-1.6-.39-3.39-3.94-3.11-5.23,8.96,2.39,17.25,3.7,26.35,4.17.58-.36,1.79-.98,1.6-1.29l-1.19-1.99-27.67-3.69-.62-9.15-.69-10.43-.4-18.85c3.51-1.19,8.08-3.36,10.99-2.89l17.47,2.78c2.16.35,6.9,2.7,7.27,4.99l6.38,39.16c1.36,8.31-14.42,7.73-26.15,4.89l-10.23-2.47ZM126.48,591.56l17.52-.7c5.89-.24,12.14-4.09,11.02-10.86l-6.83-41.4c-.3-1.79-2.87-5.46-4.59-6.1-9.54-3.58-20.13-5.41-30.15-5.38l-.85-12.44c-.62-9.17.1-19.53,4.31-27.79l10.44-20.5,7.25-13.65c7.37-13.86,12.14-28.14,16.31-43.31l8.24-29.98c3.82-13.92,8.82-26.88,14.32-40.21,6.25-5.31,12.77-8.64,21.59-8.36l2.17,9.37c1.38,5.99,7.44,11.45,13.17,13.18l14.08,4.26c7.44,2.25,16.15,2.5,23.9,3.69l-.18,19.63c-.06,6.28,5.31,9.68,11.04,10.13l14.48,1.15c5.82.46,14.38,2.13,19.55-1.56,8.96-7.52,14.8-17.92,21.67-27.26l17.12-.88,21.28-1.08c3.94-.21,8.98,1.68,13.27.74,17.86-3.89,33.79-11.63,47.84-23.51,21.14,3.02,35.2,10.76,43.89,30.05,12.84,28.5,21.49,74.93,24.28,106.78l1.17,13.38c1.45,16.43,1.16,32.53-.05,48.92l-.85,11.62c-1.76,23.75-5.61,46.82-9.2,70.26l-11.07,1.61-27.85,3.45c-28.88,3.58-57.34,3.07-86.29.15l-28.34-2.87c-6.34-25.32-9.01-49.88-8.23-75.57.38-12.61,8.35-20.59,5.39-31.34-1.18-4.3-6.61-6.96-11-7.34l-33.82-2.92-78.98-7.7c-20.48-2-33.87,15.27-33.48,36.89.33,18.13,2.81,35.73,6.07,53.55-2.88.05-6.57.51-8.43,2.09-2.92,2.46-1.18,8.05,2.27,8.72l9.67,1.86,1.85.68c.32.12.36,1.25.03,1.33l-2.18.48c-14.44-2.94-28.57-4.42-42.82-11.26ZM256.01,555.38c-.37.23-1.96-2.39-1.61-2.65,2.37-1.78,8.28-.25,10.06,4.05,4.19,10.06,4.04,24.6-3.72,32.69l-7.5,1.31.02-33.7,1.59-.97c.28-.17,1.01-.62,1.19-.74-.01,0-.02,0-.03.01ZM259.13,544.49c-.71-5.49-.65-7.07.66-13.02-.35-.5-3.35,1.33-4.27,2.61-2.25,3.11.63,6.51-.74,11.2-.33,1.12-4.09,1.59-4.69.59-1.6-2.7-2.61-9.86-.25-12.48,3.21-3.58,9.43-5.2,14.06-6.19,3.44,1.57,5.02,7.09,3.91,10.77-1.03,3.43-4.87,6.2-8.68,6.52ZM248.58,596.47c-.61,1.81-2.45,1.92-2.76.18.39-15.57-1.12-29.92,1.09-45.71,3.62,15.29.35,29.75,1.67,45.53ZM244.23,536.4l1.27,11.2-18.73-2.39-18.98-1.89-26.79-3.01c-2.36-4.87-2.49-12.86,1.69-16.35,8.41-3.02,17.67-2.09,26.49-1.5l44.81,3.01c-5.46,2.99-10.49,4.5-9.76,10.93ZM192.71,516.87l-10.46,1.73c-8.22,3.43-9.98,13.3-7.05,21.25-3.41,2.08-5.43,4.81-5.38,8.49l.22,15.65c.03,1.88-1.28,4.39-2.85,5.71l-2.44-21.36c-1.68-14.68-1.31-29.99,9.25-39.64,5.49-5.01,11.78-6.95,18.98-5.17l-.27,13.34ZM175.63,588.69c5.34,1.82,11.27,4.52,16.79,3.56,13.72-2.4,13.89-13.63,12.49-13.37-4.59.87-4.07,5.09-7.01,7.07-7.71,5.19-18.88,2.36-23.57-5.28-3.99-6.5-.6-13.12,4.33-17.72,3.1-2.89,6.69-6.5,11.25-5.85,7.07,1,10.99,7.26,11.47,14.03l-13.77-1.68-1.2,5.53c-.24,1.11.34,3.67,1.13,4.42.78.76,3.02.22,4.42-.3,6.48-2.41,10.73-.39,13.36-2.59,2.22-1.85.23-19.51-13.4-23.18-6.77-1.83-11.16,2.1-16.98,7.32l-.02-15.21,39.78,4,26.26,2.64c.59,2.88.47,5.36.47,8.11l.02,28.35.58,15.37c-11.33.41-18.42-5.71-28.1,4.08l-1.98-6.45c-1.07-3.48-8.98.55-13.23-2.56l-35.25-4.79-1.24-1.26c-.84-.86,8.34,1.44,13.4-4.24ZM198.77,609.57c.77-1.62,3.75-3.53,5.67-4.34l3.6-1.5c.95-.4,1.82,3.47.81,3.83-12.97,4.68.71,21.49,1.39,27.44.08.71-1.71,2.02-2.31,1.62-3.35-2.29-12.11-20.82-9.16-27.05ZM208.71,615.07l21.86,6.19c26.78,6.05,53.74,9.35,81.33,10.63,3.55.16,6.43.54,6.14,5.55l-13.87-.73c-29.98-1.57-59.05-6.48-88.13-13.48-4.51-1.08-8.38-3.07-7.33-8.16ZM139.26,611.59c-4.91-2.36-7.86-8.17-9.04-13.25,14.4,4.37,27.59,7.04,42.14,8.89l3.68,15.43c-13.45-2.23-25.05-5.42-36.78-11.07ZM175.49,600.97l21.31,2.83c-3.51,5.38-4.26,9.39-1.79,16.63l-14.08,2.61-5.44-22.07ZM221.33,666.9l-17.17-5.62c-3.67-1.2-7.95-2.97-10.07-5.61-.92-9.92-2.67-17.69-7.22-26.65l10.16-1.51,4.69,10.01c1.64,3.49,5.25,5.52,9.54,3.64,4.81-2.12,5.09-8.55,1.46-13.95,20.49,5.06,40.36,8.82,61.6,11.57,6.8,12.62,4.43,29.4-2.43,42.55-17.79-3.71-33.86-8.97-50.56-14.43ZM412.85,694.28l-14.49-1.37-67.75-5.67-38.28-3.1-16.9-1.93c7.17-14.45,9.13-28.21,3.67-42.72l11.79,1,30.37,2.19c4.83,4.66,10.94,8.99,18.17,9.62l24.51,2.13h43.91c24.46-.02,47.6-4.36,72.49-7.88-2.68,20.18-23.86,39.67-40.78,46.44-8.33,3.34-18.03,2.12-26.71,1.29ZM460.72,685.77c11.84-12.43,21.56-21.26,23.97-39.7,3.95-1.47,8.69-2.38,12.96-2.23-5,19.2-18.19,34.44-36.93,41.93ZM494.35,636.89l-54.71,8.38c-31.94,3.53-63.43,3.87-95.96,1.24-12.25-1-19.87-8.66-21.77-20.35l15.07,1.86,44.76,3.36,26.26-.26c31.2-1.42,61.32-5.87,91.97-11.65l53.31-10.04-9.8,14.08c-2.36,3.41-6.64,4.83-10.65,5.63l-38.48,7.75ZM526.99,636.96l6.04-1.3c-.3,13.42,1.67,25.86,8.3,37.33,2.74,3.9,5.66,6.86,9.62,10.86-18.88-3.04-25.01-28.32-23.96-46.89ZM537.64,642.16c-.12-1.71-1.47-6.1.08-6.91l8.32-4.39c-.32,14.82,1.13,29.48,8.93,41.89l6.7,9.08c-17.9-1.9-22.88-22.63-24.03-39.67ZM599.59,665.75c-3.54,8.04-10.89,14.26-19.21,16.53-8.27,2.25-16.02-2.58-20.73-9.36-8.67-12.46-11.15-30.43-9.17-45.8.42-3.3,4.69-7.7,7.34-10.08-2.09,12.73-3.15,24.56,1.66,36.15,1.05,2.52,5.41,1.59,7.12-.73,7.74,5.54,16.23,6.78,25.12,2.39l12.66.02-4.79,10.88ZM590.18,649.81c-6.28,2.69-13.58,3.9-18.85-1.53l13.46-.65c1.91-.09,7.07-1.58,7.09-3.47l.42-29.03,17.04-2.8c1.33-.22,4.46-.77,5.63-.31,1.17.46,2.59,2.69,2.91,3.89-6.75-2.64-12.76-3.58-17.07,1.43-7.2,8.38-8.15,21.46-.55,29.48,2.91-.59,5.58-1.04,7.72,1.6-7.82,3.01-12.3-.97-17.8,1.39ZM572.46,638.38l15.41-.58c.37-.81-.08,3.89-.88,4.29-2.85,1.38-9.7,2.02-12.9,1.37-1.21-.43-2.08-4.49-1.63-5.08ZM573.23,631.01l13.39-.94c4.2,4.5-10.89,6.22-14.27,3.71-.61-.45.06-2.71.88-2.77ZM586.3,617.88l-10.74,1.17c-.86.09-3.06-.15-3.1-.58l-.19-2.53,13.13-1.05c.54-.05,2.16.31,2.68.44.69.17-1.05,2.48-1.78,2.55ZM572.14,610.6l17.21-2.93c-.41,3.89-11.65,4.97-17.21,2.93ZM572.42,623.11l3.11-.31,11.97-.73c.84-.04.03,3.6-.87,3.7l-11.43,1.2c-.67.07-2.28-.52-2.76-.79-.64-.35-.74-3-.02-3.07ZM601.51,642.04c-3.3-4.42-3.51-10.73-1.03-16-.56,5.32-.1,9.12,1.03,16ZM610.4,644.06c-9.3-3.97-6.38-24.2.72-25.68,1.43-.3,4.61,1.18,5.31,2.54,6.34,12.51-1.45,25.1-6.03,23.14ZM623.48,616.12c-1.02-6.55-5.73-10.49-12.06-9.26l-17.21,3.35-.39-6.8c-.26-4.62-16.94,4.1-28.24,2.38,5.53-7.14,10.62-17.18,19.19-20.25l41.36-8.99c2.78,6.2,2.17,12.39,2.11,18.87l-.26,27.22c-3.53-.86-4.06-3.7-4.5-6.52ZM657.95,573.61l-4-9.1c-.18-.61,1.43-2.06,2.14-1.88,6.57,1.68,5.82,21.26,5.45,31.92l-.74,21.58c-2.69,1.67-6.43,2.9-9.74,3.69l-18.35,4.42-.02-44.22c-.01-3.57-3.2-8.13-4.74-11.21l2.12-1.31c.48-.3,2.33.86,2.57,1.49l4.87,12.8,19.8-3.63c.52-.8,1.04-3.65.64-4.55ZM625.84,632.81l-.05-7.92,5.91,4.27c5.22-.27,9.35-1.16,15.64-3.11l5.66,8.95-27.16-2.19ZM685.49,633.46l6.24-1.56,8.31,14.11c-6.7-.29-12.21-5.42-14.55-12.55ZM731.43,635.83c-2.97,5.67-9.98,10.68-17,10.69-9.31,0-15.17-7.01-18.48-15.39,1.71-.91,4.69-1.71,6.98-1.96,2.57,4.27,5.41,7.96,8.48,8.91,9.35,2.9,17.25-2.81,21.18-12.5,1.12-2.76,2.37-4.39,5.92-3.25l-7.08,13.5ZM731.1,614.91c1.96-.46-.34-8.49.31-20.24l.42-7.68,7.39-1.18c-6.74,8.58-8.18,20.82-.8,29.41l-12.58,3.2c-.62.16-3.02.02-3.14-.55l-.81-3.75-2.39-11.07c2.54-5,4.93-9.9,8.72-14.83-.29,9.68-2.36,27.92,2.88,26.69ZM728.73,624.22c-3.45,8.03-10.32,13.08-16.8,9.6-1.87-1.01-4.15-4.16-4.89-6.76l8.34-15.72,2.87,10.03c.76,2.66,6.06,2.7,10.48,2.85ZM747.33,607.03l-2.49,4.5c-.57,1.02-4.56.3-5.2-.72-3.93-8.84-.67-22.44,3.76-22.2,3.84.21,8,11.06,3.93,18.42ZM753.05,609.68l-.47,2.51c-.12.65-2.52.37-2.56.12l1.94-8.91c1.6-7.38-.33-14.55-6.5-19.23l8.57-1.19-.98,26.7ZM758.53,571.08l-12.26.84c-.83.06-1.69,2.57-1.47,3.35h10.94c-1.02,1.03-2.56,2.1-3.58,2.27l-12.41,2.1-15.51,3.8-17.84,32.94c-2.14,3.94-4.63,6.41-8.89,7.5l-37.54,9.56c-2.71-1.56-5.24-5.35-6.28-8.59,3.59-1.24,7.93-1.98,9.65-4.26,2.88-3.8,2.5-9.08,2.66-13.65l.58-16.65c1.34-.42,3.93-.14,5.44.44-3.45,3.39-4.82,6.96-3.13,11.07,1.52,3.71,6.61,6.19,11.22,4.58,13.48-4.73,26.24-11.09,37.93-19.51,7.45-5.36,15.02-15.38,10.07-22.1-1.52-2.07-5.1-3-8.12-3-4.96-.01-7.59,1.96-9.6,6.04-.36-2.25-.34-5.12.33-6.68.57-1.31,3.42-2.31,5.23-2.31l39.34.11c3.47,2.46,4.79,7.99,3.24,12.15ZM674.07,595.31c12.48-5.63,24.34-11.62,35.98-19.3,4.24-2.8,3.97-9.08,10.29-9.6,1.53-.13,5.16,2.4,4.62,3.9-5.05,14.05-30.38,24.77-45.75,31.41-1.15.5-4.69.5-5-.67-.3-1.17-.27-3.86-.14-5.74ZM761.96,538.17l3.08-17.56c.35-1.96,2.96-5.04,4.94-5.33l27.74-4.06,71.71-9.82,41.22-5.77,49.61-6.56c.64-.08,2.24-1.24,2.64-1.66.39-.43-1.32-1.35-2.16-1.64l-73.34,9.73-115.36,15.85c-5.84.8-9.02,3.31-10.18,9.34l-3.43,17.78-30.22,5.1-119.98,20.71c-6.62,1.14-10.84,3.23-17.77,6.93l1.34-15.14,1.09-15.26.9-15.37.49-18.04,12.58-1.7-.65,9.26c-.53,7.63.29,15.66-2.54,22.99-.85,2.21-4.88,4.98-1.82,8.1,1.32,1.34,4.52-.72,5.68-2.47,3.26-4.94,3.53-9.49,3.88-15.34l1.08-18.14.54-9.71.77-41.62.05-26.99-1-42.84-.77-28.36-.67-10.55c-.67-10.58-1.5-20.23-7.63-28.94-.52-.73-2.31-1.8-3.06-1.4-5,2.67,3.65,10.26,4.09,18.61l.96,18.4.93,20.07.97,28.81.25,50.19-11.9.58-.23-77.64-.75-16.27-.67-21.06-1.01-21.08-.97-16.32-1.07-14.4-1.23-16.34-4.41-48.96-1.93-15.26-4.14-32.61,48.49,7.5,34.46,5.89,55.33,9.77,41.84,7.19,39.21,6.96,137.42,24.41,57.02,10.31,36.89,6.46,36.39,6.7,57.66,10.14,2.42,6.47,5.61,35.73,2.48,26.4.69,10.64,1.03,16.2.21,56.73-38.24,2.68c-1.21,3.53-1.63,8.23-1.33,12.5l-1.29,16.85,39.2-4.49-1.78,18.87-2.08,12.41-22.41,4.73c-4.14.88-6.86,6.74-8.42,10.44l-6.64,15.71-55.31,11.88-104.41,22.69,6.56-33.59c.44-2.27.24-8.34-3.84-7.72l-89.4,13.56c-3.56.54-5.48,2.98-6.12,6.36l-8.28,43.37-41.94,9.08c.47-20.59-7.68-43.71-29.07-41.07ZM892.72,517.09l34.19-5.5,10.99-.65-7.08,38.09-45.37,9.82c3.83-14.6,6.04-27,7.27-41.76ZM882.27,559.46l-46.22,10.17,8-41.1c.61-3.13,2.47-4.44,5.47-4.88l40.54-6.07-7.79,41.88ZM1037.12,537.61l-149.93,35.98-103.44,24.79,6.14-14.42,45.61-10.14,19.77-4.29,90.52-19.84,110.66-24.38,35.03-7.55c-1.44,3.31-4.11,6.72-6.89,8.61l-47.47,11.24ZM1073.81,537.99l-.44-2.17c-.1-.5,3.06-.94,3.25-.47l3.44,8.47c-3.27-.89-4.85-3.16-6.25-5.83ZM1093.76,540.34c-.68,1.3-3.44,3.27-4.9,3.38-1.46.11-4.67-1.35-5.39-2.71l-3.5-6.58,9.82-3.85c1.43,2.01,3.35,3.73,7.13,3.67l-3.16,6.09ZM1105.44,526.41c-3.82-3.94-2.57-9-.19-12.76,3.71,3.98,2.95,8.92.19,12.76ZM1119.89,531.48c-.75-.39.47-3.5,1.35-3.94l2.14,5.78-3.49-1.84ZM1111.12,525.5l-.52-10.22c-.09-1.87-2.94-4.32-4.47-4.43-2.35-.16-4.4,1.5-5.17,3.99-1.46,4.68-1.65,8.23,1.08,12.98l-8.07,1.4c-1.22-4.19,3.37-6.71,6.61-15.68.74-2.04,1.96-4.29,3.33-4.93,1.54-.72,5.6-.48,6.27.92.85,4.57,4.33,10.03,9.71,8.84l15.7-3.48-1.46,5.62-23.01,4.99ZM1130.66,533.09c-2,.56-4.79-3.5-4.99-5.68l11.89-4.21c-.66,4.2-1.88,8.48-6.9,9.89ZM1117.98,514.65l-5.79-8.58c-1.15-1.7-4.51-2.13-7.73-1.84,1.68-4.14,3.46-7.53,6.72-10.73,6.36,8.46,3.32,17.99,12.92,16.55,4.41.42,7.75-4.04,13.48-.44l-19.6,5.04ZM1137.38,496.93c-5.09.66-11.5,1.05-14.78-4.98.29-2.2,5.62-3.45,7.08-2.25,2.72,2.24,4.94,3.52,8.17,3.31,5.61-.38,6.52-6.43,12.97-7.03-1.29,7.35-6.66,10.07-13.44,10.95ZM1143.71,517.72c-.84.65-3.77.75-4.23-.19-1.02-2.03.95-6.21,1.64-8.1l1.02-2.77c.21-.56,2.39-.48,2.81-.25l.36,7.5c.05.94-.9,3.27-1.6,3.81ZM1150.06,510.49c-2.36-2.72-.46-6.65-1.75-7.01l-5.95-1.62,9.25-5.94.28,12.18c.01.51-1.56,2.69-1.83,2.39ZM1159.52,478.48l-14.8,2.03,2.12-21.22,1.15-9.35,34.36-4.06-.21,3.26-.42,6.28c-.82,12.08-2.26,23.58-4.52,35.28-.17.87.19,1.87.52,2.2.17.17.54.32,1.02.35.06,0,.12.01.18.01.2,0,.41-.03.63-.09l1.62-.43.13-.03.08-.02,25.84-6.78c2.52-9.3,3.93-18.47,4.78-28.06l1.06-11.99.3-3.52,61.76-7-.23,3.95-.32,5.62c-.53,9.14-1.41,17.87-2.78,26.67-.1.7-.22,1.41-.33,2.11-.06.36-.12.72-.18,1.08-.02.09-.03.19-.02.29l-13.59,2.89-90.62,19.78-.9-13.54c-.17-2.5-4.23-6.03-6.63-5.71ZM1185.97,420.31c.02-.55.04-1.11.05-1.66.1-3.67.19-7.34.24-11.04.54-33.46-1.59-66.25-5.02-99.61l12.85,1.9c2.26,17.1,3.27,33.37,4.22,50.47,1.07,19.35,1.18,38.41.54,57.73,0,.43-.03.87-.05,1.3-.27,8.17-.69,16.4-1.22,24.73-.06.99-.12,1.97-.19,2.96-.01.14-.02.29-.02.43-.78,11.5-1.52,21.65-3.5,32.28l-12.84,2.77c1.66-11.29,2.8-22.49,3.59-33.7.08-1.1.15-2.19.22-3.29.55-8.38.9-16.79,1.13-25.27ZM1212.21,417.53c-.01.31-.02.61-.03.92-.17,5.32-.4,10.66-.69,16-.15,2.75-.32,5.47-.51,8.16-.08,1.17-.17,2.33-.26,3.49-.77,10.17-1.88,20.09-3.7,30.49l-10.94,2.7,2.02-15.96c.5-5.38.93-10.71,1.32-16.03.08-1.13.16-2.27.23-3.4.57-8.21.99-16.39,1.26-24.65.02-.41.04-.83.05-1.24.21-6.13.35-12.32.41-18.57.31-29.95-1.85-59.16-4.93-89.29l10.77,1.54c4.49,35.3,6.1,70.43,5,105.84ZM1205.54,483.94l-24.79,6.07c-1.18.29-1.01-3.32.01-3.74l25.56-6.02c.33,1.62-.09,2.68-.78,3.69ZM1277.69,414.72c.01-.28.01-.57.02-.85.07-3.12.12-6.26.17-9.4.39-28.3-1.15-56.04-3.65-84.27l9.36,1.61c1.62,14.46,2.37,28.23,3.06,42.7.78,16.32.87,32.41.4,48.71-.01.37-.02.73-.03,1.1-.2,6.54-.47,13.12-.84,19.76-.06,1.26-.13,2.52-.2,3.79,0,.08-.01.16-.01.24-.57,9.78-1.1,18.41-2.55,27.44l-9.35,2.35c1.23-9.64,2.06-19.22,2.63-28.8.08-1.32.15-2.64.22-3.96.37-6.78.6-13.57.77-20.42ZM1296.77,412.52c0,.46-.02.92-.03,1.38-.13,4.42-.29,8.85-.5,13.28-.09,1.95-.19,3.89-.31,5.8-.07,1.38-.16,2.74-.25,4.1-.45,6.91-1.07,13.67-1.99,20.64-.21,1.7-.45,3.38-.71,5.11l-1.15.32-6.8,1.95,1.46-13.5c.36-4.58.69-9.11.97-13.65.08-1.35.16-2.69.23-4.04.38-6.54.66-13.07.86-19.66l.03-1.14c.15-5.14.25-10.32.3-15.56.23-25.33-1.35-50.04-3.6-75.53l7.84,1.3c3.26,29.74,4.43,59.36,3.65,89.2ZM1273.57,471.37c.09-.17.19-.3.31-.36l17.32-4.74,1.28-.35c.25,1.37-.07,2.27-.57,3.13l-18.03,5.14c-.35.09-.54-.34-.59-.92-.05-.63.04-1.42.28-1.9ZM1286.61,488.32c-.95.1-1.95-1.52-2.67-3.27l6.87-2.07c.31,2.54-1.83,5.08-4.2,5.34ZM1285.48,478.72l-119.81,28.5c-.42-1.91.6-4.64,1.73-6.16l27.12-5.84,80.07-17.6,17.47-3.83c-.73,3.6-3.22,4.14-6.58,4.93ZM1307.89,482.35c-.25.77-2.1.3-2.66-.43-.51-.66-.58-2.73.11-3.2.56-.37,3.92-.57,3.71.06l-1.16,3.57ZM1315.87,472.34l-10.45,2.37-1.99-8.11c-3.37,1.68-.22,8.6-2.14,9.01l-3.53.75,3.49-10.95c.48-1.52,1.34-3.72,2.59-3.71,2.04.01,3.16,1.02,4.3,4.26l8.56-1.06c.21,1.37-.13,5.66-.83,7.44ZM1332.39,455.73c-.49,3.37-2.56,6.75-5.9,7.79.43-5.34,1.51-11.01-2.88-14.37l-21.9,3.79c-2.4,1.31-4.31,6.15-5.21,8.68l-3.13,8.73-.17.04c1.22-5.26,2.08-10.45,2.69-15.76.3-2.53.54-5.07.73-7.65l.76-10.08.32-4.12,30.58-3.47,8.01-.86-3.9,27.28ZM1329.71,410.17l-31.27,2.24c.49-14.63.46-28.96-.07-43.21v-.08c-.51-14.03-1.53-27.95-3.03-41.87-.14-1.31-.28-2.62-.43-3.94-.19-1.71-1.19-2.74-2.31-2.95l-17.54-3.27c-1.4-.07-2.86,1.25-2.64,3.56,2.93,30.98,4.35,61.95,3.58,93.12v.2s-18.65,1.05-18.65,1.05l-42.91,3.26.04-.85v-.33c1.41-35.96-.21-70.61-4.83-105.42h0c-.25-2.02-1.64-3.25-3.17-3.5l-24.11-3.86c-1.93-.08-3.92,1.48-3.62,4.21,4.03,36.62,5.97,73.22,4.92,110.07v.15l-.08,1.7-34.74,2.51.46-24.78-.16-26.15-1.1-22.98-3.57-37.84-5.81-36.87,31.74,5.36,35.02,6.27,69.76,12.49,38,7.15c2.83.54,5.93,1.92,6.89,4.59l4.62,12.85c6.46,22.83,9.82,45.82,11.87,69.42l.53,16.76-7.4.94Z"/>
</svg>